<?xml version="1.0" encoding="UTF-8" standalone="no"?>
<!-- Created with Inkscape (http://www.inkscape.org/) -->

<svg
   width="210mm"
   height="297mm"
   viewBox="0 0 210 297"
   version="1.1"
   id="svg1"
   xml:space="preserve"
   sodipodi:docname="logo.svg"
   inkscape:version="1.4.4 (dcaf3e7d9e, 2026-05-05)"
   inkscape:export-filename="Club_Logo.png"
   inkscape:export-xdpi="300"
   inkscape:export-ydpi="300"
   xmlns:inkscape="http://www.inkscape.org/namespaces/inkscape"
   xmlns:sodipodi="http://sodipodi.sourceforge.net/DTD/sodipodi-0.dtd"
   xmlns="http://www.w3.org/2000/svg"
   xmlns:svg="http://www.w3.org/2000/svg"><sodipodi:namedview
     id="namedview1"
     pagecolor="#ffffff"
     bordercolor="#000000"
     borderopacity="0.25"
     inkscape:showpageshadow="2"
     inkscape:pageopacity="0.0"
     inkscape:pagecheckerboard="0"
     inkscape:deskcolor="#d1d1d1"
     inkscape:document-units="mm"
     inkscape:zoom="0.74029882"
     inkscape:cx="395.11072"
     inkscape:cy="605.83644"
     inkscape:window-width="1920"
     inkscape:window-height="1040"
     inkscape:window-x="0"
     inkscape:window-y="0"
     inkscape:window-maximized="1"
     inkscape:current-layer="svg1"><inkscape:page
       x="0"
       y="0"
       width="210"
       height="297"
       id="page2"
       margin="0"
       bleed="0" /></sodipodi:namedview><defs
     id="defs1" /><g
     id="g1"
     transform="translate(-0.05135415,-3.819639)"><circle
       style="display:inline;opacity:1;fill:#ffffff;stroke-width:102.631"
       id="path2"
       cx="104.61652"
       cy="151.61354"
       inkscape:label="Background-White"
       r="103.17011" /><g
       id="g9"
       inkscape:label="ARIES-background"
       transform="matrix(1.2765054,0,0,1.2765054,-30.077816,-37.531678)"><path
         style="fill:#ffffff;stroke-width:80.4"
         d="m 33.3375,157.29479 27.252083,-5.15938 0.926041,4.49792 -3.042708,5.15938 -22.754166,4.36562 z"
         id="path4"
         inkscape:label="aries-background-light blue" /><path
         style="display:inline;fill:#f66151;stroke-width:80.4"
         d="m 43.778749,166.696 9.447977,2.80633 10.009243,-7.01582 1.683798,-11.13178 -3.461139,-0.18709 -1.122532,9.16735 -10.757598,5.33203 -5.519116,-1.49671 z"
         id="path3"
         inkscape:label="Aries-curve-orange" /></g><g
       id="g8"
       inkscape:label="AcSIR-background"
       transform="matrix(1.2765054,0,0,1.2765054,-30.077816,-37.531678)"><path
         id="path6"
         style="display:inline;fill:#99c1f1;stroke-width:80.4"
         d="m 165.14961,152.44961 -0.81029,3.91914 1.2237,2.08359 -0.76068,5.29167 2.4474,0.47956 1.19062,-5.77123 1.25678,-1.5875 0.82682,-4.0845 z m -12.94805,0.81029 -3.77031,0.46302 -3.63802,6.15156 8.26823,1.78594 z"
         inkscape:label="AI-lightblue" /><path
         id="path7"
         style="display:inline;fill:#1a5fb4;stroke-width:80.4"
         d="m 158.75,155.11198 -6.21771,1.32292 0.79375,6.01927 10.64948,1.98437 1.12448,-2.64583 0.33073,-3.30729 -0.79375,-2.18282 z m 10.33115,2.06602 -1.09916,6.87555 6.68849,1.00563 0.77204,-7.06262 z"
         inkscape:label="cSR-darkblue" /></g><path
       id="path18235"
       style="display:inline;fill:#00004c;stroke:none;stroke-width:1.2765"
       inkscape:label="Logo"
       d="m 102.75706,48.180264 c -0.78702,0.02267 -1.56459,0.07568 -2.32462,0.175468 C 93.939862,49.208125 87.516034,49.470685 81.083519,50.99566 61.6988,55.591208 43.66988,65.740737 29.879975,80.162196 22.016721,88.385588 15.320794,97.92666 10.56601,108.28187 c -16.0641572,34.98544 -11.8214362,76.95724 11.782054,107.57809 6.685933,8.67367 14.721268,16.32441 23.779152,22.48823 9.237416,6.28598 19.512333,11.29386 30.31301,14.25377 13.93126,3.8178 28.385904,4.83155 42.695344,2.94996 34.31517,-4.51219 65.58677,-27.25579 80.06334,-58.78361 5.96733,-12.99598 9.21269,-26.75256 9.8374,-41.01786 1.21685,-27.78616 -9.88692,-55.57605 -29.02273,-75.588254 -12.93402,-13.526383 -29.67302,-23.379842 -47.72125,-28.268089 -7.3428,-1.988738 -14.8574,-3.136851 -22.44467,-3.469111 -2.28717,-0.100116 -4.7295,-0.312685 -7.0906,-0.244732 z m 0.39645,5.178932 c 2.10188,-0.04873 4.26184,0.136048 6.30826,0.225599 5.99854,0.262696 11.93634,1.026483 17.80007,2.372112 28.30876,6.496361 52.57655,25.647366 65.88014,51.421893 6.65733,12.89798 10.10266,27.22057 10.73517,41.66431 0.95928,21.90474 -6.12625,44.29503 -19.1055,61.91499 -15.91313,21.60277 -40.99243,36.82366 -67.82876,39.70711 -15.41495,1.65627 -30.881169,0.11642 -45.533834,-5.09844 -9.82378,-3.49632 -18.941295,-8.67402 -27.216602,-14.98798 C 38.539711,226.2658 33.459083,221.16657 28.895773,215.73002 3.6531062,185.65698 -0.8230597,142.43703 16.686267,107.50809 22.382425,96.14495 30.50234,85.961298 40.06501,77.619234 52.633281,66.655257 67.912269,59.152724 84.179268,55.579587 c 5.621138,-1.234703 11.23176,-1.413407 16.896982,-2.081865 0.68141,-0.0804 1.37663,-0.122275 2.07726,-0.138526 z m 1.91959,3.067383 c -1.53464,-0.03828 -3.06862,-0.0047 -4.51203,0.184703 v 6.6e-4 c -2.771057,0.363814 -5.59902,0.38909 -8.384176,0.755302 -5.108051,0.671665 -10.14926,1.797837 -15.091528,3.243512 C 57.970527,66.202045 40.739596,78.433991 28.698537,94.222038 9.8850393,118.89008 4.311723,151.73541 13.496186,181.29022 c 2.672013,8.59832 6.677366,16.73453 11.615822,24.24948 6.88823,10.48196 16.003854,19.34007 26.304302,26.43955 8.992143,6.19774 19.352881,10.6934 29.925134,13.37049 11.471016,2.90464 23.611716,3.66411 35.342856,2.20454 33.4516,-4.16206 62.71261,-26.1075 76.25187,-56.97681 4.88166,-11.13018 7.31504,-23.12216 7.84459,-35.21422 1.15,-26.2604 -9.75406,-52.57344 -28.24896,-71.068322 -12.35018,-12.350174 -28.30264,-21.120865 -45.26996,-25.143324 -5.84978,-1.386794 -11.69416,-2.067609 -17.67145,-2.476996 -1.44728,-0.09912 -2.98265,-0.209751 -4.51729,-0.248029 z m -3.22306,3.230978 c 36.60881,-1.603191 72.02764,20.4218 87.28719,53.654813 5.9709,13.00378 8.55832,27.29813 8.55832,41.53833 l -40.4446,-7.31951 c -0.12266,-5.94758 -2.9508,-13.22767 -5.57802,-18.48214 -2.88133,-5.76258 -6.79795,-10.94682 -11.51226,-15.33824 -14.92453,-13.90232 -37.21672,-17.45672 -55.85277,-9.48184 -4.488633,1.9208 -8.792771,4.52845 -12.511628,7.69945 -7.100062,6.0541 -12.759294,13.70634 -15.905541,22.53836 -1.176747,3.30334 -2.074921,6.71726 -2.575282,10.18964 -0.11463,0.79554 -0.320593,3.28969 -0.320593,3.28969 0,0 -26.997423,5.28717 -40.482871,7.53191 -0.510325,-2.74884 -0.306443,-4.82151 -0.185362,-7.59655 0.306218,-6.99264 1.427149,-13.88672 3.304198,-20.63789 7.484827,-26.92065 27.418176,-49.344084 53.069043,-60.312695 10.50958,-4.49403 21.772235,-6.77504 33.150176,-7.273328 z m 4.1281,6.05759 -12.12441,1.440021 -9.029323,1.010588 c 1.1e-4,0.943187 -0.08683,2.594818 0.353574,3.441405 0.362248,0.696382 1.608706,-0.05024 2.017876,1.073914 0.865965,2.378961 0.709501,5.488859 1.018505,7.996968 0.127268,1.03311 0.565635,2.46125 0.309377,3.48296 -0.205376,0.818905 -1.036681,0.999885 -1.764571,1.031705 l 0.386556,3.74089 13.415346,-1.58515 7.86833,-0.86545 -0.77443,-6.965945 c -0.70565,4.73e-4 -3.02093,-0.113631 -3.479,0.465056 -0.65004,0.821253 0.36319,2.039554 -0.78234,2.748774 -0.89287,0.55278 -2.20458,0.54831 -3.21977,0.66229 -1.956217,0.21965 -3.96384,0.6331 -5.932913,0.63855 l -0.516507,-4.385376 7.73904,-0.903065 -0.38723,-3.87018 c -2.452738,0.02022 -5.353201,0.334058 -7.739027,0.903723 l -0.515848,-4.514661 c 2.197159,-0.173432 4.388061,-0.52188 6.578704,-0.767836 0.852151,-0.09571 2.053741,-0.389573 2.831891,0.104226 0.76915,0.488119 0.87331,1.639718 0.909,2.46908 0.71342,-8.5e-5 3.01278,0.124472 3.47901,-0.465055 0.33559,-0.424327 0.0415,-1.372057 -0.0165,-1.856923 -0.19787,-1.653604 -0.23959,-3.410979 -0.62534,-5.030509 z m 9.54584,0.515847 -0.90308,3.612258 c 0.50482,0.104477 1.52413,0.215848 1.7052,0.800819 0.23228,0.750267 -0.49129,2.194818 -0.688,2.939409 -0.54614,2.067539 -1.12239,4.127387 -1.68146,6.191497 -0.23444,0.86551 -0.36924,2.109506 -0.96704,2.808806 -0.51806,0.606 -1.32175,0.32804 -1.98029,0.15766 -0.19191,0.68133 -1.18525,2.920315 -0.76521,3.518585 0.27048,0.38518 1.23875,0.47407 1.66827,0.5904 1.54758,0.41913 3.09865,0.82465 4.64329,1.25399 0.45454,0.12637 1.55436,0.6384 1.94335,0.23285 0.38361,-0.4 1.0826,-2.70336 0.75661,-3.18282 -0.43048,-0.63318 -1.37722,-0.49363 -1.39121,-1.509945 -0.0115,-0.80842 0.37693,-1.67628 0.57854,-2.45061 0.45953,-1.764989 0.91094,-3.551385 1.46639,-5.288435 1.77769,3.334506 3.28416,6.884045 4.86163,10.31961 0.59606,1.29808 1.21646,3.73081 2.31539,4.66243 0.96246,0.81591 3.70131,1.23172 4.94805,1.39977 1.16768,-4.1146 2.25532,-8.254535 3.37347,-12.382997 0.52434,-1.936039 0.60939,-4.07669 3.07595,-3.612258 l 0.90306,-3.611596 -8.38418,-2.192686 -0.90306,3.612258 c 0.67087,0.100995 1.44503,0.393238 1.56602,1.160327 0.11591,0.734759 -0.30369,1.621148 -0.48617,2.321977 -0.486,1.86659 -1.20944,3.76257 -1.46707,5.67565 -1.88761,-3.23414 -3.39377,-6.897326 -4.91902,-10.319602 -0.58418,-1.310797 -1.25018,-3.747097 -2.35428,-4.681555 -0.52565,-0.444831 -1.49132,-0.539332 -2.14257,-0.715722 -1.59193,-0.431163 -3.18505,-0.862895 -4.77258,-1.31007 z m -38.825831,5.03117 -3.353672,1.287641 -5.675651,2.452587 1.418914,3.354335 c 0.620488,-0.201835 1.334548,-0.578875 1.911012,-0.08774 0.696062,0.592974 0.966727,1.722597 1.313368,2.537684 0.80366,1.889712 1.625035,3.774587 2.399815,5.676317 0.338904,0.83183 1.071827,1.91624 1.040273,2.83715 -0.02538,0.74054 -0.826435,1.09387 -1.376036,1.41958 l 1.28962,3.35302 3.095748,-1.21178 5.933576,-2.52846 -1.418912,-3.35367 c -0.633064,0.17274 -1.323855,0.59028 -1.909694,0.0872 -0.71072,-0.6104 -1.01196,-1.82918 -1.369439,-2.66698 -0.805627,-1.888045 -1.61146,-3.778117 -2.394538,-5.675648 -0.33001,-0.799662 -1.081431,-1.951451 -0.991458,-2.837823 0.07356,-0.724727 0.825072,-0.987788 1.376694,-1.290281 z m -15.712262,8.54118 c -0.552121,-0.0063 -1.270085,0.262659 -1.701904,0.414921 -1.700643,0.59969 -3.295555,1.455468 -4.772585,2.487548 -4.346642,3.037255 -8.788626,7.737765 -7.038492,13.450977 0.346463,1.131 0.921476,2.12096 1.578548,3.09576 0.809078,1.20028 1.768173,2.26314 2.880703,3.1881 5.19299,4.31743 11.688217,1.01397 15.865302,-3.06079 1.365816,-1.33237 2.691388,-2.70628 3.629408,-4.384052 0.277046,-0.49553 0.75976,-1.2106 0.691975,-1.80548 -0.160136,-1.40531 -2.382811,-3.08199 -3.159736,-4.25673 -0.724835,0.33201 -2.708376,1.60405 -2.810779,2.4526 -0.12257,1.01553 0.44372,1.76174 -0.01253,2.83584 -0.905409,2.131372 -3.192215,3.991242 -5.303606,4.843172 -4.555715,1.83819 -10.305137,-4.658472 -7.808305,-8.970622 1.185157,-2.04683 3.919187,-4.44446 6.389394,-4.63208 0.88093,-0.067 1.989465,0.82995 2.709191,0.62271 0.964638,-0.27776 1.91385,-1.45457 2.708532,-2.053495 -0.663174,-1.06137 -1.538771,-1.99294 -2.321315,-2.96712 -0.316986,-0.394609 -0.670335,-1.031792 -1.172863,-1.206508 -0.104157,-0.03625 -0.223521,-0.05297 -0.350934,-0.05475 z m 87.735743,1.020483 c -2.07169,-0.04378 -4.12215,0.608456 -5.98106,2.317356 -1.05991,0.97436 -1.9747,2.118805 -2.73293,3.341815 -0.85299,1.3758 -1.57528,3.00043 -1.64781,4.64329 -0.24906,5.638092 4.56003,9.645712 9.0247,12.252392 1.29445,0.75577 3.97934,2.26261 5.54107,1.89319 0.53291,-0.12612 0.84281,-0.71358 1.15111,-1.11744 0.76017,-0.99587 1.4897,-2.04427 2.33715,-2.96713 -0.48545,-0.6328 -2.12252,-2.236 -2.96712,-2.19399 -0.91594,0.0455 -1.54506,0.85991 -2.57991,0.73748 -1.8987,-0.22463 -3.80844,-1.50702 -5.15388,-2.81144 -1.0711,-1.03845 -1.99544,-2.449512 -1.99544,-3.986932 0,-3.92051 4.35463,-8.24423 8.3103,-6.82542 2.09558,0.75161 4.42101,2.57994 5.35111,4.63273 0.48947,1.08041 -0.033,1.80548 0.0937,2.83188 0.0778,0.63116 1.9495,2.014022 2.55285,2.139262 0.46593,0.0966 0.77224,-0.39976 1.01454,-0.715062 0.59857,-0.77883 2.51058,-2.59145 2.36751,-3.6116 -0.32053,-2.28562 -3.26767,-4.86737 -4.93025,-6.21723 -2.7901,-2.265335 -6.30276,-4.270251 -9.75559,-4.343151 z m 21.88464,16.493963 c -0.80832,0.034 -2.2847,1.33504 -2.84112,1.67682 0.17823,0.61893 0.70808,1.30317 0.30872,1.93279 -0.54584,0.86056 -1.78815,1.39019 -2.63069,1.91234 -1.63985,1.01626 -3.26969,2.05055 -4.90189,3.07925 -0.77409,0.4879 -1.67549,1.29793 -2.5799,1.50138 -0.74595,0.1678 -1.20459,-0.52652 -1.54753,-1.07325 l -3.22506,1.80612 4.94146,7.99696 6.40984,10.19032 c 1.45505,-0.80703 2.84415,-1.75424 4.25675,-2.634 0.41144,-0.25624 1.34434,-0.62765 1.4895,-1.13065 0.14143,-0.49012 -0.55615,-1.26634 -0.80478,-1.65308 -0.21973,-0.3418 -0.48243,-0.95639 -0.86282,-1.14318 -1.14091,-0.56023 -1.93812,1.49918 -3.28245,0.10419 -1.99657,-2.07151 -3.05321,-5.06242 -4.79501,-7.34523 l 3.72902,-2.08121 1.26059,1.56536 2.87873,4.64396 3.35433,-1.9361 -3.99881,-6.70668 3.6116,-2.32198 h 0.12863 c 0.98161,1.76305 2.14505,3.44873 3.21779,5.15914 0.51533,0.82162 1.25329,1.74012 1.45057,2.70919 0.26881,1.32057 -1.36392,1.38281 -1.64386,2.34574 -0.22632,0.77839 1.28494,2.36479 1.61945,3.07199 1.54137,-0.58337 2.98669,-1.76352 4.38537,-2.63465 0.39825,-0.24804 1.33331,-0.61985 1.43474,-1.12999 0.0844,-0.42465 -0.36406,-0.93376 -0.57323,-1.26586 -0.59584,-0.94612 -1.19924,-1.88812 -1.78898,-2.83783 -2.1144,-3.40508 -4.24704,-6.79958 -6.38412,-10.19032 -0.5211,-0.82679 -1.47079,-3.22506 -2.38926,-3.57926 -0.0676,-0.026 -0.14396,-0.0358 -0.22758,-0.0323 z m -132.126405,2.82925 c -0.03065,10e-4 -0.06149,0.003 -0.09169,0.0102 -1.181209,0.22133 -2.764768,2.46011 -3.482305,3.35169 -0.540266,0.67135 -1.050895,1.36094 -1.548865,2.06406 -2.126603,3.00283 -5.612412,8.76803 -2.061414,11.97203 0.495365,0.44697 1.08061,0.78998 1.674857,1.08711 4.425105,2.21228 7.575589,-1.88307 10.577528,-4.4909 1.055803,-0.91719 3.870167,-4.45345 5.118244,-1.86089 0.348628,0.72418 -0.123349,1.66886 -0.449884,2.32198 -0.871169,1.74256 -2.245932,3.70046 -4.02388,4.59514 -0.718504,0.36157 -1.749427,0.24712 -2.382665,0.69197 -0.82765,0.58144 -1.280966,2.02272 -1.874071,2.83915 v 0.12928 c 1.017987,0.73955 2.145719,1.36443 3.22504,2.01194 0.39404,0.23639 0.926133,0.68391 1.418913,0.57258 1.24892,-0.28221 2.789095,-2.52447 3.560144,-3.48825 0.600594,-0.75071 1.152283,-1.5216 1.685412,-2.3213 2.040558,-3.06085 5.575062,-8.76089 2.223689,-12.11255 -0.473581,-0.47363 -1.068558,-0.84036 -1.664963,-1.13856 -4.457943,-2.22898 -7.726144,2.01947 -10.70616,4.71586 -1.01706,0.92028 -3.768261,4.09996 -5.007422,1.69661 -0.356501,-0.69145 -0.0036,-1.54885 0.298163,-2.19136 0.791138,-1.68427 2.227042,-3.5311 3.935487,-4.34314 0.661765,-0.31455 1.685565,-0.18806 2.243477,-0.56138 0.807059,-0.53999 1.4347,-2.1178 1.884628,-2.96313 -1.072592,-0.6566 -2.14664,-1.31411 -3.22504,-1.96118 -0.362633,-0.21757 -0.867404,-0.64818 -1.327221,-0.62666 z m 66.981115,4.81413 c 4.27533,-0.13726 8.95444,0.8827 12.90082,2.06669 19.61933,5.88616 32.77514,23.84134 33.66139,44.07865 0.65902,15.04799 -6.75171,29.60353 -18.35086,38.76711 -14.89231,12.10753 -38.595282,13.17565 -57.234744,0.2322 -18.051177,-13.89411 -23.937729,-39.90541 -12.985918,-60.15305 2.24333,-4.14744 5.094269,-8.05356 8.473236,-11.34998 5.970479,-5.82459 13.527421,-10.20842 21.670903,-12.14156 3.361971,-0.79809 6.661743,-0.96647 10.060353,-1.36747 h 0.001 c 0.59098,-0.0697 1.19272,-0.11294 1.8035,-0.13259 z m -55.559233,51.2042 c 0.03227,-7.9e-4 0.06555,3.7e-4 0.0996,0.003 0.524488,0.0474 0.675312,0.51431 0.733533,0.78893 0.108827,0.51353 0.172783,1.03928 0.229559,1.54031 0.254283,2.24402 -0.01345,4.53141 -0.676805,6.67237 -2.117024,6.83256 -8.748622,11.63863 -15.88641,11.56767 -1.900105,-0.0189 -3.750106,-0.35498 -5.539101,-0.98619 -0.446847,-0.15767 -0.884856,-0.34241 -1.30875,-0.53959 -0.08452,-0.0394 -0.44919,-0.15352 -0.637885,-0.37535 -0.07229,-0.0852 -0.120514,-0.18128 -0.153698,-0.26716 -0.107245,-0.27737 -0.148712,-0.77724 -0.17217,-0.88855 l 0.518488,-0.43405 c 0.58113,0.23571 1.141403,0.57578 1.646492,0.78499 1.186347,0.49148 2.439403,0.83399 3.710544,1.00663 4.076723,0.55364 8.33501,-0.62167 11.513573,-3.24154 1.339534,-1.10406 2.444193,-2.41994 3.367526,-3.89921 1.592645,-2.55157 2.308812,-5.69032 2.114188,-8.69091 -0.04256,-0.65619 -0.238548,-1.41971 -0.290906,-2.16695 -0.03007,-0.42902 0.248259,-0.86277 0.732213,-0.8747 z m 133.330933,2.32924 a 1.7314427,1.7314427 0 0 1 1.73159,1.73159 1.7314427,1.7314427 0 0 1 -1.73159,1.73091 1.7314427,1.7314427 0 0 1 -1.73092,-1.73091 1.7314427,1.7314427 0 0 1 1.73092,-1.73159 z m -136.360716,0.27442 0.323888,1.53897 -0.374682,0.079 c -0.330533,0.0696 -0.753928,0.12179 -1.085788,0.18209 -0.353985,0.0645 -0.679382,0.1515 -0.908342,0.27837 -0.154679,0.0857 -0.24755,0.17734 -0.313336,0.27705 -0.06578,0.0997 -0.10557,0.21266 -0.125993,0.34895 -0.04085,0.27259 0.01116,0.63374 0.08905,1.00399 l 0.396452,1.88001 c 0.165952,0.78782 0.361796,1.67416 -0.18932,2.53966 -0.752131,1.18119 -2.332153,1.24385 -3.313436,1.45059 l -0.453841,-0.2962 c -0.0066,-0.0317 -0.151477,-0.46245 -0.153699,-0.70254 -7.27e-4,-0.0802 0.0082,-0.19399 0.06728,-0.30541 0.07544,-0.14247 0.203226,-0.21426 0.282992,-0.25066 0.245146,-0.11193 0.794685,-0.16527 0.815329,-0.17018 0.442209,-0.0932 0.859972,-0.16188 1.126029,-0.31401 0.177369,-0.10145 0.294976,-0.21828 0.378638,-0.44855 0.05983,-0.1647 0.06403,-0.34342 0.03364,-0.55742 -0.03041,-0.214 -0.09763,-0.45389 -0.152379,-0.71375 -0.28615,-1.35843 -1.252588,-3.72973 0.476268,-4.95728 0.218615,-0.15525 0.463155,-0.27913 0.724959,-0.35885 0.649029,-0.19765 1.377812,-0.29762 1.981596,-0.42482 z m 113.466816,0.57521 2.96844,0.49079 1.5858,8.42706 -2.70258,-0.44725 -0.14976,-1.17549 -2.78439,-0.46046 -0.5198,1.06536 -2.61092,-0.43143 z m -130.10787,1.1656 c 0.258412,0.009 0.490658,0.0898 0.689996,0.22033 0.917179,0.60054 0.989221,2.15957 -0.269797,2.62014 -0.337252,0.12344 -0.667429,0.12066 -0.957155,0.0166 -1.157724,-0.41601 -1.397293,-2.25516 -0.04815,-2.75735 0.16097,-0.06 0.319907,-0.0908 0.472971,-0.0983 0.03794,-0.001 0.07523,-0.002 0.11214,-0.001 z m 8.418485,0.10555 c 0.471274,0.009 0.965446,0.14764 1.369438,0.42945 0.895295,0.62445 1.031147,1.58861 1.204526,2.41168 l 0.07915,0.37468 -4.510044,0.9499 -0.323888,-1.5383 2.913684,-0.61414 c -0.09383,-0.14926 -0.195995,-0.23758 -0.315973,-0.30082 -0.127396,-0.0673 -0.281429,-0.10361 -0.463737,-0.11339 -0.27346,-0.014 -0.604047,0.0382 -0.940004,0.11608 -0.31496,0.0729 -0.694461,0.18349 -0.991458,0.24606 -0.274698,0.0578 -0.542363,0.0929 -0.770473,0.15238 -0.228112,0.0595 -0.408119,0.13898 -0.542236,0.26254 -0.19268,0.17748 -0.318004,0.45503 -0.322569,0.71639 -0.0022,0.13289 0.02486,0.2993 0.06728,0.48021 0.03712,0.15833 0.104068,0.40036 0.141166,0.57654 l 0.346976,1.64848 c 0.06389,0.30332 0.114681,0.55946 0.197237,0.75265 0.08254,0.1932 0.180117,0.32816 0.394472,0.45781 0.246753,0.14919 0.612688,0.16099 1.045549,0.0845 0.432863,-0.0764 0.900417,-0.23313 1.327882,-0.32322 l 0.374681,-0.079 0.245391,1.16429 -0.296184,0.45382 c -0.902903,0.1903 -2.278378,0.72716 -3.39919,0.13063 -0.455579,-0.24247 -0.855163,-0.62082 -1.095022,-1.10031 -0.262581,-0.52492 -0.327944,-1.19107 -0.421518,-1.63527 -0.234847,-1.11484 -0.985878,-2.92387 0.03629,-4.19276 0.800523,-0.99377 2.207361,-1.05919 3.135328,-1.25465 0.405336,-0.0854 0.981967,-0.26706 1.513244,-0.25596 z m 141.330535,1.1478 c 2.19051,0.68573 2.90443,2.54256 2.88862,4.21321 0.32103,-1.63462 1.35403,-3.32376 3.45329,-3.71782 -1.8746,1.91419 -2.13795,3.73694 -2.13795,3.73694 0,0 -0.90767,5.36506 -0.90767,5.35176 l -2.55286,-0.42218 0.76322,-5.2825 c 0,0 0.24188,-1.83111 -1.50665,-3.87941 z m -18.61011,0.0304 c -0.0537,0.13353 -0.12191,0.28431 -0.20516,0.45252 -0.0755,0.16948 -0.15634,0.34607 -0.24209,0.52969 -0.0845,0.17592 -0.16744,0.34413 -0.24935,0.50464 l -0.59104,1.20783 1.73224,0.28628 -0.17084,-1.3338 c -0.0157,-0.0976 -0.0319,-0.21499 -0.0488,-0.35228 -0.0169,-0.13726 -0.0326,-0.28202 -0.0468,-0.43471 -0.0143,-0.15269 -0.0292,-0.30159 -0.0449,-0.44656 -0.0143,-0.1527 -0.028,-0.28555 -0.0409,-0.39846 z m 15.2096,0.0534 c 0.64263,-0.0288 1.3862,0.0967 2.25469,0.56663 0.40829,0.16242 0.75784,0.37035 1.0482,0.62403 0.29034,0.25369 0.50199,0.54997 0.63591,0.88855 0.1339,0.3386 0.16989,0.72034 0.10747,1.14518 l -0.0231,0.13852 -2.39124,-0.39512 0.008,-0.0468 c 0.023,-0.13862 0.0102,-0.27497 -0.039,-0.40966 -0.0488,-0.13467 -0.14565,-0.25308 -0.28695,-0.35553 -0.13361,-0.10125 -0.32284,-0.17236 -0.56928,-0.21308 -0.23103,-0.0381 -0.4316,-0.0472 -0.60095,-0.0277 -0.16165,0.0208 -0.28828,0.0665 -0.3793,0.13852 -0.0897,0.0644 -0.14172,0.1431 -0.15699,0.23551 -0.0241,0.1463 0.021,0.27645 0.13655,0.39051 0.11565,0.11412 0.28026,0.22009 0.49342,0.31861 0.21314,0.0985 0.4553,0.19776 0.72363,0.29751 0.26832,0.0997 0.5469,0.20889 0.83579,0.32785 0.29014,0.11111 0.56449,0.24412 0.8239,0.39777 0.25943,0.15363 0.48671,0.33742 0.68077,0.55146 0.19531,0.20634 0.3372,0.4472 0.42612,0.72299 0.0888,0.27577 0.1026,0.59871 0.0416,0.96836 -0.10828,0.6546 -0.35011,1.15996 -0.72561,1.51721 -0.36781,0.3585 -0.83331,0.59057 -1.3965,0.69526 -0.55422,0.0983 -1.16581,0.0917 -1.83581,-0.0191 -0.54677,-0.0904 -1.0524,-0.217 -1.51588,-0.38063 -0.45704,-0.15465 -0.85065,-0.35848 -1.18079,-0.61083 -0.32114,-0.25879 -0.55647,-0.57822 -0.70713,-0.95914 -0.14167,-0.38734 -0.16886,-0.84664 -0.0812,-1.37801 l 0.0102,-0.058 c 0.004,-0.0307 0.0136,-0.0609 0.0265,-0.0904 l 2.41434,0.39909 c -0.0128,0.0295 -0.022,0.0596 -0.0271,0.0904 l -0.0113,0.0692 c -0.0382,0.23104 -0.0136,0.41704 0.0738,0.55808 0.0875,0.14102 0.22345,0.25048 0.40832,0.3285 0.19388,0.0716 0.41457,0.12814 0.66099,0.16888 l 0.28827,0.0475 c 0.10918,0.0102 0.2111,0.0154 0.30608,0.0152 0.10394,-0.007 0.19763,-0.0231 0.281,-0.0488 0.091,-0.0245 0.16525,-0.0635 0.22164,-0.11742 0.0577,-0.0618 0.0943,-0.14264 0.11078,-0.24276 0.0241,-0.1463 -0.0217,-0.27294 -0.13853,-0.37928 -0.11693,-0.10635 -0.28225,-0.20889 -0.49539,-0.3074 -0.21314,-0.0986 -0.454,-0.19711 -0.72232,-0.29685 -0.26833,-0.0997 -0.54689,-0.20955 -0.83578,-0.3285 -0.28762,-0.12664 -0.56049,-0.27074 -0.81864,-0.43208 -0.25813,-0.16133 -0.48405,-0.34863 -0.67811,-0.56268 -0.19278,-0.22174 -0.33252,-0.47798 -0.41889,-0.76916 -0.0852,-0.29888 -0.096,-0.64135 -0.0324,-1.02641 0.0763,-0.46207 0.23755,-0.83903 0.48353,-1.13065 0.246,-0.29162 0.55136,-0.50955 0.9156,-0.65503 0.4668,-0.14804 1.00848,-0.33133 1.6511,-0.36018 z m -8.0471,0.68803 c 0.31214,-0.0102 0.64161,0.0139 0.98816,0.0713 0.46207,0.0763 0.88878,0.19852 1.2804,0.3661 0.39161,0.16758 0.72436,0.38103 0.99804,0.63987 0.27368,0.25884 0.46779,0.56765 0.58247,0.9268 0.12243,0.36043 0.14554,0.77149 0.0693,1.23355 l -2.22961,-0.36808 c 0.0395,-0.23873 0.0255,-0.44286 -0.0416,-0.61215 -0.0592,-0.16802 -0.1679,-0.30046 -0.32587,-0.39777 -0.15669,-0.10509 -0.3543,-0.17757 -0.59302,-0.21704 -0.26954,-0.0446 -0.49814,-0.027 -0.68538,0.0527 -0.17826,0.0734 -0.32196,0.20368 -0.43207,0.39117 -0.10885,0.17981 -0.18567,0.40462 -0.23023,0.67417 l -0.10884,0.65834 c -0.0446,0.26952 -0.0446,0.50716 6.6e-4,0.71242 0.0528,0.20654 0.15514,0.3774 0.30674,0.51321 0.16058,0.12938 0.37978,0.21738 0.65702,0.2632 0.25414,0.042 0.47151,0.042 0.65239,6.5e-4 0.18986,-0.0477 0.34389,-0.14093 0.46176,-0.27969 0.11911,-0.14644 0.19873,-0.34263 0.23945,-0.58907 l 2.13728,0.35359 c -0.0763,0.46206 -0.23126,0.84745 -0.46439,1.15702 -0.22415,0.30315 -0.50723,0.53364 -0.84962,0.69066 -0.34244,0.15701 -0.72575,0.25165 -1.15046,0.2843 -0.4247,0.0327 -0.86845,0.0103 -1.33052,-0.0659 -0.6931,-0.1145 -1.27821,-0.32948 -1.75599,-0.64579 -0.46881,-0.32274 -0.80725,-0.74308 -1.01454,-1.25993 -0.20603,-0.52458 -0.25036,-1.14117 -0.13325,-1.84966 0.11832,-0.71622 0.35906,-1.28517 0.72166,-1.70786 0.36386,-0.43038 0.81902,-0.71908 1.36548,-0.86611 0.27771,-0.0767 0.57246,-0.12025 0.88459,-0.12995 z m -140.708483,0.0508 0.323231,1.54028 -0.373364,0.0771 c -0.397004,0.0836 -0.799089,0.13726 -1.152411,0.23153 -0.353324,0.0944 -0.649691,0.2241 -0.874701,0.44065 -0.29053,0.27962 -0.396192,0.56055 -0.426795,0.90174 -0.03059,0.34123 0.03302,0.74054 0.122696,1.16628 l 0.906363,4.29961 -1.53765,0.32323 -0.77575,-3.69275 c -0.267152,-1.26824 -0.661439,-2.71609 0.436029,-3.95986 0.199951,-0.22662 0.430752,-0.41628 0.679441,-0.57326 0.710087,-0.44821 1.640159,-0.5365 2.296911,-0.67482 z m 158.223583,1.00794 4.97839,0.82258 c 0.59299,0.098 1.06628,0.29928 1.41958,0.60292 0.361,0.30494 0.61016,0.66633 0.74673,1.08448 0.13658,0.41814 0.16744,0.85087 0.0937,1.29753 -0.084,0.50828 -0.27819,0.94248 -0.58312,1.30347 -0.30364,0.35328 -0.67906,0.61569 -1.12669,0.78697 l 1.04753,3.35367 -2.86485,-0.47363 -0.77181,-2.86882 -1.25927,-0.2078 -0.44065,2.6683 -2.55352,-0.42218 z m -154.603408,0.28628 1.23157,5.85707 -1.53765,0.32257 -1.231571,-5.8564 z m -12.16663,0.7065 c 0.328755,10e-4 0.665966,0.0494 1.009927,0.17612 1.566584,0.57721 1.86441,1.99629 2.134635,3.27914 l 0.831821,3.94999 -1.538308,0.32389 -0.905704,-4.29763 c -0.09381,-0.44535 -0.195833,-0.84873 -0.364128,-1.15043 -0.168294,-0.3017 -0.379427,-0.51165 -0.787624,-0.64515 -0.414697,-0.1356 -0.844056,-0.0354 -1.387908,0.0791 l -1.57657,0.33248 0.536957,1.05017 -0.490122,0.10361 c -0.05066,0.0102 -0.485292,0.15799 -0.736833,0.16293 -0.0813,0.001 -0.192328,-0.008 -0.298822,-0.0547 -0.195662,-0.0876 -0.299762,-0.27785 -0.348294,-0.37338 -0.02876,-0.0567 -0.104582,-0.22827 -0.1095,-0.23813 -0.214345,-0.4082 -0.482996,-0.88499 -0.666248,-1.35756 l 0.277712,-0.51321 2.855635,-0.6016 c 0.491482,-0.1035 1.015454,-0.2287 1.563379,-0.2256 z m 169.022748,1.24279 -0.28036,1.69793 1.7903,0.29619 c 0.20023,0.033 0.38277,-0.016 0.54685,-0.14711 0.16534,-0.1388 0.2694,-0.3391 0.31269,-0.60093 0.0266,-0.16174 0.0196,-0.30924 -0.0218,-0.44262 -0.0412,-0.13342 -0.1101,-0.24403 -0.20646,-0.33117 -0.0951,-0.0948 -0.21166,-0.15319 -0.35029,-0.17611 z m -169.797182,2.56472 c 1.633812,0.062 2.587403,2.24805 1.27115,3.46847 -0.195776,0.18147 -0.430758,0.32919 -0.693954,0.41953 -1.985909,0.6803 -3.609881,-1.88011 -2.043602,-3.33588 0.225235,-0.20935 0.488352,-0.35511 0.763878,-0.44789 0.18177,-0.0612 0.363191,-0.0949 0.542234,-0.10361 0.05406,-0.002 0.107597,-0.002 0.160294,-6.7e-4 z m 133.022872,8.29579 c 16.77864,2.6076 40.58776,7.43428 40.58776,7.43428 -2.83615,8.7013 -7.67915,16.97043 -13.14291,24.25477 -5.78917,7.71817 -12.93633,14.63391 -20.87998,20.11873 -9.78646,6.75719 -20.77679,11.70388 -32.37641,14.36592 -25.781801,5.91672 -53.614062,0.30248 -75.072404,-15.19114 -7.113499,-5.13623 -13.546511,-11.32319 -18.916853,-18.26118 -5.834474,-7.53762 -10.817415,-15.82546 -13.787397,-24.9375 l 40.939352,-7.30632 c 4.595137,7.86537 9.425489,13.62865 17.046739,18.82516 16.765245,11.43129 39.339503,11.66778 56.497913,0.98027 5.50015,-3.4259 10.36867,-7.91858 14.2564,-13.10269 1.26658,-1.68891 2.41964,-3.45709 3.46912,-5.28779 0.31122,-0.54286 0.71321,-1.72572 1.37867,-1.89253 z m -6.01074,24.34052 c -0.23434,0.007 -0.47118,0.0328 -0.71046,0.0758 -2.04756,0.36847 -3.6974,1.62604 -5.41773,2.70324 -3.12173,1.95469 -6.1485,4.05972 -9.28724,5.98766 l 1.80546,3.09643 c 0.62541,-0.12051 1.28201,-0.70004 1.92356,-0.36347 0.80392,0.42175 1.37877,1.68063 1.8424,2.42685 1.07869,1.73625 2.20417,3.45385 3.32928,5.16046 0.48453,0.73494 1.36557,1.68271 1.48883,2.57925 0.11136,0.80904 -0.89096,1.00118 -0.94067,1.6887 -0.0431,0.59674 1.39201,2.87995 2.03636,2.77517 1.34629,-0.21894 3.11393,-1.90815 4.25145,-2.65775 2.22354,-1.46519 4.47926,-2.88408 6.708,-4.34182 1.6053,-1.04996 3.38098,-2.18959 4.33986,-3.91438 2.13661,-3.84326 -1.76241,-8.25964 -5.63014,-8.12561 0.6395,-3.44468 -2.22403,-7.20216 -5.73896,-7.0906 z m -81.571313,0.81136 c -1.741162,0.054 -3.455782,0.5998 -5.04634,1.85099 -1.127464,0.88694 -2.048736,2.0445 -2.786371,3.26727 -0.68215,1.13076 -1.348136,2.3246 -1.679475,3.61158 -1.484585,5.76637 2.75783,10.13101 7.432962,12.80584 1.796206,1.02771 3.652849,1.91389 5.674992,2.39849 0.60312,0.14455 1.580454,0.43424 2.180812,0.19659 0.4494,-0.17792 0.699273,-0.6961 0.940003,-1.08316 0.526627,-0.84676 2.597667,-2.99885 1.515221,-3.82466 -0.54579,-0.4164 -1.617087,-1.31469 -2.31406,-1.35888 -0.629897,-0.0399 -1.299962,0.69328 -1.934761,0.83973 -1.372226,0.31659 -2.969244,-0.33309 -4.127445,-1.03434 -1.187786,-0.71912 -2.344795,-1.50025 -3.194698,-2.6188 -2.555736,-3.36355 0.341121,-9.08287 4.225734,-10.03002 3.97679,-0.96967 9.216222,3.29399 8.385502,7.32082 l 3.095089,1.93475 c 0.689551,-1.02214 1.339908,-2.0687 2.021176,-3.09575 0.291258,-0.43907 0.801749,-0.98283 0.748046,-1.54754 -0.180076,-1.8936 -2.941413,-4.07888 -4.316766,-5.14463 -3.031951,-2.34943 -6.989064,-4.60735 -10.819621,-4.48828 z m 79.957793,4.24225 c 1.44429,-0.0844 2.55161,1.61187 2.10232,2.94004 -0.49016,1.44897 -3.63196,3.4026 -5.06878,3.74025 l -2.32198,-3.6116 c 0.5446,-0.6589 1.35729,-1.03624 2.06341,-1.50468 0.97094,-0.64408 2.01102,-1.49313 3.22503,-1.56401 z m -61.399129,4.87482 -0.645141,3.61159 c 0.723058,0.0979 1.530891,0.32404 1.657707,1.16099 0.136775,0.90272 -0.217044,1.95675 -0.393152,2.83717 -0.378703,1.89318 -0.782318,3.78267 -1.16099,5.6763 -0.186454,0.93242 -0.218925,2.31595 -0.814671,3.08784 -0.52624,0.68183 -1.25934,0.48776 -1.997426,0.39446 l -0.645139,3.61161 14.059832,2.81209 6.96526,1.31535 1.419579,-7.22254 -3.612254,-0.64578 c -0.178494,0.86485 -0.368028,1.96099 -1.166265,2.48424 -1.238631,0.81195 -4.437922,-0.4159 -5.798344,-0.70517 -0.778976,-0.16563 -2.732559,-0.22085 -3.271219,-0.82258 -0.532703,-0.59508 0.339189,-2.816 0.484185,-3.53641 l 1.212442,-6.0622 c 0.149836,-0.74929 0.201372,-1.85883 0.829183,-2.38465 0.500952,-0.41958 1.183863,-0.20744 1.776443,-0.19525 l 0.645142,-3.61159 z m 45.297659,0.007 c -0.46791,-0.0242 -1.09585,0.20994 -1.44066,0.27638 -1.5445,0.29795 -3.09329,0.60377 -4.64395,0.86745 -0.4683,0.0797 -1.48885,0.0878 -1.80218,0.49211 -0.45048,0.58132 0.29009,2.85952 0.51255,3.5166 2.65135,-0.49221 2.53162,2.57344 2.86949,4.51465 0.52794,3.03316 1.86819,6.77095 -1.70917,8.47127 -0.52681,0.25042 -1.10158,0.41144 -1.67683,0.502 -4.90693,0.77238 -5.35769,-3.84113 -6.06287,-7.42505 -0.37545,-1.90802 -1.57067,-4.66076 1.16166,-5.03052 l -0.64515,-3.6116 -9.54517,1.67685 0.51585,3.61094 c 0.59298,0 1.41956,-0.15135 1.88397,0.29948 0.66388,0.64446 0.65658,1.94327 0.82456,2.79691 0.46281,2.35215 0.74516,4.78801 1.40704,7.09391 1.40033,4.87854 6.41333,5.53096 10.71871,4.86627 5.09048,-0.78592 9.41371,-3.92192 8.58669,-9.50955 -0.30707,-2.07471 -0.77899,-4.12566 -1.13857,-6.19151 -0.13837,-0.79502 -0.51743,-1.77202 -0.31333,-2.57989 0.18992,-0.75177 0.9674,-0.94106 1.63659,-1.0317 -0.0583,-0.73878 -0.14048,-3.00806 -0.74145,-3.47902 -0.10372,-0.0813 -0.24177,-0.11782 -0.39778,-0.12598 z m 21.73689,1.54227 c 0.1436,-0.002 0.28634,0.004 0.42745,0.0265 1.44947,0.21128 2.29039,2.12602 1.4631,3.32532 -1.04858,1.52014 -4.09948,3.44194 -5.84913,3.99947 l -2.32199,-3.86953 c 1.72415,-0.95629 4.12668,-3.44546 6.28057,-3.48164 z" /><path
       id="path1"
       style="display:inline;fill:#00004c;stroke:none;stroke-width:1.27649"
       d="m 105.80173,110.90694 c -2.86447,-0.0943 -5.52694,0.9599 -8.229255,1.88259 -0.691955,0.23626 -1.311022,-0.61234 -1.877881,-0.25359 -0.727569,0.46047 -1.357971,1.2881 -1.970719,1.89266 -0.392269,0.38701 -0.903025,0.74417 -1.181585,1.22852 -0.324653,0.56448 -0.03625,1.41368 -0.4955,1.90303 -0.650151,0.69279 -1.678771,1.40367 -2.489939,1.89906 -0.380935,0.23266 -1.032923,0.29896 -1.284982,0.69337 -0.467054,0.73085 -0.481969,2.15439 -0.628385,3.00605 -0.331377,1.92742 -0.772664,3.83677 -1.131083,5.7594 -0.161425,0.8659 -0.184803,2.11829 -0.602719,2.89539 -0.44497,0.82742 -2.387961,-0.1513 -2.839795,0.67777 -0.268967,0.49355 -0.258257,1.30569 -0.348396,1.85787 -0.224484,1.37514 -0.45543,2.75124 -0.709449,4.1212 -0.09368,0.50532 -0.04281,1.42631 -0.365873,1.83866 -0.312723,0.39917 -1.450667,0.0739 -1.91232,0.13866 -0.646466,0.0906 -1.913715,1.14635 -2.219306,1.71634 -0.566248,1.05614 -0.738827,2.53793 -1.046688,3.69535 -0.641322,2.41111 -1.301826,4.8196 -1.977214,7.2214 -0.431479,1.53441 -0.664882,3.27549 -1.308698,4.73337 -0.638998,1.44699 -1.86371,2.90109 -2.218799,4.44333 -0.380148,1.65108 -0.124638,3.62961 -0.192732,5.32347 -0.117068,2.91188 -0.44724,5.92066 -0.312459,8.83226 0.04275,0.92342 1.364749,2.05524 1.916128,2.75653 0.772178,0.98212 1.556079,1.95535 2.335115,2.93207 0.361655,0.45343 0.905384,0.94871 1.112077,1.4972 0.214971,0.57041 0.113789,1.4417 0.150384,2.05397 l 3.751634,0.19279 c -0.468848,0.62087 -1.248732,1.10053 -1.619259,1.78141 -0.171113,0.31442 -0.101374,0.73816 -0.09686,1.08277 l 0.03006,2.29743 c 0.0042,0.31927 -0.06869,0.77952 0.108451,1.06211 0.164514,0.26244 0.552301,0.36739 0.818911,0.49064 0.671772,0.31044 1.328515,0.6542 2.007539,0.94856 2.359981,1.02314 4.68161,2.1593 6.996915,3.27933 0.590875,0.28582 1.240463,0.72507 1.885455,0.8611 0.732268,0.15442 1.611603,0.0152 2.358382,0.004 l 4.654982,-0.061 16.746453,-0.21917 5.8041,-0.0761 c 0.87331,-0.0114 1.97879,0.15956 2.77816,-0.23424 2.64689,-1.30399 5.26749,-2.66365 7.9301,-3.93571 0.78465,-0.37491 1.57441,-0.75058 2.34317,-1.15725 0.28736,-0.15201 0.70511,-0.29023 0.89928,-0.56368 0.28168,-0.39663 0.10475,-1.26466 0.0987,-1.73035 -0.0102,-0.76361 0.1985,-1.95101 -0.0957,-2.65944 -0.2893,-0.69685 -1.24278,-1.33002 -1.77746,-1.8509 0.44039,-0.0517 0.88349,-0.20032 1.32772,-0.19879 0.49599,0.001 0.94804,0.13462 1.45227,0.0749 0.27607,-0.0327 0.75791,-0.0102 0.9638,-0.22701 0.17793,-0.1877 0.11437,-0.55309 0.11135,-0.78793 -0.0102,-0.78706 -0.0886,-1.67784 0.88257,-1.86999 1.45503,-0.28785 2.94045,-0.45206 4.40491,-0.68726 0.35222,-0.0566 1.26502,-0.0546 1.40504,-0.45119 0.11539,-0.32672 0.0301,-0.78875 0.0254,-1.13092 -0.0128,-0.96618 -0.10498,-1.93545 -0.15485,-2.90015 -0.15958,-3.07898 -0.1692,-6.17039 -0.37352,-9.24659 -0.0588,-0.88241 -0.12875,-1.77471 -0.14878,-2.65871 -0.007,-0.27545 0.0884,-0.81455 -0.17465,-0.99783 -0.28846,-0.20106 -0.89493,-0.0178 -1.22972,-0.0115 -0.0128,-0.86411 0.052,-2.01763 -0.22808,-2.83871 -0.23458,-0.6876 -0.61029,-1.32276 -1.00662,-1.95043 l 0.61838,1.43585 -2.14399,1.06007 -0.67256,-1.21085 1.39966,-0.58125 -0.97117,-2.52041 -2.04402,1.52787 -3.7052,-17.87101 1.49315,0.25973 c -0.0115,-0.0184 -0.0216,-0.0363 -0.033,-0.054 -0.18948,-0.29736 -0.53573,-0.4839 -0.81343,-0.68822 -0.36123,-0.2658 -0.73727,-0.64171 -1.15945,-0.80392 -0.607,-0.2332 -1.53253,-0.0517 -2.17711,-0.0432 -0.29797,-1.9188 -0.75133,-3.82265 -1.11909,-5.72961 -0.11808,-0.6122 -0.13057,-1.81716 -0.52784,-2.30523 -0.54254,-0.66647 -2.50746,0.27549 -2.8678,-0.62138 -0.31994,-0.79634 -0.40788,-1.74862 -0.60407,-2.58388 -0.46095,-1.9627 -0.88303,-3.9375 -1.3043,-5.90893 -0.19317,-0.90391 -0.25228,-2.04168 -0.65298,-2.87787 -0.21361,-0.4457 -0.90122,-0.49955 -1.29827,-0.71266 -0.8495,-0.45599 -1.82737,-1.14283 -2.54911,-1.78295 -0.55152,-0.48914 -0.29305,-1.34986 -0.65495,-1.93596 -0.33515,-0.54282 -0.93415,-0.95185 -1.3975,-1.37913 -0.56918,-0.52487 -1.0828,-1.17108 -1.71436,-1.62122 -0.57554,-0.41023 -0.90192,0.21516 -1.44718,0.31175 -0.42424,0.075 -0.99549,-0.22997 -1.39511,-0.35738 -1.31018,-0.41777 -2.7089,-1.06039 -4.06807,-1.26865 -0.41815,-0.0641 -0.83134,-0.10115 -1.24057,-0.11464 z m -0.0869,0.48931 c 0.40076,0.0128 0.80481,0.0486 1.21267,0.11044 1.82155,0.27634 3.55347,1.20815 5.33886,1.6482 0.53526,0.13198 0.90638,-0.55178 1.38936,-0.3898 0.3311,0.11101 0.61335,0.49371 0.85612,0.73019 0.65555,0.63854 1.74193,1.32773 2.15959,2.14827 0.26212,0.51495 0.11706,1.19101 0.44161,1.67967 0.59575,0.89688 2.05423,1.51992 2.91926,2.14642 l 7.9e-4,0.0603 -0.64923,1.21789 c -0.94248,-0.37393 -1.75917,-1.54969 -2.45503,-2.26573 -0.33451,-0.34419 -0.76925,-0.66067 -1.01932,-1.0751 -0.24171,-0.40056 -0.20603,-0.90602 -0.40543,-1.32282 -0.26694,-0.55804 -1.12901,-1.1677 -1.64308,-1.49574 -0.94672,-0.60411 -2.27877,-0.87137 -3.34149,-1.22392 -1.21401,-0.40274 -2.49993,-1.09297 -3.76592,-1.28509 -2.73232,-0.41469 -5.23366,0.52185 -7.720291,1.48562 -1.115153,0.43219 -2.541657,0.72252 -3.487574,1.47418 -0.423544,0.33658 -1.086522,0.76994 -1.328816,1.26306 -0.2161,0.43982 -0.159283,0.97455 -0.439488,1.39435 -0.329135,0.49311 -0.831962,0.8879 -1.229798,1.32554 -0.666834,0.73359 -1.282135,1.5432 -2.061353,2.16431 -0.122927,-0.36707 -0.635226,-0.86172 -0.579635,-1.24982 0.04313,-0.30122 0.51484,-0.53993 0.735472,-0.70412 0.590804,-0.43961 1.654147,-0.97904 1.994476,-1.64595 0.253641,-0.49703 0.0817,-1.12775 0.311033,-1.63272 0.183026,-0.40297 0.594609,-0.68523 0.904034,-0.98591 0.603276,-0.58629 1.240713,-1.47837 1.970299,-1.89744 0.35811,-0.20568 0.704822,0.17186 1.031671,0.28261 0.270556,0.0918 0.52693,0.009 0.785022,-0.0833 2.628868,-0.9381 5.270858,-1.96386 8.076188,-1.87397 z m 1.04245,0.9656 2.06488,0.68064 4.67692,1.61507 10e-4,0.12051 -1.14001,0.68009 c -0.667,-0.7428 -2.01816,-1.0448 -2.92093,-1.43283 -0.892,-0.3834 -1.85095,-0.94736 -2.79686,-1.16583 -0.95534,-0.22063 -2.80601,-0.21275 -3.74796,0.0597 -1.01453,0.2934 -2.0502,0.90637 -3.005671,1.36014 -0.823463,0.39108 -1.958196,0.6894 -2.582186,1.37586 l -1.157422,-0.65002 2.947543,-1.1809 3.791476,-1.38362 2.41796,-0.0344 z m -2.98508,0.94536 c 0.29928,0.001 0.59998,0.0186 0.88121,0.0149 -0.11744,0.93765 -0.4189,0.88693 -1.20011,0.68087 0.29457,0.76225 0.22941,0.93477 -0.58955,1.15662 0.22647,0.30746 0.56293,0.3664 0.91321,0.47182 l -0.28965,0.97092 0.96223,-0.3754 0.2545,0.96418 c -0.80592,0.34557 -2.63533,0.56108 -2.76017,1.60834 -1.48139,-0.45318 -2.913555,-1.66452 -4.264585,-2.42344 0.269368,-0.91437 1.048984,-1.07566 1.855466,-1.45906 1.052379,-0.50032 2.235399,-1.25297 3.366269,-1.52941 0.27432,-0.0671 0.5719,-0.0814 0.87118,-0.0802 z m 1.12306,0.0115 1.75387,0.0194 5.22898,2.18692 0.1296,0.66347 -4.19972,2.53384 c -0.22236,-0.84968 -1.15048,-0.98897 -1.89056,-1.22497 -0.24081,-0.0768 -0.72852,-0.14065 -0.83979,-0.40425 -0.11157,-0.2642 0.0937,-0.67512 0.15707,-0.93692 l 0.97208,0.35009 -0.37462,-0.90215 0.96337,-0.31494 -0.97366,-0.47104 0.29123,-0.85037 c -0.77723,0.19972 -1.07306,0.30411 -1.21789,-0.64921 z m -0.11222,0.66663 c 0.20016,0.48955 0.34222,0.63075 0.85197,0.41213 -0.14065,0.52238 0.0618,0.57397 0.49396,0.77965 -0.50177,0.30147 -0.63222,0.41002 -0.35009,0.97208 -0.65706,-0.2708 -0.67027,-0.0664 -0.96101,0.49636 l -0.25213,-0.78283 -0.66074,0.31102 0.23197,-0.72868 -0.66626,-0.11238 0.66073,-0.31099 -0.18851,-0.54177 0.54731,0.2347 z m 0.0102,0.72552 0.0613,0.0597 z m 8.66586,1.45878 7.9e-4,0.0604 c -1.73049,1.15053 -3.51896,2.21412 -5.2775,3.32086 -0.82144,0.51699 -1.87576,1.00213 -2.51695,1.73928 3.53229,0.1035 7.12859,0.18664 10.64871,0.49246 0.7577,0.0659 1.53902,0.11643 2.29945,0.12307 0.42182,0.003 0.84876,-0.029 0.91323,0.47288 l -6.05079,-0.29387 -7.0183,-0.32118 c 0.27543,0.4204 0.74865,0.61265 1.1604,0.87682 0.69643,0.44682 1.38051,0.91558 2.07387,1.36769 2.64721,1.72617 5.33581,3.38806 7.98797,5.10647 0.8916,0.57768 1.78776,1.14796 2.68316,1.71961 0.25265,0.1613 0.84833,0.40817 0.77656,0.78253 -0.162,0.84489 -0.96071,0.72745 -1.60389,0.68836 -1.61276,-0.098 -3.2277,-0.16876 -4.84095,-0.25917 -3.14284,-0.17609 -9.53546,-0.52974 -9.53546,-0.52974 l -12.70955,1.03928 c -0.654465,0.0536 -1.343624,0.23664 -1.698748,-0.42779 l 14.388408,-1.09461 15.35681,0.76579 c -0.1862,-0.57164 -1.10713,-0.93739 -1.58818,-1.24907 -1.48103,-0.95959 -2.95958,-1.9243 -4.45179,-2.86626 -2.33123,-1.47157 -4.62789,-2.99985 -6.95183,-4.48345 -0.58975,-0.37651 -1.18698,-0.74605 -1.76846,-1.13494 -0.23812,-0.15922 -0.54645,-0.44756 -0.85224,-0.43302 -0.36242,0.018 -0.78942,0.427 -1.07992,0.62395 -0.84282,0.5715 -1.68109,1.15157 -2.51703,1.73307 -2.761552,1.9209 -5.554538,3.79678 -8.330338,5.69714 -1.186766,0.81249 -2.415748,2.08121 -3.90303,2.1008 l -7.91e-4,-0.0604 10.068679,-6.86369 2.87673,-1.97267 1.37659,-1.08631 -13.049324,0.89642 0.05566,-0.36356 c 4.515141,-0.6608 9.168445,-0.64577 13.712414,-1.02604 -0.62145,-0.7359 -1.68507,-1.16942 -2.50067,-1.66407 -1.777951,-1.07831 -3.576279,-2.1276 -5.363077,-3.19114 0.843094,-0.25452 1.748591,0.54356 2.431202,0.94852 1.458425,0.86527 2.922075,1.72456 4.387535,2.57795 0.48347,0.28157 1.2624,0.96565 1.82669,0.99051 0.63724,0.0281 1.57401,-0.87619 2.10074,-1.19839 1.36511,-0.83502 2.71536,-1.69541 4.07877,-2.53375 0.78834,-0.4847 1.44887,-1.05745 2.40439,-1.07079 z m -17.591291,0.35112 3.29163,2.00882 4.326671,2.54725 7.9e-4,0.0604 c -0.86967,0.009 -1.5149,-0.44916 -2.24875,-0.86955 -1.270671,-0.72797 -2.526351,-1.49332 -3.778577,-2.2528 -0.51096,-0.30989 -1.780433,-0.75336 -1.591764,-1.4942 z m 17.956431,-0.1746 c -0.12498,0.81865 -0.9804,1.10918 -1.61288,1.51381 -1.13347,0.72512 -2.28643,1.41969 -3.41828,2.14723 -0.79065,0.50824 -1.49555,1.0782 -2.46496,1.09286 l -7.7e-4,-0.0603 z m -18.065485,1.08264 5.912005,3.55079 7.9e-4,0.0604 c -2.654925,0.30103 -5.423394,0.54962 -8.094828,0.58968 0.142038,-0.77761 -0.09089,-1.80176 0.221946,-2.53088 0.274718,-0.64032 1.396077,-1.28293 1.960087,-1.6697 z m 18.139485,-0.0468 c 0.50934,-0.0274 1.66535,0.90703 1.93976,1.31336 0.43059,0.63757 0.21415,1.89246 0.34935,2.6385 l -5.20295,-0.22399 -2.84409,-0.15445 c 1.1591,-1.07074 2.79773,-1.82762 4.13723,-2.65946 0.43061,-0.26741 1.10593,-0.88614 1.6207,-0.91396 z m -24.574487,2.73184 c -0.07226,1.09112 -0.374363,2.19821 -0.573969,3.27285 -0.364226,1.96091 -0.720358,3.92413 -1.112647,5.87974 -0.189092,0.94264 -0.04197,2.68568 -1.241364,2.73736 0.601279,-2.96603 1.170178,-5.93824 1.733745,-8.91132 0.182744,-0.96407 0.132257,-2.6395 1.194235,-2.97863 z m 31.134967,-0.40749 c 1.08465,0.20174 1.05499,1.91186 1.25811,2.82563 0.65692,2.95494 1.29328,5.91424 1.97882,8.86273 -1.20015,-0.0418 -1.12098,-1.75425 -1.33859,-2.70361 -0.47739,-2.08257 -0.92876,-4.17527 -1.3457,-6.27085 -0.17887,-0.89904 -0.47207,-1.79894 -0.55264,-2.7139 z m -30.831096,0.5245 c 0.805947,1.00966 0.34994,1.74841 0.177944,2.89984 -0.31139,2.08465 -0.663476,4.16238 -1.009689,6.24156 -0.09408,0.56523 -0.190212,1.12924 -0.272088,1.69636 -0.03204,0.22152 -0.03497,0.55634 -0.235273,0.70122 -0.206934,0.14968 -0.564516,0.0952 -0.806067,0.0986 0.123146,-1.99525 0.727996,-4.03601 1.094213,-6.00045 0.341848,-1.8337 0.496931,-3.86048 1.05096,-5.63705 z m 30.470316,-0.39876 0.12088,-10e-4 c 0.0649,1.05008 0.39409,2.11006 0.61606,3.13598 0.59239,2.7381 1.43087,5.54165 1.77089,8.32125 l -0.96812,-0.0477 -1.4171,-7.72118 -0.34435,-1.80959 -0.24887,-0.84294 z m -28.109242,0.60974 0.07786,1.32893 -1.450226,0.0798 c 0.30058,-0.53449 0.845916,-1.09427 1.372358,-1.40877 z m 25.935852,-0.33944 1.34911,1.43362 -1.51305,-0.10115 z m -13.15757,1.86498 c 0.0153,1.27306 -2.13424,2.17054 -3.10718,2.81676 -2.404444,1.59707 -4.762083,3.27383 -7.13106,4.92356 -1.299979,0.9053 -2.384461,1.96425 -4.02528,2.00016 2.491483,-2.0267 5.37987,-3.69091 8.03048,-5.50664 2.02309,-1.3859 4.04714,-3.12566 6.23304,-4.23384 z m 0.30231,-0.003 14.57438,9.3631 7.8e-4,0.0603 c -0.45037,-0.0539 -0.96692,-0.0158 -1.3932,-0.1837 -1.08148,-0.42623 -2.13246,-1.36098 -3.11005,-1.99436 -2.30084,-1.49075 -4.56681,-3.03508 -6.89142,-4.48864 -0.82059,-0.51312 -1.62724,-1.05089 -2.43942,-1.5773 -0.47262,-0.30633 -0.91323,-0.54918 -0.74105,-1.17915 z m -3.85715,0.95753 8e-4,0.0608 c -1.1523,0.79714 -2.321045,1.5701 -3.476306,2.36312 -0.31477,0.21606 -0.902844,0.82375 -1.313533,0.75162 -0.307382,-0.0539 -0.572015,-0.46916 -0.768303,-0.68406 -0.586963,-0.64263 -1.254997,-1.25691 -1.752311,-1.97257 z m 7.37645,-0.0358 2.23773,0.0272 5.08219,0.23947 c -0.42206,0.76232 -1.14523,1.4323 -1.72642,2.07858 -0.18329,0.20384 -0.42065,0.59148 -0.71853,0.62581 -0.40226,0.0465 -1.01198,-0.5357 -1.33857,-0.74183 -1.17513,-0.74169 -2.32418,-1.54996 -3.5364,-2.22921 z m -16.316916,0.69694 -0.649549,5.81356 -0.120885,0.001 c -0.248893,-1.25915 -0.696015,-2.49412 -1.023731,-3.7357 -0.169533,-0.64227 -0.397594,-1.26078 -0.320289,-1.93085 z m 25.391736,-0.33232 2.1173,0.0934 h 3.5e-4 c -0.0708,1.86646 -0.88132,3.81119 -1.25651,5.64011 l -0.0605,8e-4 z m -15.87708,1.9614 c 0.40097,0.59304 1.04546,0.76539 1.70515,0.9452 1.4576,0.39734 3.64181,0.33428 4.70396,-0.96861 0.91657,0.3942 2.45264,1.21129 3.04985,2.01606 -2.08654,0.19326 -4.06775,1.4057 -6.14772,1.54053 -0.66065,0.0428 -1.42425,-0.28725 -2.0614,-0.44249 -1.41048,-0.34368 -2.82356,-0.70373 -4.245884,-0.9955 0.616333,-0.81183 2.072714,-1.67285 2.996044,-2.09519 z m 14.56993,-0.19067 0.12089,-0.001 0.4039,3.13912 -2.01257,-1.30399 z m -22.851659,0.3595 c 0.351141,0.30677 1.467074,1.23072 1.427311,1.7258 -0.03907,0.48524 -1.420278,1.13064 -1.810174,1.36317 0.03268,-0.96674 0.108508,-2.16161 0.382863,-3.08897 z m 26.735719,0.73856 c 0.13614,1.54715 0.52084,3.20066 0.90813,4.70438 -0.47511,-0.17836 -1.50088,-0.67184 -1.7283,-1.14573 -0.1282,-0.2671 0.0577,-0.68071 0.1214,-0.94932 0.19911,-0.84167 0.32136,-1.82893 0.69881,-2.60933 z m -30.469153,0.45922 c 0.193441,0.83103 0.458201,1.64943 0.691623,2.47019 0.08068,0.28391 0.299595,0.71077 0.192012,1.00566 -0.176515,0.4838 -1.284063,1.02635 -1.728809,1.25183 l 0.538467,-3.21194 z m 7.343672,2.08078 1.845429,2.39464 -2.839214,0.21855 c 0.241374,-0.84069 0.507843,-1.88193 0.993785,-2.61319 z m 15.718631,-0.20571 0.12103,-0.001 1.00135,2.58707 -2.84358,-0.14417 z m -14.025007,0.24353 c 1.329697,0.45103 2.759177,0.68919 4.125147,1.01173 0.6761,0.15966 1.48382,0.49655 2.18247,0.45338 2.07254,-0.12806 4.09125,-1.27103 6.14738,-1.56764 -0.36672,0.57315 -1.00495,1.8425 -1.62448,2.13696 -0.55561,0.26407 -1.61042,-0.0185 -2.218,-0.0306 -1.66258,-0.0333 -3.23395,-0.0349 -4.89679,0.0679 -0.58572,0.036 -1.54847,0.3233 -2.09772,0.084 -0.506781,-0.22089 -1.503086,-1.62346 -1.618007,-2.155 z m 15.972337,0.69802 c 0.75347,0.54473 1.92629,0.9935 2.4421,1.78213 -0.48069,0.004 -1.23337,0.0854 -1.67452,-0.11885 -0.39765,-0.1841 -0.75528,-1.24944 -0.76758,-1.66332 z m -19.526777,0.31598 c -0.07685,0.41872 -0.243391,1.36328 -0.615824,1.61323 -0.405534,0.27219 -1.304332,0.16551 -1.779219,0.17173 0.453263,-0.74052 1.638727,-1.37971 2.395043,-1.78496 z m 26.510867,2.01135 4.90273,0.35913 1.01462,5.30766 0.47924,2.59393 c -1.1667,-0.18007 -2.39193,-0.1741 -3.57056,-0.24571 -0.35227,-0.0213 -1.04905,0.0716 -1.34206,-0.14079 -0.39605,-0.28706 -0.40253,-1.56241 -0.48531,-2.02211 -0.34897,-1.93852 -0.773,-3.89536 -0.99866,-5.85211 z m -31.678326,0.47493 c -0.06599,1.92275 -1.286896,9.37215 -1.551593,9.66759 -0.295982,0.22004 -5.501033,0.52243 -6.659266,0.53792 0.325301,-2.38754 0.752731,-4.77845 1.17701,-7.15045 0.104602,-0.58474 0.197394,-1.17146 0.294742,-1.75745 0.03485,-0.2098 0.03774,-0.55406 0.214736,-0.7017 0.36163,-0.30171 1.416907,-0.21159 1.873344,-0.23269 1.550994,-0.0717 3.098885,-0.32924 4.651027,-0.36322 z m 15.156086,-0.17751 14.85022,0.55988 -0.20266,0.72718 -14.63333,-0.78918 c 0,0 -8.470259,0.56593 -11.165753,0.71672 -0.816503,0.0456 -2.194594,0.50589 -2.724623,-0.26777 z m 16.22392,0.009 c 0.32006,1.68366 0.54732,3.38505 0.87515,5.06763 0.1511,0.77551 0.54416,1.87106 0.40452,2.65533 -0.0977,0.54851 -0.69884,1.27368 -1.09658,1.64706 -0.074,-1.76627 -0.4435,-3.56168 -0.68522,-5.31238 -0.10794,-0.78227 -0.4326,-1.8149 -0.29636,-2.59592 0.086,-0.49269 0.50779,-1.06137 0.79849,-1.46172 z m -31.013292,0.46633 c 0.24768,0.39467 0.841524,1.29405 0.841524,1.29405 l -1.425013,9.14662 -0.821471,-1.04985 c 0.414928,-2.8467 1.350708,-9.24307 1.40496,-9.39081 z m 14.395252,0.29574 4.7194,0.24058 c 0.40093,4.74671 1.52529,9.46535 2.19209,14.18091 0.15659,1.1074 0.32676,2.21383 0.49895,3.31892 0.0285,0.18303 0.0308,1.03096 0.3241,0.98928 0.24864,-0.0354 0.50288,-0.41144 0.66566,-0.57893 0.54646,-0.56238 1.06271,-1.15218 1.61022,-1.71423 1.59132,-1.63351 3.12049,-3.32533 4.7122,-4.95932 0.5822,-0.5977 1.37102,-1.83392 2.14997,-2.14164 0.34947,-0.1381 0.89175,-0.0145 1.26814,-0.0192 -1.84228,2.43977 -4.22688,4.63074 -6.32407,6.85607 -0.64724,0.68681 -1.29957,1.37236 -1.92394,2.08006 -0.26126,0.29611 -0.66026,0.59518 -0.7938,0.9779 -0.28919,0.82862 0.11191,2.4274 0.44571,3.19903 -0.56452,0.007 -1.9049,0.15997 -2.37016,-0.17822 -0.58841,-0.42772 0.14577,-1.51672 -0.91755,-1.53089 -2.55625,-0.0341 -5.12125,0.0657 -7.6776,0.0992 -1.31838,0.0172 -2.80996,-0.15853 -4.107739,0.0688 -0.733696,0.12847 -0.260288,1.10293 -0.655576,1.48806 -0.398357,0.38815 -1.812761,0.28268 -2.347552,0.28985 0.276733,-0.82045 0.656072,-2.35728 0.364429,-3.20966 -0.278981,-0.8154 -1.411839,-1.59874 -1.997323,-2.21124 -1.362746,-1.42566 -2.764642,-2.81349 -4.127451,-4.23894 -0.542848,-0.56782 -1.199725,-1.08029 -1.644713,-1.7321 0.386588,-0.007 0.900318,-0.15756 1.267441,-0.0162 0.60574,0.23318 1.199187,1.10607 1.654798,1.5502 1.343764,1.30983 2.668266,2.65345 3.976263,3.99941 0.515543,0.5305 1.026642,1.064 1.549384,1.58784 0.166277,0.16663 0.394652,0.50404 0.649329,0.52657 0.336193,0.0298 0.33336,-0.78392 0.358161,-0.99932 0.127917,-1.11136 0.274297,-2.22289 0.426234,-3.33104 0.648507,-4.73 1.018684,-9.51926 1.766355,-14.23273 z m -4.71107,0.42447 c -0.0199,1.26778 -0.244991,2.55827 -0.407821,3.81456 -0.0433,0.33315 0.009,1.07778 -0.290529,1.29379 -0.230027,0.16603 -0.654004,0.12333 -0.925941,0.15285 -0.764283,0.0828 -1.533016,0.1205 -2.294439,0.23197 l 0.41526,-5.20545 z m 9.85448,-0.12903 2.78348,0.14498 c -0.0556,0.20926 -0.11565,0.49953 -0.33144,0.60426 -0.23794,0.11552 -0.61951,0.002 -0.87036,-0.0255 -0.64174,-0.072 -1.5002,0.0863 -1.58168,-0.72365 z m 3.44817,0.13628 6.77855,0.45552 0.75121,5.7344 0.26213,2.41536 c -2.12187,-0.3275 -4.50689,-0.24339 -6.6541,-0.21527 -0.35631,-1.87435 -0.55731,-3.78656 -0.84313,-5.67311 -0.11987,-0.79118 -0.48037,-1.93573 -0.29466,-2.7169 z m -17.168507,0.28513 c -0.01024,2.80235 -0.361953,5.8281 -0.794535,8.59671 l -4.893229,0.36638 1.158071,-8.54099 z m 16.812087,0.20327 0.81283,5.79405 0.2854,2.23365 -0.37415,1.09335 -0.0603,7.8e-4 c -0.23384,-2.05659 -0.53764,-4.10639 -0.81723,-6.15718 -0.13948,-1.02277 -0.46152,-2.04148 0.15361,-2.96465 z m -13.598951,5.07564 -0.10735,1.02938 -2.476472,0.21382 -0.556787,-0.96023 z m 5.751521,0.58549 c -0.24263,-7.4e-4 -0.48459,0.0115 -0.72471,0.0415 -0.64445,0.0792 -1.28794,0.1702 -1.93128,0.25799 -0.23004,0.0314 -0.59094,0.0142 -0.74361,0.22339 -0.39868,0.54441 -0.28522,1.89287 -0.35799,2.55394 -0.23993,2.18015 -0.50374,4.35759 -0.72469,6.53982 -0.0635,0.62674 -0.15268,1.25223 -0.2294,1.87756 -0.028,0.22777 -0.1335,0.60064 0.006,0.80617 0.26637,0.38975 1.77371,0.13809 2.20758,0.13237 l 4.71546,-0.0617 c 0.75713,-0.0102 1.6078,0.0872 2.35333,-0.046 0.52054,-0.0928 0.28457,-0.77536 0.23503,-1.13698 -0.1654,-1.20761 -0.32939,-2.41686 -0.51757,-3.62102 -1.11951,-7.16333 -0.72841,-6.78313 -1.09961,-7.18147 -0.20534,-0.22037 -0.73274,-0.17373 -1.00973,-0.20192 -0.71693,-0.0729 -1.45184,-0.18298 -2.17969,-0.18367 z m -9.169652,0.45349 0.493982,-0.002 -0.351919,3.66207 -5.516137,0.34669 -0.103908,-0.99912 5.139006,-0.34836 z m 8.890892,0.0319 c -0.43216,0.027 -0.82119,0.23869 -0.91496,0.68301 -0.58867,0.009 -1.63549,0.27016 -1.87939,-0.39871 0.94351,-0.23281 1.86875,-0.29301 2.79435,-0.2843 z m 0.24341,0.003 c 0.97327,0.021 1.94836,0.10828 2.94653,0.14173 -0.15479,0.75139 -1.265,0.50034 -1.86789,0.50823 -0.16329,-0.37342 -0.61891,-0.60809 -1.07864,-0.64996 z m 0.0609,0.29385 c 0.32277,0.0115 0.62049,0.1515 0.67595,0.43057 0.14926,0.75112 -0.55535,0.85686 -0.50798,1.31425 0,0 -0.0139,3.58278 0.0861,5.45066 l 0.77483,-0.0209 0.0343,1.2837 2.15087,-0.0282 -0.26025,-7.84518 1.5307,10.54933 -8.88713,0.11628 1.19671,-10.65793 -0.0301,7.77678 2.18357,0.11615 -0.0166,-1.26962 0.74801,-0.0259 -0.0485,-5.42292 c -0.005,-0.5388 -0.59743,-0.53413 -0.53649,-1.20165 0.035,-0.3841 0.49128,-0.58038 0.90624,-0.56524 z m 17.81287,-0.0846 4.97009,0.21604 c -0.26101,0.4183 -0.6347,1.31327 -1.09454,1.52315 -0.35689,0.1629 -0.98216,-0.007 -1.36516,-0.0295 -1.18398,-0.0672 -2.38422,-0.21586 -3.57002,-0.20544 z m -15.22532,0.23846 0.0613,0.0598 z m -27.060073,1.52833 -3.813362,17.82905 0.350712,1.4551 1.775583,3.89081 0.06788,15.32354 -1.723498,0.0888 -0.205734,-15.7201 -1.900783,-3.29216 -0.775547,-3.50589 1.729575,0.37539 3.372542,-16.03227 z m 49.419143,-0.60426 1.00309,4.95928 -2.98206,1.54016 -0.53163,-4.77784 z m 2.63481,0.18174 3.19841,15.40976 1.13219,-0.9138 c -1.07913,-3.28575 -1.96414,-6.65013 -2.95667,-9.96078 -0.31863,-1.06277 -0.61417,-2.13288 -0.94296,-3.19254 -0.13209,-0.4257 -0.21092,-0.94474 -0.43097,-1.34264 z m -51.386396,0.74548 0.802006,0.6268 h 3.65e-4 c 0.49424,-0.11565 1.055825,-0.0802 1.554967,-0.11329 1.047332,-0.0697 2.091907,-0.18555 3.141572,-0.21701 0.389887,-0.0115 0.860342,-0.12548 1.285184,-0.11719 0.141602,0.001 0.278112,0.019 0.404972,0.057 0.432454,0.12974 0.832601,0.74047 1.044767,1.11401 l -4.591648,0.30854 -1.439092,0.0625 0.34398,0.2689 0.458339,7.15872 -1.525403,0.0199 -0.01283,6.63421 -4.609482,0.0937 z m 34.136146,-0.23858 c 0.47037,0.0166 0.97388,0.0899 1.28824,0.11732 1.35563,0.11769 2.75243,0.11191 4.11316,0.0942 -0.25798,0.40108 -0.75098,0.99074 -1.19393,1.18213 -0.46066,0.19905 -1.14555,0.0128 -1.63258,0.004 -1.36496,-0.0182 -2.74962,-0.20459 -4.11327,-0.12975 0.0802,-0.35648 0.24478,-0.98593 0.60531,-1.1561 0.12652,-0.0598 0.29369,-0.0924 0.48201,-0.10714 0.14121,-0.0115 0.29425,-0.0115 0.45106,-0.007 z m 8.4445,0.22662 c 0.3021,0.001 0.62849,0.0576 0.88795,0.0544 l -1.6205,2.07717 -0.15764,1.45295 -0.19036,3.23599 -0.76794,-3.34437 c -1.06808,1.10116 -1.94951,2.35902 -2.98446,3.48582 -0.83152,0.90531 -2.03784,1.93407 -2.55358,3.05689 l 7.76316,1.23021 c 0,0 0.14759,-2.30515 0.19169,-2.96698 0.17705,-2.66542 0.64802,-5.50394 0.50216,-8.16961 l 1.21,0.0447 c 0.0483,3.79921 -0.45746,7.50986 -0.67521,11.30198 l 1.12903,0.30151 -0.0376,1.7541 -12.30017,-1.95546 c -0.0139,-0.4697 -0.23184,-1.12219 -0.0766,-1.57083 0.30149,-0.87119 1.56667,-1.85025 2.20053,-2.50806 1.62226,-1.68355 3.16288,-3.44543 4.7717,-5.14151 0.6051,-0.63793 1.40172,-1.91003 2.20965,-2.25932 0.1442,-0.0624 0.31678,-0.0805 0.49813,-0.0796 z m -3.42338,0.19143 0.0407,0.0197 z m 4.13191,1.02264 -0.77672,9.3976 -1.76052,-0.3603 -0.0736,-0.88226 0.92062,0.16899 0.65101,-7.2414 z m -36.893337,0.75769 c 0.141109,-0.007 0.287067,0.0102 0.456139,0.0739 0.62471,0.24039 1.124997,1.03264 1.592083,1.4905 1.292793,1.26738 2.51529,2.6059 3.800629,3.88043 0.787439,0.78084 1.943135,1.66393 2.494943,2.62801 0.262144,0.45798 0.03447,1.24182 0.04021,1.75309 l -8.022928,1.46393 -4.283116,0.75272 c 0.0021,-0.40925 -0.178489,-1.24253 0.06723,-1.58296 0.252876,-0.35038 1.001864,-0.0631 1.052192,-0.61445 0.04526,-0.496 -0.847585,-9.43024 -0.847585,-9.43024 l 1.084557,-0.24138 0.934167,9.6332 c 0,0 4.988282,-0.81564 7.819533,-1.46383 -0.838742,-1.21451 -2.005174,-2.2471 -2.987764,-3.34717 -0.90462,-1.01283 -1.587819,-2.15527 -2.675441,-2.97821 l -1.025356,3.70135 -0.249589,-5.62956 c 0.293407,-0.007 0.514926,-0.0785 0.750117,-0.0894 z m -2.019951,0.28739 0.934203,0.002 c 0,0 0.23534,4.77236 0.197137,7.16653 l 0.439298,0.1035 0.0388,-0.28416 4.153713,-1.06402 0.220861,0.32657 -4.341685,1.03828 0.995504,0.23398 -0.345166,1.20912 -1.447679,0.38653 c -0.507861,-3.01943 -0.644528,-6.07106 -0.844982,-9.11894 z m 1.642323,7.28981 -0.07169,-0.0167 -0.0047,0.0349 z m 0.993447,-4.54273 0.46688,0.47472 -0.870474,2.96157 -0.68288,0.29881 1.028468,-3.68744 z m 43.228018,0.25117 2.49975,11.78851 -3.62887,2.29915 -2.3183,-12.26001 z m -19.51244,1.10669 2.89726,0.016 -0.31419,0.32663 -2.53454,0.003 z m -13.831155,0.214 -0.05234,0.40309 -2.519805,0.0935 -0.415362,-0.4307 z m 3.018335,0.19431 -0.0956,1.93593 2.86936,-0.407 0.0794,-0.65922 c 0.63973,0.13461 1.47715,0.10635 2.11609,-0.0276 l 0.0966,0.66316 2.87929,0.32551 -0.21196,-1.80397 c 0,0 -1.62066,-0.0462 -2.04954,-0.0407 -1.88896,0.0246 -3.80102,0.11147 -5.68359,0.0138 z m 0.16258,0.29839 7.39078,-0.0345 0.0439,0.30177 -7.44795,0.0326 z m 10.73532,-0.0883 2.2967,-0.0297 -0.27569,0.3283 -1.96835,0.0297 z m -14.016325,0.23474 -0.02516,0.29208 -1.997892,0.0695 -0.2841,-0.2858 z m 21.140835,-0.0586 3.53612,1.00408 -0.0544,0.46578 -3.73057,-1.10378 z m -28.002088,0.62118 0.181941,0.32052 -4.186994,1.06883 0.08516,-0.3544 z m 27.644118,-0.0825 c 0,0 2.32165,0.73289 3.78992,1.12973 l -0.0568,0.38812 -4.02784,-1.21898 z m -29.300255,1.70645 0.500289,1.26332 -0.905299,0.13266 z m 31.195455,-0.40827 0.35567,1.3572 -0.83507,-0.13015 z m -21.306157,2.93986 0.362746,-0.003 1.089851,0.0229 c 0.5956,-0.0455 0.90494,-0.0488 0.90494,-0.0488 l 2.23698,-0.0294 0.0605,-7.9e-4 5.74327,-0.0752 c 0,0 0.43736,0.41086 0.84801,0.10988 l -0.78756,-0.11079 0.96735,-0.0128 c -0.32783,0.67649 -1.82979,0.41116 -2.47375,0.41938 -2.23949,0.0286 -4.48657,0.12931 -6.72762,0.1035 -0.66064,-0.009 -1.851651,0.29642 -2.224676,-0.37328 z m -0.299134,0.24579 c 0.279885,0.39658 0.698471,0.79786 0.863041,1.25859 0.2365,0.6621 0.0609,1.60654 0.0297,2.29744 -0.62652,-0.89883 -1.285725,-2.48171 -0.892746,-3.55603 z m -3.203526,0.10248 -0.06269,0.47395 -5.877312,0.94951 -0.84386,0.93569 7.492564,1.19232 0.0471,0.46774 c 0,0 -7.343162,-1.0785 -10.460948,-1.71531 0.235791,0.35061 4.893533,3.82911 4.893533,3.82911 l 2.081202,0.47228 -0.100206,0.41323 -2.995397,-0.59847 -2.212707,-1.53263 -3.8454,-2.73639 c 3.934335,-0.85024 11.878448,-2.15012 11.883964,-2.15103 z m 18.378847,-0.24053 c 0,0 7.97289,1.63988 11.99548,1.77804 -1.12305,1.23883 -5.73818,4.34071 -5.86821,4.38882 -0.75636,0.27987 -2.36466,0.42744 -3.16073,0.5178 l -0.0371,-0.3715 c 0.45217,-0.14674 2.22897,-0.24905 2.22897,-0.24905 l 4.5428,-4.01417 -10.25044,2.18974 0.15718,-0.5349 8.31095,-1.80192 -7.79531,-1.27853 z m -3.20355,0.10235 0.12088,-0.001 c 0.10874,1.2998 -0.41191,2.24164 -0.80132,3.45725 l -0.0604,8e-4 -0.0301,-2.29744 z m -13.038176,1.35587 c 0.200679,0.003 0.375016,0.0341 0.499859,0.10965 0.486025,0.29376 0.763693,1.61557 0.975626,2.13261 l -2.539294,0.0331 -0.812497,-2.04533 c 0.436999,-0.007 1.274294,-0.24081 1.876306,-0.23015 z m 13.658586,-0.1546 2.35992,0.15052 c -0.0922,0.49844 -0.3674,1.67779 -0.80089,1.97847 -0.49905,0.34614 -1.83715,0.11192 -2.43666,0.11999 z m -26.613916,2.74398 1.676547,2.65192 -1.407052,0.0183 z m -2.372498,0.28796 9.886868,20.43612 1.588624,-0.28616 0.595668,4.96759 -14.648544,0.9877 -0.449146,-3.90816 10.261023,-1.65994 -8.596008,-18.13134 -3.381041,0.17727 -0.560091,-2.24835 z m 9.828659,-0.11306 0.251612,1.6118 -1.100488,-0.24763 z m 5.092523,-0.041 c 0.207726,-0.003 0.424885,0.0203 0.558394,0.0187 l 2.962498,-0.0389 12.03064,-0.15745 h 3.7e-4 l 0.22632,3.62887 0.16301,3.01732 c -1.64529,0.39135 -3.68804,0.10863 -5.38006,0.13084 l -11.124132,0.14558 c -0.02107,-1.61326 0.01825,-3.2251 -0.0025,-4.83715 -0.0051,-0.41012 -0.203015,-1.42373 0.06498,-1.75411 0.09472,-0.11691 0.293094,-0.14968 0.500807,-0.15388 z m -0.831371,0.0976 0.02579,6.59048 c -0.413956,-0.001 -1.630733,0.0598 -1.910786,-0.27663 0,0 0.121905,-5.37141 0.163277,-5.69762 0,0 1.287471,-0.52812 1.721738,-0.61623 z m 32.101663,0.20032 0.69429,2.86927 -2.67726,1.22355 -2.07097,16.27103 4.28989,0.4639 -0.42284,3.89903 -11.25836,0.27667 0.45882,-5.5996 5.69868,0.71813 2.7247,-19.83337 z m -4.14712,0.69928 0.30286,2.30672 -1.14539,-0.14919 z m -36.335044,0.9637 1.34167,0.86675 1.218182,0.67193 c -0.96976,0.0128 -1.345692,0.71469 -0.347719,1.15348 l 7.9e-4,0.0605 c -0.236216,0.0568 -0.598437,0.0296 -0.762111,0.23721 -0.545094,0.69141 -0.05004,1.57374 0.725386,1.57735 l 7.93e-4,0.0604 c -0.205085,0.11374 -0.509836,0.21556 -0.633542,0.42791 -0.42246,0.72522 0.545373,0.96959 1.013711,0.89744 -0.138144,0.19125 -0.412938,0.33928 -0.491047,0.56348 -0.278187,0.79849 0.735357,0.64665 1.109871,0.5169 -0.111822,0.20039 -0.368553,0.43664 -0.386655,0.67022 -0.02516,0.3239 0.685727,1.04288 1.017963,1.02674 0.232618,-0.0115 0.460641,-0.21259 0.656533,-0.32341 l -0.292013,0.78993 c 0.474668,0.22921 1.624595,1.07038 2.170186,0.831 0.261275,-0.11464 0.338248,-0.49973 0.552854,-0.68523 0.06,0.25151 0.01761,0.65704 0.23812,0.83282 0.236166,0.18846 1.254702,0.14666 1.437384,-0.10885 0.136432,-0.19096 0.118331,-0.52231 0.137964,-0.7476 0.276027,0.14168 0.272912,0.418 0.490569,0.6056 0.295768,0.25495 0.86548,-0.114 1.08531,-0.32387 0.343753,-0.0315 1.030874,-0.26891 1.063334,-0.68715 0.0182,-0.23319 -0.14544,-0.48091 -0.17464,-0.71528 0.190051,0.12848 0.459481,0.40509 0.703331,0.39721 0.54036,-0.0178 0.72468,-0.92168 1.3454,-0.94955 0.6964,-0.0312 1.41852,0.12358 2.11817,0.13278 1.70461,0.0225 3.37958,-0.0982 5.07505,-0.22254 0.69046,-0.0508 0.8577,0.82004 1.46409,0.89521 0.24844,0.0307 0.51492,-0.23018 0.72117,-0.34219 -0.0485,0.23067 -0.213,0.54243 -0.12065,0.77448 0.15681,0.39431 1.59616,1.07623 1.99634,0.904 0.23559,-0.10145 0.32716,-0.4702 0.4349,-0.68074 l 0.12089,-0.001 c 0.0546,0.22868 0.0288,0.55978 0.19189,0.74329 0.22029,0.24787 1.21788,0.2586 1.45044,0.021 0.17276,-0.17654 0.14376,-0.5575 0.17145,-0.78799 0.26791,0.1437 0.27557,0.42101 0.49059,0.60561 0.29639,0.25447 0.86504,-0.11353 1.0853,-0.32388 0.9298,-0.0825 1.09799,-0.57204 0.82903,-1.34118 0.21832,0.10186 0.48206,0.36517 0.73132,0.35067 0.33429,-0.0193 0.99468,-0.69133 0.9466,-1.03744 -0.0337,-0.24315 -0.28457,-0.47024 -0.42569,-0.65959 l 0.85039,0.29122 0.41134,-0.91243 -0.67138,-0.47497 c 0.21003,0.009 0.53371,0.10167 0.72481,-0.004 0.76684,-0.43265 0.0662,-1.11347 -0.37946,-1.32868 l -8e-4,-0.0603 c 0.22006,-0.0252 0.55805,-0.0191 0.72242,-0.19087 0.63099,-0.65846 -0.08,-1.62436 -0.80661,-1.62211 0.16737,-0.16012 0.45751,-0.20353 0.58111,-0.4034 0.39802,-0.64368 -0.49835,-0.82455 -0.89922,-0.80182 0.37166,-0.48031 0.75943,-0.47455 1.25997,-0.72711 0.47213,-0.23822 0.86116,-0.6157 1.31882,-0.87849 -0.17566,1.467 -0.26121,2.94837 -0.4061,4.41923 -0.0599,0.60811 -0.0358,1.28966 -0.21072,1.87729 -0.35396,1.18881 -1.23637,2.36961 -1.81118,3.47012 -0.42131,0.80667 -0.89065,2.21895 -1.60015,2.79301 -0.97802,0.79131 -2.55751,1.2229 -3.70591,1.73395 -1.08794,0.48413 -2.21794,1.19071 -3.36626,1.50301 -0.83097,0.22601 -1.79936,0.20891 -2.65665,0.30633 -0.87331,0.0993 -1.77832,0.30066 -2.65656,0.3122 -1.09952,0.0146 -2.23129,-0.15975 -3.3286,-0.23935 -0.68695,-0.0498 -1.44578,-0.004 -2.11841,-0.15074 -1.128784,-0.24412 -2.273401,-0.92666 -3.343632,-1.36245 -0.9313,-0.37921 -1.865881,-0.74977 -2.796045,-1.13175 -0.447938,-0.18396 -1.000103,-0.31842 -1.38391,-0.62177 -0.753138,-0.59523 -1.23756,-1.99423 -1.700841,-2.82786 -0.250859,-0.45142 -0.55209,-0.91634 -0.843157,-1.39078 l 3.135365,7.23253 -0.64558,0.85284 -6.761425,-14.8288 1.360762,0.0289 1.784386,4.11606 c -0.172813,-0.93487 -0.16911,-1.96569 -0.291948,-2.87451 -0.114886,-0.84965 -0.391249,-1.92943 -0.267236,-2.77772 z m 3.641449,1.18336 c 0.378828,-0.0144 0.884771,0.13627 1.153808,0.20552 -0.09484,0.51936 -0.223797,1.64947 0.08834,2.10208 0.214787,0.31138 0.627277,0.40846 0.855081,0.70567 0.160611,0.20951 0.111947,0.4969 0.297157,0.69608 0.328958,0.3538 0.935219,0.55065 1.355216,0.78082 0.677504,0.37128 1.493346,0.9578 2.251624,1.11799 0.623352,0.13168 1.360208,0.0184 1.995649,0.0102 -0.0942,1.03698 -1.573736,1.71697 -2.453468,1.9715 -2.658931,0.76941 -5.62964,-0.77534 -6.381387,-3.48855 -0.273964,-0.98881 -0.26813,-2.10654 0.04099,-3.08411 0.09103,-0.28791 0.194157,-0.77355 0.47403,-0.93966 0.08451,-0.0501 0.196684,-0.0729 0.322957,-0.0776 z m 26.243215,-0.3225 c 0.12613,-3.1e-4 0.2408,0.0176 0.33433,0.0623 0.32241,0.15461 0.44322,0.72222 0.5383,1.03304 0.33769,1.10388 0.30975,2.2962 -0.0704,3.38684 -0.87486,2.51014 -3.60206,3.88851 -6.14637,3.21349 -0.89667,-0.23787 -2.35257,-0.85248 -2.50363,-1.89088 0.46972,-0.004 1.07366,0.084 1.51025,-0.11401 0.72342,-0.32823 1.17979,-1.09493 1.85461,-1.49641 0.38219,-0.22739 0.86322,-0.0856 1.26618,-0.28009 0.58145,-0.28079 1.85049,-1.09463 2.09335,-1.70697 0.2205,-0.55591 0.0259,-1.41203 -0.0253,-1.9926 0.29295,-0.0556 0.77048,-0.21456 1.14868,-0.21479 z m -27.863395,1.10859 c 0.236653,0.0235 0.346482,0.0669 0.427171,0.29676 z m 29.079745,-0.38056 0.42321,-0.004 -0.35957,0.24658 z m 4.26777,0.59539 1.16844,0.11768 -2.25423,13.8349 -1.22663,-0.0853 z m -4.00932,0.67071 0.48368,-0.007 0.0115,0.84643 -0.48368,0.007 z m -29.250549,0.4348 c 0.0346,-0.001 0.0716,0.001 0.111183,0.007 l -0.0494,0.84721 c -0.54554,-0.0556 -0.580146,-0.83715 -0.06178,-0.8542 z m 50.309819,0.86176 0.52259,12.20764 0.14397,2.90029 -0.0571,1.2039 -0.69546,0.20555 -1.74994,0.27941 -7.2416,1.0993 -0.47004,-12.81264 -0.10074,-3.08261 0.10771,-1.06238 0.72329,-0.12459 1.87208,-0.1887 z m -50.054812,0.89696 0.127268,0.48209 c -0.5207,0.0604 -0.594035,-0.25665 -0.127268,-0.48209 z m 28.898352,-0.3782 0.48568,0.17504 -0.17661,0.36514 -0.36318,-0.0557 z m -24.0612,0.37532 1.694434,0.0984 4.473986,-0.0583 7.7e-4,0.0604 c -0.73528,0.0647 -1.78177,0.21316 -1.79953,1.112 l -1.99581,-0.0256 z m 14.57185,-0.0697 2.96216,-0.0389 7.7e-4,0.0604 -1.37655,1.06065 -1.3295,0.0632 -7.9e-4,-0.0605 c 0.75221,-0.17891 -0.66963,-0.96611 -1.82722,-1.00406 z m -0.66321,0.14979 c -0.0102,1.3e-4 -0.0167,0.001 -0.0197,0.003 -3.7e-4,3.1e-4 -0.001,0.001 -0.001,0.001 l -3.8e-4,3.7e-4 c -1.1e-4,2.8e-4 -5.5e-4,0.001 -6.7e-4,0.002 v 3.5e-4 c 1e-5,2.2e-4 0,7.4e-4 2e-5,0.001 1.1e-4,4e-4 5.6e-4,0.001 7.5e-4,0.002 0.003,0.009 0.0247,0.0152 0.0419,0.009 z m 0.24238,0.0371 -0.0597,0.0613 z m 0.12165,0.0589 -0.0597,0.0614 z m -4.7755,0.12074 c 0.95042,-0.019 1.9015,0.0156 2.84356,0.11413 0.79809,0.0836 1.98841,0.0304 2.00904,1.03394 -2.96708,-0.67884 -6.48497,-0.64569 -9.43127,0.12345 -0.0726,-0.99143 0.93764,-0.96438 1.73969,-1.0636 0.93893,-0.11604 1.88857,-0.18883 2.83898,-0.20794 z m 5.01814,-0.0631 -0.0598,0.0614 z m 0.0621,0.12012 0.18216,0.0582 z m 20.49454,-0.26822 0.64317,16.80139 c -0.51398,-0.15083 -1.79067,-0.4992 -2.05829,-0.9897 -0.24544,-0.44985 -0.0882,-1.32211 -0.0946,-1.8242 0.39141,-0.0462 1.36167,-0.0694 1.59931,-0.42151 0.15176,-0.225 0.0799,-0.61353 0.0766,-0.86992 -0.0102,-0.72874 -0.0581,-1.44955 -0.0868,-2.17578 -0.1085,-2.75517 -0.25568,-5.5247 -0.29196,-8.28014 -0.95049,-0.0149 -1.69633,0.095 -1.70596,-1.00565 -0.001,-0.19063 -0.0318,-0.44209 0.11363,-0.59151 0.36304,-0.37287 1.31582,-0.47467 1.80493,-0.64298 z m 9.37238,-10e-4 -7.97153,0.76947 c 0.0213,1.62888 0.0352,3.3377 0.21952,4.95529 0.0447,0.39412 -0.12574,1.25971 0.14179,1.56961 0.25862,0.29965 1.3659,-0.0257 1.71861,-0.0695 1.50804,-0.18649 3.01647,-0.39391 4.52759,-0.55326 0.33947,-0.0359 1.38226,0.016 1.56781,-0.31077 0.22068,-0.38876 0.0504,-1.26898 0.0372,-1.70832 -0.0456,-1.53871 -0.0678,-3.12297 -0.24122,-4.65262 z m -20.84939,0.87755 0.42559,0.17583 -0.0573,0.24263 -0.4248,-0.1154 z m -28.066854,0.4885 c 0.08297,-0.004 0.151814,0.0408 0.200232,0.17879 l -0.42163,0.12636 -0.06127,-0.0598 -0.0012,-0.12077 c 0.104158,-0.0642 0.201268,-0.11985 0.284213,-0.12471 z m -8.127902,0.2192 3.942093,9.73347 -6.492895,0.64899 -0.06694,-10.18255 z m 22.143206,-0.16733 c 0.77729,-0.0128 1.55489,0.0115 2.32888,0.0762 0.67888,0.0567 1.49048,0.009 2.1203,0.29511 v 3.9e-4 c -1.28882,0.34405 -2.72102,0.33796 -4.0468,0.3553 -1.54616,0.0203 -3.13371,0.0624 -4.65895,-0.24136 0.58088,-0.25498 1.30571,-0.27611 1.93055,-0.34229 0.7719,-0.0816 1.54874,-0.13084 2.32602,-0.14326 z m 1.42306,0.16899 0.0613,0.0598 z m 0.18375,0.17901 0.0613,0.0598 z m -4.97716,0.0854 0.0406,0.0197 z m 5.46163,-0.0313 0.12254,0.11937 z m -0.3015,0.0645 -0.24105,0.0636 8e-4,0.0603 0.30149,-0.0645 z m 0.18136,-0.002 0.0613,0.0596 z m -1.3293,0.0778 0.0613,0.0597 z m -13.902487,0.36336 c 0.688967,0.64533 0.374411,0.94948 -0.298345,0.30624 l -7.91e-4,-0.0605 z m 26.714277,-0.22796 c 0.40788,-0.002 0.051,0.6505 -0.26856,0.62175 -0.40158,-0.0361 0.0127,-0.61999 0.26856,-0.62175 z m -18.09652,0.28011 c 0.0793,-0.007 0.16816,-8.9e-4 0.27174,0.0128 l -0.47499,0.67139 -0.3667,-0.29754 c 0.18379,-0.25646 0.3324,-0.36959 0.56995,-0.38676 z m 9.41016,-0.0829 c 0.44523,-0.0314 0.85876,0.33581 0.30153,0.63739 l -0.49157,-0.59825 c 0.0623,-0.0221 0.1265,-0.0346 0.19004,-0.0392 z m 18.55711,0.21709 c 0.33816,1.42162 0.16097,3.18982 0.18182,4.65339 0.0313,2.17512 0.23421,4.3524 0.26684,6.52722 -0.40495,-0.0486 -1.43264,-0.22417 -1.64036,-0.61474 -0.3352,-0.63031 -0.0626,-1.91803 -0.0993,-2.62785 -0.0876,-1.69132 -0.1521,-3.3846 -0.23979,-5.07593 -0.0416,-0.80203 0.0476,-1.62445 -0.0961,-2.41752 z m -29.25481,0.86662 c 0.09584,0.40146 -0.130012,0.5699 -0.474184,0.73181 l -0.186911,-0.42083 z m 18.07655,-0.2366 0.18692,0.42085 -0.60063,0.31021 -0.18693,-0.42082 z m -24.060845,0.37535 0.669004,0.29358 c -0.187646,0.37753 -0.448974,0.26744 -0.784388,0.13126 z m 18.137005,-0.23716 0.66901,0.29359 -0.17662,0.36512 -0.60855,-0.29437 z m -13.174175,0.59569 c 0.05016,0.33186 -0.04723,0.48129 -0.354844,0.60934 -0.04071,-0.33369 0.04992,-0.47286 0.354844,-0.60934 z m -3.928685,0.11182 c 0.310383,0.0948 0.401665,0.21442 0.369868,0.53939 -0.31037,-0.0948 -0.401665,-0.21441 -0.369868,-0.53939 z m 18.13664,-0.23736 c 0.32039,0.0779 0.40103,0.21548 0.36988,0.53939 -0.31502,-0.0846 -0.40136,-0.21677 -0.36988,-0.53939 z m 3.86938,-0.0507 0.12573,0.36117 -0.42084,0.18691 -0.12651,-0.42163 z m -20.49059,0.57049 0.907313,0.0486 c -0.144972,0.46287 -0.470099,0.42828 -0.900983,0.43507 z m 18.13667,-0.23734 0.8464,-0.0114 0.004,0.42321 -0.84564,0.0716 z m -1.3503,9.22882 3.59456,4.68425 -19.834995,0.20463 2.840949,-4.65047 z m 16.63744,5.73285 1.48424,1.90423 -7.89949,4.48173 -31.691587,0.41476 -9.891018,-4.31525 1.833576,-1.81498 9.525053,2.92668 27.459826,-0.023 z m -48.181195,3.68188 8.61008,4.00071 -0.422589,3.18989 -8.747061,-4.33059 z m 51.007005,-0.66754 0.16737,2.65149 -9.02815,4.62921 0.0334,-2.52111 z m -10.42178,4.58145 -0.15644,3.25274 -30.512216,0.33291 0.224486,-3.12095 z"
       inkscape:label="Telescope" /></g></svg>
