<?xml version="1.0" encoding="UTF-8" standalone="no"?>
<!-- Created with Inkscape (http://www.inkscape.org/) -->

<svg
   width="210mm"
   height="297mm"
   viewBox="0 0 210 297"
   version="1.1"
   id="svg1"
   xml:space="preserve"
   sodipodi:docname="Club_Logo.svg"
   inkscape:version="1.4.4 (dcaf3e7d9e, 2026-05-05)"
   inkscape:export-filename="Club_Logo.png"
   inkscape:export-xdpi="300"
   inkscape:export-ydpi="300"
   xmlns:inkscape="http://www.inkscape.org/namespaces/inkscape"
   xmlns:sodipodi="http://sodipodi.sourceforge.net/DTD/sodipodi-0.dtd"
   xmlns="http://www.w3.org/2000/svg"
   xmlns:svg="http://www.w3.org/2000/svg"><sodipodi:namedview
     id="namedview1"
     pagecolor="#ffffff"
     bordercolor="#000000"
     borderopacity="0.25"
     inkscape:showpageshadow="2"
     inkscape:pageopacity="0.0"
     inkscape:pagecheckerboard="0"
     inkscape:deskcolor="#d1d1d1"
     inkscape:document-units="mm"
     inkscape:zoom="0.89752197"
     inkscape:cx="348.18089"
     inkscape:cy="553.1898"
     inkscape:window-width="1920"
     inkscape:window-height="1040"
     inkscape:window-x="0"
     inkscape:window-y="0"
     inkscape:window-maximized="1"
     inkscape:current-layer="svg1" /><defs
     id="defs1"><inkscape:path-effect
       effect="offset"
       id="path-effect13900"
       is_visible="true"
       lpeversion="1.3"
       linejoin_type="miter"
       unit="mm"
       offset="0.3"
       miter_limit="4"
       attempt_force_join="false"
       update_on_knot_move="true" /><inkscape:path-effect
       effect="offset"
       id="path-effect13899"
       is_visible="true"
       lpeversion="1.3"
       linejoin_type="miter"
       unit="mm"
       offset="0.3"
       miter_limit="4"
       attempt_force_join="false"
       update_on_knot_move="true" /><inkscape:path-effect
       effect="fillet_chamfer"
       id="path-effect13866"
       is_visible="true"
       lpeversion="1"
       nodesatellites_param="F,0,0,1,0,0,0,1 @ F,0,0,1,0,0,0,1 @ F,0,0,1,0,0,0,1 @ F,0,0,1,0,0,0,1 @ F,0,0,1,0,0,0,1 @ F,0,0,1,0,0,0,1 @ F,0,0,1,0,0,0,1 @ F,0,0,1,0,0,0,1 @ F,0,0,1,0,0,0,1 @ F,0,0,1,0,0,0,1 @ F,0,0,1,0,0,0,1 @ F,0,0,1,0,0,0,1 @ F,0,0,1,0,0,0,1 @ F,0,0,1,0,0,0,1 @ F,0,0,1,0,0,0,1 @ F,0,0,1,0,0,0,1 | F,0,0,1,0,0,0,1 @ F,0,0,1,0,0,0,1 @ F,0,0,1,0,0,0,1 | F,0,0,1,0,0,0,1 @ F,0,0,1,0,0,0,1 @ F,0,0,1,0,0,0,1 @ F,0,0,1,0,0,0,1 @ F,0,0,1,0,0,0,1 @ F,0,0,1,0,0,0,1 @ F,0,0,1,0,0,0,1 @ F,0,0,1,0,0,0,1 @ F,0,0,1,0,0,0,1 @ F,0,0,1,0,0,0,1 @ F,0,0,1,0,0,0,1 @ F,0,0,1,0,0,0,1 @ F,0,0,1,0,0,0,1 @ F,0,0,1,0,0,0,1 | F,0,0,1,0,0,0,1 @ F,0,0,1,0,0,0,1 @ F,0,0,1,0,0,0,1 @ F,0,0,1,0,0,0,1 @ F,0,0,1,0,0,0,1 @ F,0,0,1,0,0,0,1 @ F,0,0,1,0,0,0,1 @ F,0,0,1,0,0,0,1 @ F,0,0,1,0,0,0,1 @ F,0,0,1,0,0,0,1 | F,0,0,1,0,0,0,1 @ F,0,0,1,0,0,0,1 @ F,0,0,1,0,0,0,1 @ F,0,0,1,0,0,0,1 @ F,0,0,1,0,0,0,1 @ F,0,0,1,0,0,0,1 @ F,0,0,1,0,0,0,1 @ F,0,0,1,0,0,0,1 @ F,0,0,1,0,0,0,1 @ F,0,0,1,0,0,0,1 @ F,0,0,1,0,0,0,1 @ F,0,0,1,0,0,0,1 @ F,0,0,1,0,0,0,1 @ F,0,0,1,0,0,0,1 @ F,0,0,1,0,0,0,1 @ F,0,0,1,0,0,0,1 @ F,0,0,1,0,0,0,1 @ F,0,0,1,0,0,0,1 @ F,0,0,1,0,0,0,1 @ F,0,0,1,0,0,0,1 @ F,0,0,1,0,0,0,1 | F,0,0,1,0,0,0,1 @ F,0,0,1,0,0,0,1 @ F,0,0,1,0,0,0,1 @ F,0,0,1,0,0,0,1 @ F,0,0,1,0,0,0,1 @ F,0,0,1,0,0,0,1 @ F,0,0,1,0,0,0,1 @ F,0,0,1,0,0,0,1 @ F,0,0,1,0,0,0,1 @ F,0,0,1,0,0,0,1 @ F,0,0,1,0,0,0,1 @ F,0,0,1,0,0,0,1 @ F,0,0,1,0,0,0,1 @ F,0,0,1,0,0,0,1 | F,0,0,1,0,0,0,1 @ F,0,0,1,0,0,0,1 @ F,0,0,1,0,0,0,1 @ F,0,0,1,0,0,0,1 @ F,0,0,1,0,0,0,1 | F,0,0,1,0,0,0,1 @ F,0,0,1,0,0,0,1 @ F,0,0,1,0,0,0,1 @ F,0,0,1,0,0,0,1"
       radius="1"
       unit="px"
       method="auto"
       mode="F"
       chamfer_steps="1"
       flexible="false"
       use_knot_distance="true"
       apply_no_radius="true"
       apply_with_radius="true"
       only_selected="false"
       hide_knots="false" /></defs><ellipse
     style="display:inline;opacity:1;fill:#ffffff;stroke-width:80.4"
     id="path2"
     cx="105.51801"
     cy="148.17422"
     rx="80.822296"
     ry="80.822304"
     inkscape:label="Background-White" /><g
     id="g9"
     inkscape:label="ARIES-background"><path
       style="fill:#ffffff;stroke-width:80.4"
       d="m 33.3375,157.29479 27.252083,-5.15938 0.926041,4.49792 -3.042708,5.15938 -22.754166,4.36562 z"
       id="path4"
       inkscape:label="aries-background-light blue" /><path
       style="display:inline;fill:#f66151;stroke-width:80.4"
       d="m 43.778749,166.696 9.447977,2.80633 10.009243,-7.01582 1.683798,-11.13178 -3.461139,-0.18709 -1.122532,9.16735 -10.757598,5.33203 -5.519116,-1.49671 z"
       id="path3"
       inkscape:label="Aries-curve-orange" /></g><g
     id="g8"
     inkscape:label="AcSIR-background"><path
       id="path6"
       style="display:inline;fill:#99c1f1;stroke-width:80.4"
       d="M 165.14961 152.44961 L 164.33932 156.36875 L 165.56302 158.45234 L 164.80234 163.74401 L 167.24974 164.22357 L 168.44036 158.45234 L 169.69714 156.86484 L 170.52396 152.78034 L 165.14961 152.44961 z M 152.20156 153.2599 L 148.43125 153.72292 L 144.79323 159.87448 L 153.06146 161.66042 L 152.20156 153.2599 z "
       inkscape:label="AI-lightblue" /><path
       id="path7"
       style="display:inline;fill:#1a5fb4;stroke-width:80.4"
       d="M 158.75 155.11198 L 152.53229 156.4349 L 153.32604 162.45417 L 163.97552 164.43854 L 165.1 161.79271 L 165.43073 158.48542 L 164.63698 156.3026 L 158.75 155.11198 z M 169.08115 157.178 L 167.98199 164.05355 L 174.67048 165.05918 L 175.44252 157.99656 L 169.08115 157.178 z "
       inkscape:label="cSR-darkblue" /></g><g
     inkscape:label="Layer 1"
     inkscape:groupmode="layer"
     id="layer1"
     style="display:inline;fill:#000074"><path
       id="path18235"
       style="display:inline;fill:#00004c;stroke:none;stroke-width:1"
       inkscape:label="Logo"
       d="M 104.06135 67.145772 C 103.44481 67.163522 102.83567 67.205062 102.24027 67.283232 C 97.154055 67.950987 92.121701 68.156673 87.08254 69.351322 C 71.896769 72.951422 57.773116 80.902449 46.97026 92.200057 C 40.810275 98.642167 35.564761 106.11653 31.839917 114.22869 C 19.255436 141.63588 22.579136 174.51613 41.069845 198.50416 C 46.30753 205.29901 52.60232 211.29251 59.698165 216.12118 C 66.934653 221.04554 74.983908 224.96867 83.445036 227.28742 C 94.358628 230.27825 105.68224 231.0724 116.89209 229.59839 C 143.7742 226.06359 168.27204 208.24651 179.61281 183.54797 C 184.28755 173.36707 186.82993 162.59032 187.31932 151.41505 C 188.27259 129.64767 179.57402 107.87738 164.58324 92.200057 C 154.45087 81.603642 141.33773 73.884552 127.19895 70.055155 C 121.44668 68.4972 115.55983 67.597782 109.61605 67.337492 C 107.82431 67.259062 105.91101 67.092538 104.06135 67.145772 z M 104.37192 71.202889 C 106.01851 71.164719 107.7106 71.309468 109.31374 71.379622 C 114.01294 71.585414 118.66454 72.183756 123.25811 73.237907 C 145.43489 78.327083 164.446 93.329763 174.86788 113.52124 C 180.08316 123.62537 182.78219 134.84552 183.2777 146.16059 C 184.02918 163.32052 178.47846 180.86082 168.31066 194.66409 C 155.84449 211.58746 136.19765 223.51133 115.17437 225.7702 C 103.09847 227.0677 90.982408 225.8614 79.503674 221.77613 C 71.807835 219.03716 64.665277 214.981 58.182495 210.03472 C 53.754199 206.65598 49.774092 202.66129 46.199247 198.40236 C 26.424425 174.84348 22.917847 140.98546 36.634456 113.62252 C 41.096763 104.72076 47.457813 96.742999 54.949101 90.207931 C 64.794944 81.618874 76.764331 75.741474 89.507715 72.942318 C 93.911252 71.975066 98.306549 71.835072 102.74463 71.31141 C 103.27843 71.24843 103.82306 71.21562 104.37192 71.202889 z M 105.87571 73.605843 C 104.67349 73.575853 103.47179 73.602143 102.34104 73.750537 L 102.34104 73.751054 C 100.17022 74.036062 97.954825 74.055862 95.772965 74.342749 C 91.771376 74.868923 87.822149 75.751154 83.950431 76.883679 C 68.976082 81.263832 55.477564 90.846202 46.044735 103.21437 C 31.306451 122.53905 26.940378 148.26971 34.135384 171.42261 C 36.228608 178.15843 39.366357 184.53225 43.235087 190.41938 C 48.63125 198.63083 55.772327 205.57017 63.841581 211.13182 C 70.885925 215.98706 79.002411 219.50892 87.284595 221.60611 C 96.27086 223.88158 105.78175 224.47654 114.97179 223.33314 C 141.1774 220.07262 164.10015 202.88081 174.70665 178.69814 C 178.53089 169.97888 180.43717 160.58449 180.85201 151.11171 C 181.75292 130.53962 173.21079 109.92627 158.72209 95.437585 C 149.04711 85.762606 136.55012 78.891745 123.25811 75.740597 C 118.67547 74.654198 114.09704 74.120855 109.41451 73.800146 C 108.28071 73.722496 107.07793 73.635829 105.87571 73.605843 z M 103.3508 76.136955 C 132.02973 74.881033 159.77645 92.135163 171.7306 118.16953 C 176.40814 128.35654 178.4351 139.55457 178.4351 150.71018 L 146.75125 144.97616 C 146.65515 140.3169 144.43963 134.61376 142.38149 130.49746 C 140.1243 125.98312 137.05606 121.92185 133.36292 118.48166 C 121.67121 107.59074 104.20775 104.80625 89.608484 111.05369 C 86.09214 112.55843 82.720326 114.60123 79.807015 117.08536 C 74.244907 121.82807 69.811528 127.82275 67.346794 134.74165 C 66.424943 137.32945 65.721324 140.00388 65.329346 142.7241 C 65.239546 143.34732 65.078198 145.30121 65.078198 145.30121 C 65.078198 145.30121 43.928719 149.44312 33.364372 151.20162 C 32.964589 149.0482 33.124308 147.4245 33.219161 145.25057 C 33.459048 139.77261 34.337174 134.37186 35.807633 129.08308 C 41.671161 107.99375 57.286723 90.427484 77.381323 81.834798 C 85.614412 78.314226 94.437449 76.527307 103.3508 76.136955 z M 106.58471 80.882402 L 97.08658 82.010498 L 90.01311 82.802181 C 90.013196 83.541065 89.94509 84.834932 90.290096 85.49814 C 90.573877 86.043678 91.550338 85.45878 91.870878 86.339433 C 92.549264 88.203083 92.426692 90.639343 92.668762 92.604167 C 92.768462 93.413497 93.111875 94.532282 92.911125 95.332682 C 92.750235 95.974192 92.099 96.115972 91.52878 96.140902 L 91.831604 99.071472 L 102.34104 97.829687 L 108.505 97.151693 L 107.89832 91.694661 C 107.34552 91.695031 105.53175 91.605641 105.17291 92.05898 C 104.66367 92.70234 105.45743 93.656737 104.56003 94.212337 C 103.86057 94.645387 102.83299 94.641879 102.0377 94.731169 C 100.50522 94.903239 98.932471 95.227136 97.389921 95.231396 L 96.985295 91.795947 L 103.04797 91.088497 L 102.74463 88.056641 C 100.82317 88.072481 98.550984 88.318339 96.681954 88.764608 L 96.277844 85.227873 C 97.999074 85.092008 99.715403 84.819038 101.43153 84.626359 C 102.09909 84.551389 103.04041 84.321172 103.65 84.708008 C 104.25254 85.090394 104.33414 85.992544 104.36211 86.642257 C 104.92099 86.642191 106.72228 86.739767 107.08752 86.277938 C 107.35042 85.945525 107.12 85.203085 107.0746 84.823246 C 106.91959 83.527831 106.8869 82.151122 106.58471 80.882402 z M 114.06281 81.286511 L 113.35535 84.116313 C 113.75083 84.198163 114.54934 84.285407 114.69119 84.743665 C 114.87315 85.331417 114.30631 86.463062 114.15221 87.046366 C 113.72437 88.666053 113.27294 90.279715 112.83497 91.896716 C 112.65132 92.574746 112.54572 93.549279 112.0774 94.097099 C 111.67156 94.571839 111.04196 94.354085 110.52607 94.220605 C 110.37573 94.754355 109.59756 96.508356 109.92662 96.977026 C 110.1385 97.278776 110.89704 97.34841 111.23352 97.43953 C 112.44587 97.76788 113.66096 98.085549 114.87102 98.421899 C 115.2271 98.520899 116.08869 98.922017 116.39341 98.604317 C 116.69393 98.290967 117.24152 96.486529 116.98614 96.110929 C 116.6489 95.614899 115.90723 95.724226 115.89628 94.928056 C 115.88728 94.294746 116.19156 93.614876 116.34949 93.008276 C 116.70949 91.625606 117.06312 90.226162 117.49825 88.865377 C 118.89088 91.477592 120.07102 94.258258 121.30681 96.949638 C 121.77375 97.966548 122.25976 99.872307 123.12065 100.60213 C 123.87463 101.24131 126.02021 101.56705 126.9969 101.6987 C 127.91165 98.475375 128.76368 95.232202 129.63963 91.998002 C 130.0504 90.481332 130.11702 88.80437 132.0493 89.168201 L 132.75675 86.338916 L 126.18868 84.621191 L 125.48123 87.450993 C 126.00678 87.530113 126.61325 87.759051 126.70803 88.359981 C 126.79883 88.935582 126.47012 89.629969 126.32717 90.178992 C 125.94644 91.641256 125.37971 93.126552 125.17789 94.625232 C 123.69915 92.091642 122.51924 89.221944 121.32438 86.540971 C 120.86673 85.514108 120.345 83.605537 119.48005 82.873494 C 119.06828 82.525018 118.31178 82.450987 117.8016 82.312805 C 116.55449 81.975037 115.30647 81.636823 114.06281 81.286511 z M 83.647091 85.227873 L 81.019861 86.236597 L 76.573621 88.157926 L 77.685181 90.785673 C 78.171265 90.627558 78.730652 90.33219 79.182247 90.716943 C 79.727533 91.181473 79.939569 92.066406 80.211125 92.704936 C 80.840703 94.185316 81.484159 95.661903 82.091113 97.151693 C 82.356607 97.803343 82.93077 98.652856 82.906051 99.374296 C 82.886171 99.954426 82.258631 100.23122 81.82808 100.48637 L 82.838354 103.11309 L 85.263529 102.16379 L 89.911825 100.18303 L 88.800264 97.555802 C 88.30433 97.691132 87.763172 98.018231 87.304232 97.624015 C 86.747462 97.145835 86.511474 96.191057 86.231429 95.534737 C 85.60031 94.055667 84.96903 92.575 84.355575 91.088497 C 84.097049 90.462049 83.508394 89.559752 83.578878 88.865377 C 83.636508 88.297634 84.22523 88.091556 84.657365 87.854586 L 83.647091 85.227873 z M 71.338281 91.918937 C 70.905756 91.913937 70.343311 92.124702 70.005029 92.243982 C 68.672764 92.713772 67.423328 93.38418 66.266239 94.1927 C 62.861128 96.57205 59.381329 100.25437 60.752364 104.73004 C 61.023779 105.61606 61.474238 106.39157 61.988981 107.15522 C 62.622803 108.09551 63.374148 108.92814 64.245691 109.65274 C 68.313821 113.03497 73.402109 110.44708 76.67439 107.25495 C 77.744355 106.21119 78.782793 105.13489 79.517627 103.82054 C 79.734663 103.43234 80.112815 102.87216 80.059713 102.40615 C 79.934265 101.30525 78.193046 99.991742 77.584412 99.071472 C 77.016584 99.331562 75.4627 100.32807 75.382479 100.9928 C 75.286459 101.78837 75.730085 102.37294 75.37266 103.21437 C 74.663373 104.88407 72.871914 106.34107 71.217875 107.00846 C 67.648978 108.44848 63.144946 103.35907 65.100936 99.980977 C 66.029375 98.377517 68.171183 96.499238 70.106315 96.352258 C 70.796427 96.299758 71.664841 97.002434 72.228666 96.840084 C 72.984352 96.622484 73.727954 95.700586 74.3505 95.231396 C 73.830976 94.399936 73.145043 93.670151 72.532007 92.906991 C 72.283683 92.597861 72.006874 92.098699 71.6132 91.961829 C 71.5316 91.933429 71.438095 91.920337 71.338281 91.918937 z M 140.06949 92.718372 C 138.44654 92.684072 136.84023 93.195035 135.38398 94.533765 C 134.55366 95.297065 133.83703 96.193603 133.24303 97.151693 C 132.57481 98.229483 132.00898 99.502205 131.95215 100.7892 C 131.75705 105.20601 135.52444 108.34555 139.02201 110.38758 C 140.03606 110.97965 142.13938 112.16009 143.36283 111.87069 C 143.78029 111.77189 144.02307 111.31168 144.26458 110.99529 C 144.86009 110.21515 145.43161 109.39384 146.09548 108.67089 C 145.7152 108.17515 144.43273 106.91923 143.77107 106.95213 C 143.05354 106.98773 142.5607 107.62578 141.75 107.52987 C 140.26259 107.3539 138.76651 106.34928 137.71252 105.32742 C 136.87342 104.51391 136.14931 103.4085 136.14931 102.2041 C 136.14931 99.132825 139.56068 95.745667 142.65951 96.857137 C 144.30115 97.445947 146.12288 98.878237 146.8515 100.48637 C 147.23495 101.33275 146.82568 101.90077 146.92488 102.70484 C 146.98588 103.19929 148.45209 104.2826 148.92476 104.38071 C 149.28976 104.45641 149.52971 104.06754 149.71954 103.82054 C 150.18844 103.21042 151.68629 101.79043 151.57421 100.99125 C 151.32311 99.200715 149.01435 97.178208 147.71191 96.120748 C 145.52618 94.346108 142.7744 92.775482 140.06949 92.718372 z M 157.21366 105.63955 C 156.58043 105.66625 155.42385 106.68541 154.98796 106.95316 C 155.12758 107.43802 155.54266 107.97404 155.2298 108.46728 C 154.8022 109.14143 153.82898 109.55635 153.16895 109.96538 C 151.88431 110.76151 150.60751 111.57176 149.32887 112.37764 C 148.72246 112.75985 148.01631 113.39442 147.3078 113.55379 C 146.72343 113.68525 146.36414 113.14133 146.09548 112.71302 L 143.56901 114.12792 L 147.4401 120.39265 L 152.46149 128.37563 C 153.60136 127.74341 154.68956 127.00139 155.79618 126.31219 C 156.1185 126.11145 156.84932 125.82049 156.96303 125.42645 C 157.07383 125.0425 156.52736 124.43441 156.33258 124.13144 C 156.16045 123.86368 155.95465 123.38222 155.65665 123.23589 C 154.76288 122.79701 154.13835 124.41033 153.08523 123.31754 C 151.52113 121.69475 150.69337 119.3517 149.32887 117.56337 L 152.25014 115.93298 L 153.23767 117.15926 L 155.49283 120.79728 L 158.12058 119.28057 L 154.98796 114.02663 L 157.81724 112.20762 L 157.91801 112.20762 C 158.68699 113.58878 159.59841 114.90932 160.43879 116.24924 C 160.84249 116.89288 161.42061 117.61243 161.57515 118.37159 C 161.78573 119.4061 160.50668 119.45486 160.28737 120.2092 C 160.11008 120.81899 161.29399 122.06176 161.55603 122.61577 C 162.76352 122.15877 163.89576 121.23424 164.99148 120.55181 C 165.30347 120.3575 166.03598 120.06623 166.11544 119.6666 C 166.18154 119.33393 165.83024 118.93509 165.66637 118.67493 C 165.1996 117.93376 164.7269 117.19581 164.26491 116.45181 C 162.60851 113.7843 160.93783 111.12509 159.26366 108.46883 C 158.85544 107.82113 158.11146 105.94235 157.39194 105.66487 C 157.33904 105.64447 157.27917 105.63685 157.21366 105.63955 z M 53.707316 107.85595 C 53.683306 107.85695 53.659146 107.8587 53.635486 107.8637 C 52.71014 108.03709 51.469598 109.79092 50.907487 110.48938 C 50.484249 111.0153 50.084228 111.55552 49.694124 112.10634 C 48.028167 114.45872 45.297423 118.97511 48.079236 121.48509 C 48.467298 121.83524 48.925773 122.10396 49.3913 122.33672 C 52.857877 124.06979 55.325931 120.86154 57.677616 118.81859 C 58.504721 118.10008 60.709462 115.32981 61.687191 117.3608 C 61.960302 117.92811 61.590561 118.66817 61.334757 119.17981 C 60.652293 120.54491 59.575319 122.07871 58.182495 122.77959 C 57.619626 123.06284 56.812013 122.97318 56.315942 123.32167 C 55.667569 123.77717 55.312447 124.90626 54.847815 125.54583 L 54.847815 125.64711 C 55.645295 126.22647 56.528748 126.71599 57.374276 127.22324 C 57.682962 127.40842 58.099797 127.75901 58.485836 127.67179 C 59.464225 127.45072 60.670781 125.69415 61.274813 124.93914 C 61.745311 124.35104 62.177498 123.74713 62.595146 123.12065 C 64.193695 120.72282 66.962586 116.25748 64.337158 113.63182 C 63.966161 113.26079 63.500062 112.97349 63.032845 112.73989 C 59.540543 110.99373 56.980271 114.32192 54.64576 116.43424 C 53.849007 117.15517 51.693747 119.64611 50.723002 117.76335 C 50.443723 117.22167 50.720202 116.55 50.95658 116.04666 C 51.576348 114.72721 52.701218 113.28043 54.039596 112.64429 C 54.558015 112.39788 55.360048 112.49697 55.797111 112.20452 C 56.429351 111.78149 56.921037 110.54545 57.273507 109.88322 C 56.433251 109.36886 55.591853 108.85377 54.747046 108.34687 C 54.462964 108.17642 54.067532 107.83908 53.707316 107.85595 z M 106.17957 111.62729 C 109.52882 111.51976 113.19438 112.31879 116.28593 113.24632 C 131.65549 117.85747 141.9616 131.92335 142.65589 147.77703 C 143.17215 159.56545 137.36668 170.9681 128.28003 178.14675 C 116.61356 187.63165 98.044913 188.46841 83.442969 178.32865 C 69.30188 167.44416 64.690421 147.0672 73.269946 131.20543 C 75.027346 127.95637 77.260739 124.89636 79.907784 122.31398 C 84.58499 117.75106 90.505013 114.31682 96.884526 112.80242 C 99.518256 112.1772 102.10326 112.0453 104.7657 111.73116 L 104.76673 111.73116 C 105.2297 111.67656 105.7011 111.64266 106.17957 111.62729 z M 62.65509 151.74009 C 62.68037 151.73947 62.706442 151.74037 62.733122 151.74319 C 63.144001 151.78029 63.262155 152.14611 63.307764 152.36124 C 63.393014 152.76353 63.44312 153.17539 63.487598 153.56789 C 63.6868 155.32584 63.477068 157.11775 62.957397 158.79496 C 61.298944 164.14751 56.103824 167.91253 50.512162 167.85694 C 49.023641 167.84214 47.574371 167.57886 46.172892 167.08437 C 45.822837 166.96085 45.479706 166.81613 45.147632 166.66166 C 45.081422 166.63086 44.795742 166.54139 44.647921 166.36762 C 44.591291 166.30102 44.553511 166.22561 44.527515 166.15833 C 44.443505 165.94104 44.411016 165.54944 44.392639 165.46225 L 44.798816 165.12222 C 45.254067 165.30687 45.692979 165.57327 46.08866 165.73717 C 47.018031 166.12219 47.999661 166.39051 48.995459 166.52575 C 52.189118 166.95947 55.525012 166.03874 58.015063 163.98637 C 59.064438 163.12145 59.929815 162.09061 60.653145 160.93178 C 61.900804 158.9329 62.461841 156.47403 62.309375 154.12341 C 62.276035 153.60936 62.122499 153.01122 62.081482 152.42584 C 62.057922 152.08975 62.275966 151.74996 62.65509 151.74061 L 62.65509 151.74009 z M 167.10505 153.56479 A 1.3563927 1.3563927 0 0 1 168.46155 154.92129 A 1.3563927 1.3563927 0 0 1 167.10505 156.27728 A 1.3563927 1.3563927 0 0 1 165.74906 154.92129 A 1.3563927 1.3563927 0 0 1 167.10505 153.56479 z M 60.281592 153.77976 L 60.535323 154.98537 L 60.241801 155.04738 C 59.982866 155.10188 59.651182 155.14278 59.391207 155.19001 C 59.113899 155.24051 58.858987 155.30871 58.679622 155.40809 C 58.558448 155.47519 58.485694 155.54702 58.434159 155.62513 C 58.382629 155.70323 58.351457 155.79173 58.335457 155.89849 C 58.303457 156.11203 58.344161 156.39496 58.405221 156.68501 L 58.715796 158.15779 C 58.845801 158.77495 58.999223 159.4693 58.567485 160.14733 C 57.978274 161.07266 56.740503 161.12175 55.971777 161.2837 L 55.616243 161.05167 C 55.611043 161.02677 55.497577 160.68939 55.495837 160.50131 C 55.495267 160.43851 55.502337 160.34934 55.548547 160.26205 C 55.607647 160.15044 55.707752 160.0942 55.770239 160.06568 C 55.962284 159.97798 56.392787 159.93622 56.40896 159.93236 C 56.755381 159.85936 57.082652 159.80555 57.291077 159.68638 C 57.430027 159.60688 57.522158 159.51537 57.587699 159.33498 C 57.634569 159.20596 57.637864 159.06596 57.614054 158.89831 C 57.590234 158.73066 57.537564 158.54274 57.494682 158.33917 C 57.270516 157.27499 56.513419 155.41734 57.867786 154.45569 C 58.039046 154.33407 58.230617 154.23702 58.43571 154.17457 C 58.944152 154.01973 59.515072 153.94142 59.98807 153.84177 L 60.281592 153.77976 z M 149.17022 154.23038 L 151.49566 154.61485 L 152.73796 161.21652 L 150.62078 160.86615 L 150.50347 159.94528 L 148.32221 159.58457 L 147.915 160.41915 L 145.86965 160.08118 L 149.17022 154.23038 z M 47.245178 155.1435 C 47.447615 155.1505 47.629554 155.2139 47.785714 155.3161 C 48.504221 155.78656 48.560658 157.00788 47.574357 157.36869 C 47.310158 157.46539 47.051502 157.46321 46.824532 157.38161 C 45.917585 157.05571 45.729909 155.61494 46.786808 155.22153 C 46.91291 155.17453 47.037418 155.15034 47.157328 155.14454 C 47.187058 155.14354 47.216258 155.1425 47.245178 155.1435 z M 53.840125 155.22618 C 54.209315 155.23318 54.596445 155.34184 54.912927 155.5626 C 55.614291 156.0518 55.720716 156.8071 55.856539 157.45189 L 55.918551 157.74541 L 52.385433 158.48955 L 52.131702 157.28446 L 54.41425 156.80335 C 54.34074 156.68643 54.26071 156.61723 54.16672 156.5677 C 54.06692 156.515 53.946252 156.48652 53.803434 156.47882 C 53.589209 156.46782 53.33023 156.50877 53.067045 156.56977 C 52.820309 156.62697 52.523013 156.71351 52.290348 156.76252 C 52.075153 156.80782 51.865467 156.83532 51.686768 156.8819 C 51.508068 156.9285 51.367053 156.99078 51.261987 157.08757 C 51.111043 157.22661 51.012866 157.44403 51.00929 157.64878 C 51.00749 157.75288 51.02876 157.88325 51.062 158.02498 C 51.09108 158.149 51.14352 158.33862 51.172587 158.47663 L 51.444405 159.76803 C 51.494455 160.00565 51.534245 160.20631 51.598918 160.35765 C 51.663588 160.509 51.740019 160.61472 51.907943 160.71629 C 52.101246 160.83316 52.387915 160.84241 52.727014 160.78243 C 53.066114 160.72253 53.432391 160.59979 53.767261 160.52922 L 54.060783 160.46721 L 54.253019 161.3793 L 54.020992 161.73483 C 53.313668 161.8839 52.236137 162.30447 51.358105 161.83715 C 51.001209 161.64721 50.688179 161.35081 50.500277 160.97519 C 50.294574 160.56397 50.243369 160.04212 50.170064 159.69413 C 49.986087 158.82077 49.397738 157.40361 50.198486 156.40957 C 50.825607 155.63106 51.927708 155.57981 52.654667 155.42669 C 52.972202 155.35979 53.423928 155.21748 53.840125 155.22618 z M 164.55688 156.12535 C 166.27289 156.66255 166.83218 158.11717 166.81979 159.42593 C 167.07128 158.14539 167.88052 156.82214 169.52505 156.51344 C 168.05652 158.01299 167.85022 159.44091 167.85022 159.44091 C 167.85022 159.44091 167.13915 163.64384 167.13915 163.63342 L 165.13927 163.30269 L 165.73717 159.16444 C 165.73717 159.16444 165.92666 157.72997 164.55688 156.12535 z M 149.97793 156.14913 C 149.93583 156.25373 149.88243 156.37185 149.81721 156.50363 C 149.75811 156.6364 149.69472 156.77474 149.62756 156.91859 C 149.56136 157.0564 149.49639 157.18817 149.43222 157.31391 L 148.9692 158.26011 L 150.32622 158.48438 L 150.19238 157.43949 C 150.18018 157.36309 150.16734 157.27108 150.15414 157.16353 C 150.14094 157.05599 150.12865 156.9426 150.11745 156.82299 C 150.10625 156.70337 150.09451 156.58672 150.08231 156.47314 C 150.07111 156.35352 150.06037 156.24946 150.05027 156.16101 L 149.97793 156.14913 z M 161.89296 156.19098 C 162.39639 156.16839 162.9789 156.26678 163.65926 156.63488 C 163.97911 156.76212 164.25294 156.925 164.4804 157.12374 C 164.70786 157.32248 164.87366 157.55457 164.97856 157.81982 C 165.08346 158.08507 165.11166 158.38412 165.06279 158.71693 L 165.04471 158.82545 L 163.17144 158.51591 L 163.17764 158.47922 C 163.19564 158.37062 163.18565 158.26381 163.14715 158.1583 C 163.10885 158.0528 163.03305 157.96004 162.92236 157.87977 C 162.8177 157.80047 162.66945 157.74476 162.47639 157.71285 C 162.29541 157.68295 162.13829 157.67585 162.00562 157.69115 C 161.87898 157.70745 161.77978 157.74325 161.70848 157.79967 C 161.63818 157.85007 161.59746 157.91176 161.58549 157.98416 C 161.56659 158.09878 161.60188 158.20073 161.69246 158.29008 C 161.78306 158.37948 161.91202 158.4625 162.079 158.53968 C 162.24598 158.61688 162.43568 158.69461 162.64589 158.77274 C 162.85609 158.85084 163.07432 158.93638 163.30063 159.02957 C 163.52793 159.11667 163.74285 159.22082 163.94607 159.34118 C 164.1493 159.46154 164.32735 159.60552 164.47937 159.77319 C 164.63238 159.93484 164.74354 160.12353 164.8132 160.33957 C 164.8828 160.55561 164.89355 160.8086 164.84575 161.09818 C 164.76095 161.61098 164.57148 162.00688 164.27731 162.28674 C 163.98918 162.56759 163.62452 162.74939 163.18332 162.8314 C 162.74915 162.9084 162.27003 162.90322 161.74517 162.81642 C 161.31683 162.74562 160.92072 162.64643 160.55764 162.51825 C 160.1996 162.39709 159.89125 162.23741 159.63263 162.03972 C 159.38104 161.83699 159.19668 161.58675 159.07866 161.28835 C 158.96768 160.9849 158.94638 160.6251 159.0151 160.20883 L 159.02285 160.16335 C 159.02685 160.13925 159.03342 160.11565 159.04352 160.09255 L 160.93488 160.4052 C 160.92488 160.4283 160.91769 160.45189 160.91369 160.47599 L 160.90491 160.53025 C 160.87501 160.71124 160.89428 160.85695 160.96278 160.96744 C 161.03128 161.07792 161.13782 161.16366 161.28266 161.22478 C 161.43453 161.28088 161.60741 161.32517 161.80046 161.35708 L 162.02629 161.39428 C 162.11179 161.40228 162.19167 161.40627 162.26606 161.40617 C 162.34746 161.40117 162.42089 161.38803 162.48621 161.36793 C 162.55751 161.34873 162.61566 161.31824 162.65984 161.27594 C 162.70504 161.22764 162.73366 161.1642 162.74666 161.08577 C 162.76556 160.97115 162.72976 160.87195 162.63813 160.78864 C 162.54653 160.70534 162.41702 160.625 162.25004 160.54782 C 162.08307 160.47062 161.89439 160.39341 161.68419 160.31528 C 161.47398 160.23718 161.25576 160.15112 161.02945 160.05793 C 160.80413 159.95873 160.59037 159.84584 160.38814 159.71945 C 160.18591 159.59306 160.00893 159.44633 159.85691 159.27865 C 159.70589 159.10494 159.59642 158.90421 159.52876 158.6761 C 159.46206 158.44196 159.45354 158.17367 159.50344 157.87202 C 159.56324 157.51004 159.68953 157.21474 159.88223 156.98628 C 160.07494 156.75783 160.31416 156.58711 160.5995 156.47314 C 160.96518 156.35716 161.38953 156.21358 161.89296 156.19098 z M 155.58895 156.72997 C 155.83347 156.72197 156.09158 156.74088 156.36307 156.78578 C 156.72504 156.84558 157.05932 156.9413 157.36611 157.07258 C 157.67289 157.20386 157.93357 157.37107 158.14797 157.57384 C 158.36236 157.77662 158.51443 158.01854 158.60427 158.2999 C 158.70017 158.58225 158.71828 158.90427 158.65853 159.26625 L 156.91187 158.97789 C 156.94277 158.79087 156.93181 158.63096 156.87931 158.49834 C 156.83291 158.36671 156.74778 158.26296 156.62403 158.18673 C 156.50128 158.10443 156.34648 158.04762 156.15946 158.01671 C 155.94831 157.98181 155.76923 157.99555 155.62254 158.05805 C 155.48289 158.11555 155.37032 158.21761 155.28406 158.36449 C 155.19876 158.50535 155.13861 158.68147 155.10371 158.89263 L 155.01844 159.40836 C 154.98354 159.61951 154.98354 159.80567 155.01896 159.96646 C 155.06036 160.12826 155.14049 160.26211 155.25926 160.36851 C 155.38505 160.46987 155.55677 160.5388 155.77395 160.57469 C 155.97304 160.60759 156.14333 160.60759 156.28503 160.57521 C 156.43376 160.53781 156.55443 160.4648 156.64677 160.3561 C 156.74007 160.24138 156.80245 160.08769 156.83435 159.89463 L 158.50867 160.17162 C 158.44887 160.5336 158.3275 160.83551 158.14487 161.07802 C 157.96927 161.3155 157.74752 161.49607 157.47928 161.61908 C 157.21103 161.74208 156.91075 161.81622 156.57804 161.8418 C 156.24533 161.8674 155.8977 161.84982 155.53573 161.79012 C 154.99276 161.70042 154.53439 161.53201 154.1601 161.28421 C 153.79284 161.03138 153.52771 160.7021 153.36532 160.29719 C 153.20392 159.88625 153.16919 159.40322 153.26093 158.84819 C 153.35363 158.28712 153.54222 157.8414 153.82627 157.51028 C 154.11131 157.17313 154.46788 156.94695 154.89597 156.83177 C 155.11353 156.77167 155.34443 156.73757 155.58895 156.72997 z M 45.359505 156.76976 L 45.61272 157.9764 L 45.320231 158.03687 C 45.009222 158.10237 44.694233 158.14439 44.417444 158.21825 C 44.140655 158.29215 43.908484 158.3938 43.732214 158.56345 C 43.504616 158.7825 43.421842 159.00257 43.397868 159.26986 C 43.373898 159.53717 43.423736 159.84999 43.493986 160.1835 L 44.20402 163.55177 L 42.999443 163.80499 L 42.391728 160.91214 C 42.182445 159.91861 41.873565 158.78438 42.733309 157.81001 C 42.889948 157.63249 43.070756 157.48391 43.265576 157.36094 C 43.82185 157.00981 44.550458 156.94065 45.06495 156.83229 L 45.359505 156.76976 z M 169.31008 157.55937 L 173.2101 158.20378 C 173.67464 158.28058 174.04541 158.43823 174.32218 158.6761 C 174.60498 158.91498 174.80016 159.19809 174.90715 159.52566 C 175.01415 159.85324 175.03833 160.19223 174.98053 160.54214 C 174.91473 160.94031 174.76259 161.28046 174.52371 161.56326 C 174.28584 161.84003 173.99174 162.04559 173.64108 162.17976 L 174.4617 164.80699 L 172.2174 164.43596 L 171.61278 162.18855 L 170.62628 162.02577 L 170.28108 164.11608 L 168.28068 163.78535 L 169.31008 157.55937 z M 48.195508 157.78365 L 49.160307 162.372 L 47.955729 162.6247 L 46.99093 158.03687 L 48.195508 157.78365 z M 38.664307 158.33711 C 38.921849 158.33811 39.186018 158.37581 39.455473 158.47508 C 40.682717 158.92726 40.91603 160.03895 41.127722 161.04392 L 41.779362 164.1383 L 40.574268 164.39203 L 39.86475 161.02531 C 39.79126 160.67644 39.711336 160.36042 39.579496 160.12408 C 39.447656 159.88773 39.282258 159.72327 38.96248 159.61868 C 38.637611 159.51245 38.301256 159.59089 37.875208 159.68069 L 36.640141 159.94114 L 37.060787 160.76383 L 36.676831 160.84496 C 36.637151 160.85296 36.296659 160.96874 36.099605 160.9726 C 36.035915 160.9736 35.948937 160.96661 35.865511 160.92971 C 35.712231 160.86111 35.63068 160.71205 35.59266 160.63722 C 35.57013 160.59282 35.510737 160.4584 35.506877 160.45067 C 35.338961 160.13089 35.128504 159.75738 34.984945 159.38717 L 35.202502 158.98513 L 37.439575 158.51384 C 37.824595 158.43274 38.235069 158.33468 38.664307 158.33711 z M 171.07483 159.31069 L 170.8552 160.64084 L 172.2577 160.87287 C 172.41456 160.89877 172.55756 160.86037 172.6861 160.75763 C 172.81563 160.64889 172.89714 160.49198 172.93105 160.28686 C 172.95195 160.16016 172.94639 160.04461 172.91399 159.94011 C 172.88169 159.8356 172.82769 159.74895 172.75225 159.68069 C 172.67775 159.60639 172.58644 159.56067 172.47784 159.54272 L 171.07483 159.31069 z M 38.057625 161.31987 C 39.337534 161.36847 40.084567 163.08097 39.05343 164.03702 C 38.900061 164.17919 38.715979 164.29492 38.509794 164.36568 C 36.954055 164.89862 35.681853 162.89283 36.908858 161.7524 C 37.085306 161.58839 37.291428 161.47421 37.507271 161.40152 C 37.649668 161.35352 37.791791 161.32709 37.932052 161.32039 C 37.974402 161.31839 38.016342 161.31839 38.057625 161.31987 z M 142.26625 167.8187 C 155.41044 169.86146 174.06224 173.64263 174.06224 173.64263 C 171.84044 180.45913 168.04649 186.93707 163.76623 192.64354 C 159.23106 198.68987 153.63206 204.10759 147.40909 208.40433 C 139.74249 213.69783 131.1328 217.57302 122.04578 219.65843 C 101.8486 224.29352 80.045124 219.89539 63.2349 207.75786 C 57.662264 203.73422 52.622715 198.88742 48.415649 193.45227 C 43.844988 187.54739 39.941409 181.05479 37.614758 173.91652 L 69.686186 168.19283 C 73.285964 174.35448 77.070008 178.86937 83.040409 182.94025 C 96.174114 191.89539 113.85853 192.08066 127.30024 183.70817 C 131.609 181.02437 135.42294 177.50485 138.46855 173.44368 C 139.46077 172.12061 140.36406 170.73543 141.18621 169.30129 C 141.43002 168.87602 141.74494 167.94938 142.26625 167.8187 z M 137.5575 186.88678 C 137.37393 186.89178 137.18838 186.91251 137.00094 186.94621 C 135.3969 187.23488 134.10444 188.22003 132.75675 189.06391 C 130.31121 190.59519 127.94008 192.24425 125.48123 193.75458 L 126.89561 196.18027 C 127.38555 196.08587 127.89991 195.63188 128.4025 195.89554 C 129.03228 196.22593 129.48262 197.21213 129.84582 197.79671 C 130.69085 199.15687 131.57253 200.50242 132.45393 201.83936 C 132.83351 202.4151 133.52371 203.15757 133.62027 203.85991 C 133.70747 204.4937 132.9223 204.64423 132.88336 205.18282 C 132.84956 205.6503 133.97384 207.43894 134.47861 207.35685 C 135.53329 207.18534 136.91804 205.86203 137.80916 205.27481 C 139.55105 204.12699 141.31816 203.01545 143.06414 201.87347 C 144.3217 201.05094 145.71275 200.15818 146.46393 198.80699 C 148.13773 195.79622 145.08328 192.33648 142.05334 192.44148 C 142.55432 189.74296 140.31106 186.79939 137.5575 186.88678 z M 73.655452 187.5224 C 72.291444 187.5648 70.94823 187.99227 69.702205 188.97244 C 68.818962 189.66726 68.097248 190.57408 67.519393 191.53198 C 66.985005 192.41781 66.46328 193.35305 66.203711 194.36126 C 65.040704 198.87857 68.364165 202.29778 72.026611 204.39321 C 73.433738 205.1983 74.888211 205.89253 76.472335 206.27216 C 76.944813 206.38539 77.710445 206.61233 78.180758 206.42616 C 78.532814 206.28679 78.728561 205.88085 78.917147 205.57763 C 79.3297 204.91429 80.95213 203.22837 80.104154 202.58143 C 79.676589 202.25522 78.837346 201.55152 78.291345 201.5169 C 77.797891 201.4857 77.27297 202.06001 76.775675 202.17474 C 75.700688 202.42275 74.449603 201.9138 73.542281 201.36445 C 72.611783 200.80109 71.705395 200.18916 71.039591 199.3129 C 69.037455 196.67794 71.30682 192.19749 74.349984 191.4555 C 77.465355 190.69587 81.569868 194.03597 80.919092 197.19055 L 83.34375 198.70622 C 83.883936 197.90548 84.393418 197.08561 84.927116 196.28104 C 85.155284 195.93707 85.555197 195.5111 85.513127 195.06871 C 85.372057 193.58528 83.208856 191.87336 82.131421 191.03847 C 79.756224 189.19795 76.656267 187.42911 73.655452 187.5224 z M 136.29349 190.84572 C 137.42493 190.77962 138.29239 192.10845 137.94042 193.14893 C 137.55644 194.28404 135.09519 195.81448 133.9696 196.07899 L 132.15059 193.2497 C 132.57721 192.73353 133.21387 192.43793 133.76703 192.07096 C 134.52765 191.56639 135.34244 190.90126 136.29349 190.84572 z M 88.1941 194.6646 L 87.688704 197.49389 C 88.255139 197.57059 88.887986 197.74773 88.987333 198.40339 C 89.09448 199.11057 88.817304 199.93629 88.679342 200.626 C 88.382671 202.1091 88.066483 203.5893 87.769836 205.07275 C 87.623769 205.80319 87.598332 206.88704 87.131632 207.49173 C 86.719381 208.02587 86.145078 207.87383 85.56687 207.80075 L 85.061475 210.63004 L 96.075789 212.833 L 101.5323 213.86343 L 102.64438 208.20538 L 99.814579 207.69947 C 99.674749 208.37699 99.52627 209.23569 98.90094 209.6456 C 97.93061 210.28167 95.424322 209.31979 94.358582 209.09318 C 93.748342 208.96343 92.217926 208.92017 91.795947 208.44878 C 91.378633 207.9826 92.061664 206.24276 92.175252 205.6784 L 93.125065 200.92934 C 93.242445 200.34235 93.282818 199.47315 93.774638 199.06123 C 94.167078 198.73253 94.702064 198.89873 95.166284 198.90827 L 95.67168 196.07899 L 88.1941 194.6646 z M 123.67979 194.66977 C 123.31322 194.65077 122.8213 194.83423 122.55118 194.8863 C 121.34124 195.1197 120.12793 195.35927 118.91316 195.56584 C 118.5463 195.62824 117.74681 195.63464 117.50135 195.95135 C 117.14846 196.40675 117.72861 198.19147 117.90288 198.70622 C 119.97992 198.32062 119.88613 200.72223 120.15081 202.24295 C 120.56438 204.61909 121.61433 207.54723 118.81187 208.87924 C 118.39917 209.07541 117.9489 209.20156 117.49825 209.2725 C 113.65422 209.87757 113.3011 206.2634 112.74867 203.4558 C 112.45455 201.96108 111.51822 199.80461 113.6587 199.51495 L 113.1533 196.68567 L 105.67572 197.99928 L 106.07983 200.82805 C 106.54436 200.82805 107.1919 200.70949 107.55571 201.06266 C 108.07579 201.56753 108.07007 202.585 108.20166 203.25374 C 108.56422 205.09638 108.78542 207.00461 109.30392 208.81103 C 110.40093 212.63282 114.32805 213.14391 117.70083 212.6232 C 121.68866 212.00753 125.07544 209.55081 124.42755 205.17352 C 124.187 203.54823 123.8173 201.94154 123.53561 200.32317 C 123.42721 199.70036 123.13027 198.93499 123.29015 198.30211 C 123.43893 197.71319 124.04801 197.5649 124.57224 197.49389 C 124.52654 196.91513 124.46218 195.13741 123.9914 194.76847 C 123.9101 194.70477 123.80199 194.67617 123.67979 194.66977 z M 140.70821 195.87797 C 140.8207 195.87597 140.93253 195.88194 141.04307 195.89864 C 142.17857 196.06415 142.83735 197.56413 142.18925 198.50365 C 141.36781 199.69451 138.97776 201.20002 137.6071 201.63679 L 135.78809 198.60545 C 137.13876 197.85629 139.02087 195.90631 140.70821 195.87797 z " /></g><path
     id="path1"
     style="display:inline;fill:#00004c;stroke:none;stroke-width:0.999996"
     d="m 106.44651,116.28515 c -2.24399,-0.0739 -4.32974,0.75197 -6.446707,1.47479 -0.54207,0.18508 -1.02704,-0.4797 -1.47111,-0.19866 -0.56997,0.36073 -1.06382,1.00908 -1.54384,1.48268 -0.3073,0.30319 -0.70742,0.58298 -0.92564,0.96241 -0.25433,0.44221 -0.0284,1.10748 -0.38817,1.49082 -0.50932,0.54273 -1.31513,1.09961 -1.95059,1.48771 -0.29842,0.18225 -0.80918,0.23419 -1.00664,0.54316 -0.365885,0.57255 -0.377569,1.68774 -0.49227,2.35491 -0.259597,1.50992 -0.605296,3.00569 -0.886078,4.51185 -0.126458,0.67834 -0.144772,1.65944 -0.472163,2.26822 -0.348584,0.64818 -1.870701,-0.11853 -2.224663,0.53096 -0.210707,0.38664 -0.202316,1.02286 -0.27293,1.45543 -0.175858,1.07727 -0.356779,2.1553 -0.555774,3.22851 -0.07339,0.39586 -0.03354,1.11735 -0.28662,1.44038 -0.244985,0.3127 -1.136438,0.0579 -1.498091,0.10862 -0.506435,0.071 -1.499183,0.89804 -1.73858,1.34456 -0.443591,0.82738 -0.578788,1.98819 -0.819963,2.89491 -0.502404,1.88883 -1.019836,3.77561 -1.548927,5.65716 -0.338016,1.20203 -0.520861,2.56597 -1.025219,3.70807 -0.500585,1.13355 -1.460011,2.27267 -1.738183,3.48085 -0.297803,1.29344 -0.09764,2.8434 -0.150984,4.17034 -0.09171,2.28114 -0.350363,4.63819 -0.244777,6.9191 0.03348,0.72339 1.069129,1.61004 1.501073,2.15944 0.604916,0.76938 1.219016,1.5318 1.829303,2.29695 0.283316,0.3552 0.709268,0.74321 0.871188,1.17288 0.168407,0.44686 0.08914,1.12941 0.11781,1.60906 l 2.938989,0.15103 c -0.367291,0.48638 -0.978244,0.86214 -1.26851,1.39554 -0.134049,0.24631 -0.07941,0.57826 -0.07588,0.84822 l 0.02355,1.79978 c 0.0033,0.25011 -0.05381,0.61068 0.08496,0.83205 0.128878,0.20559 0.432667,0.28782 0.641526,0.38436 0.526259,0.2432 1.040744,0.51249 1.572684,0.74309 1.848782,0.80152 3.66752,1.69158 5.481304,2.569 0.462885,0.22391 0.971765,0.56801 1.477045,0.67457 0.57365,0.12097 1.26251,0.0119 1.84753,0.004 l 3.64666,-0.0478 13.118987,-0.1717 4.54686,-0.0596 c 0.68415,-0.009 1.55016,0.12499 2.17638,-0.18351 2.07355,-1.02153 4.12649,-2.08667 6.21236,-3.08319 0.61469,-0.29369 1.23337,-0.588 1.8356,-0.90657 0.22513,-0.11908 0.55238,-0.22737 0.7045,-0.44158 0.22065,-0.31072 0.0821,-0.99072 0.0773,-1.35554 -0.008,-0.5982 0.1555,-1.52839 -0.075,-2.08337 -0.22664,-0.54591 -0.97358,-1.04193 -1.39245,-1.44997 0.345,-0.0405 0.69212,-0.15694 1.04013,-0.15574 0.38855,0.001 0.74269,0.10546 1.13768,0.0587 0.21628,-0.0256 0.59375,-0.008 0.75504,-0.17784 0.13939,-0.14704 0.0896,-0.43328 0.0872,-0.61725 -0.008,-0.61657 -0.0694,-1.31441 0.69139,-1.46492 1.13985,-0.22551 2.30352,-0.35415 3.45076,-0.5384 0.27592,-0.0443 0.991,-0.0428 1.10069,-0.35346 0.0904,-0.25595 0.0236,-0.6179 0.0199,-0.88595 -0.01,-0.7569 -0.0822,-1.51621 -0.12131,-2.27194 -0.12501,-2.41205 -0.13255,-4.83382 -0.29261,-7.24367 -0.046,-0.69128 -0.10086,-1.39029 -0.11655,-2.08281 -0.005,-0.21578 0.0692,-0.63811 -0.13683,-0.7817 -0.22597,-0.1575 -0.70108,-0.0139 -0.96334,-0.009 -0.01,-0.67693 0.0408,-1.58059 -0.17867,-2.22382 -0.18377,-0.53865 -0.4781,-1.03623 -0.78858,-1.52793 l 0.48443,1.12482 -1.67958,0.83044 -0.52688,-0.94856 1.09649,-0.45534 -0.76081,-1.97446 -1.60126,1.19691 -2.90261,-13.99995 1.16971,0.20347 c -0.009,-0.0144 -0.0169,-0.0285 -0.0259,-0.0424 -0.14843,-0.23296 -0.41969,-0.37909 -0.63723,-0.53915 -0.28298,-0.20823 -0.57757,-0.50271 -0.9083,-0.62978 -0.47551,-0.18269 -1.20057,-0.0405 -1.70553,-0.0339 -0.23342,-1.50316 -0.58858,-2.99462 -0.87668,-4.4885 -0.0925,-0.4796 -0.10228,-1.42354 -0.41351,-1.8059 -0.42501,-0.52211 -1.9643,0.21582 -2.24659,-0.48679 -0.25064,-0.62383 -0.31954,-1.36984 -0.47322,-2.02417 -0.36111,-1.53756 -0.69176,-3.08459 -1.02178,-4.629 -0.15132,-0.7081 -0.19763,-1.59942 -0.51154,-2.25448 -0.16734,-0.34916 -0.706,-0.39135 -1.01704,-0.55829 -0.66549,-0.35722 -1.43155,-0.89528 -1.99695,-1.39674 -0.43205,-0.38319 -0.22957,-1.05747 -0.51308,-1.51662 -0.26256,-0.42523 -0.73181,-0.74567 -1.09478,-1.08039 -0.44589,-0.41118 -0.84826,-0.91741 -1.34302,-1.27005 -0.45086,-0.32136 -0.70656,0.16856 -1.1337,0.24423 -0.33234,0.0588 -0.77986,-0.18016 -1.09291,-0.27997 -1.02639,-0.32728 -2.12212,-0.8307 -3.18688,-0.99385 -0.32758,-0.0502 -0.65127,-0.0792 -0.97185,-0.0898 z m -0.068,0.38331 c 0.31396,0.01 0.63048,0.0381 0.95,0.0865 1.42698,0.21648 2.78374,0.94645 4.1824,1.29118 0.41931,0.10338 0.71005,-0.43226 1.08841,-0.30537 0.25938,0.087 0.48049,0.38677 0.67068,0.57203 0.51355,0.50022 1.36459,1.04013 1.69179,1.68293 0.20535,0.4034 0.0917,0.93302 0.34595,1.31583 0.46671,0.70261 1.60926,1.1907 2.28692,1.68148 l 6.2e-4,0.0473 -0.5086,0.95408 c -0.73833,-0.29293 -1.37812,-1.21401 -1.92324,-1.77494 -0.26205,-0.26964 -0.60263,-0.51756 -0.79853,-0.84223 -0.18936,-0.31379 -0.1614,-0.70976 -0.31761,-1.03628 -0.20912,-0.43716 -0.88445,-0.91476 -1.28717,-1.17175 -0.74165,-0.47325 -1.78516,-0.68262 -2.61768,-0.9588 -0.95104,-0.31551 -1.95842,-0.85621 -2.95018,-1.00673 -2.14047,-0.32485 -4.1,0.40882 -6.04799,1.16382 -0.8736,0.33858 -1.991107,0.56602 -2.732127,1.15486 -0.3318,0.26367 -0.85117,0.60317 -1.04098,0.98947 -0.16929,0.34454 -0.12478,0.76344 -0.34429,1.09232 -0.25784,0.38629 -0.65175,0.69556 -0.96341,1.03841 -0.52239,0.57468 -1.00441,1.20892 -1.61484,1.69549 -0.0963,-0.28756 -0.49763,-0.67506 -0.45408,-0.97909 0.0338,-0.23597 0.40332,-0.42298 0.57616,-0.5516 0.46283,-0.34439 1.29584,-0.76697 1.56245,-1.28942 0.1987,-0.38936 0.064,-0.88347 0.24366,-1.27905 0.14338,-0.31569 0.46581,-0.53681 0.70821,-0.77236 0.4726,-0.45929 0.97196,-1.15813 1.54351,-1.48643 0.28054,-0.16113 0.55215,0.13464 0.8082,0.2214 0.21195,0.0719 0.41279,0.007 0.614977,-0.0652 2.05942,-0.7349 4.12913,-1.53846 6.32679,-1.46804 z m 0.81665,0.75643 1.6176,0.53322 3.66385,1.26523 0.001,0.0944 -0.89307,0.53277 c -0.52253,-0.5819 -1.58101,-0.81848 -2.28822,-1.12246 -0.69878,-0.30035 -1.45002,-0.74216 -2.19103,-0.9133 -0.7484,-0.17283 -2.1982,-0.16667 -2.93611,0.0468 -0.79477,0.22984 -1.6061,0.71004 -2.35461,1.06552 -0.64509,0.30636 -1.53403,0.54007 -2.022857,1.07783 l -0.90671,-0.50922 2.309067,-0.9251 2.9702,-1.08392 1.89421,-0.0269 z m -2.33848,0.7406 c 0.23445,10e-4 0.47002,0.0145 0.69033,0.0116 -0.092,0.73455 -0.32816,0.69481 -0.94015,0.53339 0.23076,0.59714 0.17972,0.73229 -0.46185,0.90609 0.17742,0.24085 0.44099,0.28703 0.7154,0.36961 l -0.2269,0.76062 0.7538,-0.29409 0.19937,0.75533 c -0.63135,0.27071 -2.06449,0.43954 -2.16229,1.25995 -1.1605,-0.35501 -2.28245,-1.30397 -3.34083,-1.89849 0.21102,-0.71632 0.82176,-0.84266 1.45355,-1.14302 0.82443,-0.39195 1.75119,-0.98156 2.6371,-1.19812 0.2149,-0.0526 0.44802,-0.0638 0.68247,-0.0628 z m 0.87979,0.009 1.37396,0.0153 4.09633,1.7132 0.10152,0.51976 -3.29,1.98498 c -0.1742,-0.66563 -0.90128,-0.77475 -1.48105,-0.95963 -0.18865,-0.0602 -0.57071,-0.11018 -0.65788,-0.31668 -0.0874,-0.20698 0.0734,-0.52889 0.12304,-0.73398 l 0.76152,0.27425 -0.29347,-0.70672 0.7547,-0.24673 -0.76276,-0.369 0.22814,-0.66617 c -0.60887,0.15646 -0.84062,0.23823 -0.95408,-0.50859 z m -0.0879,0.52223 c 0.1568,0.38351 0.26809,0.49412 0.66742,0.32286 -0.11018,0.40923 0.0484,0.44964 0.38696,0.61077 -0.39308,0.23616 -0.49527,0.3212 -0.27426,0.76152 -0.51473,-0.21215 -0.52508,-0.052 -0.75284,0.38883 l -0.19752,-0.61325 -0.51761,0.24365 0.18173,-0.57085 -0.52195,-0.088 0.51761,-0.24362 -0.14767,-0.42442 0.42874,0.18387 z m 0.008,0.56836 0.048,0.0467 z m 6.78874,1.1428 6.2e-4,0.0473 c -1.35565,0.90132 -2.75672,1.73452 -4.13433,2.60153 -0.64351,0.405 -1.46946,0.78506 -1.97176,1.36253 2.76715,0.0811 5.58446,0.14622 8.34209,0.38579 0.59357,0.0516 1.20564,0.0912 1.80136,0.0964 0.33045,0.003 0.6649,-0.0227 0.71541,0.37046 l -4.74012,-0.23022 -5.49806,-0.25161 c 0.21577,0.32934 0.58648,0.47995 0.90904,0.68689 0.54558,0.35004 1.08148,0.71726 1.62465,1.07144 2.0738,1.35226 4.18002,2.65417 6.25768,4.00035 0.69848,0.45255 1.40052,0.89929 2.10196,1.34712 0.19792,0.12636 0.66458,0.31976 0.60835,0.61303 -0.12691,0.66188 -0.75261,0.56987 -1.25646,0.53925 -1.26343,-0.0768 -2.52855,-0.1322 -3.79235,-0.20303 -2.46207,-0.13795 -7.46998,-0.41499 -7.46998,-0.41499 l -9.956517,0.81416 c -0.5127,0.042 -1.05258,0.18538 -1.33078,-0.33513 l 11.271727,-0.85751 12.03035,0.59992 c -0.14586,-0.44782 -0.86732,-0.73435 -1.24416,-0.97851 -1.16023,-0.75173 -2.31851,-1.50748 -3.48749,-2.2454 -1.82625,-1.15281 -3.62543,-2.35005 -5.44598,-3.51228 -0.46201,-0.29495 -0.92987,-0.58445 -1.3854,-0.8891 -0.18654,-0.12474 -0.42808,-0.35062 -0.66764,-0.33922 -0.28391,0.0141 -0.61841,0.3345 -0.84599,0.4888 -0.66026,0.4477 -1.31695,0.90212 -1.97182,1.35766 -2.16336,1.50481 -4.351357,2.97435 -6.525887,4.46308 -0.9297,0.63649 -1.89247,1.63039 -3.05759,1.64573 l -6.2e-4,-0.0473 7.887687,-5.37693 2.2536,-1.54538 1.0784,-0.85099 -10.222687,0.70224 0.0436,-0.28481 c 3.53711,-0.51766 7.182457,-0.50589 10.742157,-0.80378 -0.48684,-0.5765 -1.32007,-0.91612 -1.959,-1.30362 -1.39283,-0.84474 -2.80162,-1.66674 -4.201377,-2.4999 0.66047,-0.19939 1.369827,0.42581 1.904577,0.74306 1.14252,0.67784 2.28913,1.351 3.43715,2.01954 0.37875,0.22057 0.98895,0.75647 1.43101,0.77595 0.4992,0.022 1.23306,-0.6864 1.64569,-0.93881 1.06941,-0.65414 2.12719,-1.32816 3.19527,-1.9849 0.61757,-0.37971 1.13503,-0.8284 1.88358,-0.83885 z m -13.780827,0.27505 2.578627,1.5737 3.38947,1.99548 6.2e-4,0.0473 c -0.68129,0.007 -1.18676,-0.35187 -1.76165,-0.6812 -0.99543,-0.57027 -1.97912,-1.16985 -2.960097,-1.76481 -0.40028,-0.24277 -1.39477,-0.59018 -1.24697,-1.17055 z m 14.066867,-0.13676 c -0.0979,0.64132 -0.76804,0.86891 -1.26351,1.18589 -0.88795,0.56805 -1.79117,1.11217 -2.67784,1.68212 -0.61939,0.39814 -1.1716,0.84465 -1.93102,0.85614 l -6.1e-4,-0.0473 z m -14.152297,0.84812 4.631397,2.78165 6.2e-4,0.0473 c -2.07984,0.23582 -4.248627,0.43057 -6.341397,0.46196 0.11127,-0.60919 -0.0712,-1.41149 0.17387,-1.98267 0.21521,-0.50162 1.09367,-1.00504 1.53551,-1.30803 z m 14.210277,-0.0367 c 0.39901,-0.0215 1.30461,0.71056 1.51958,1.02887 0.33732,0.49947 0.16776,1.48253 0.27368,2.06697 l -4.07593,-0.17547 -2.22803,-0.12099 c 0.90802,-0.83881 2.19171,-1.43173 3.24106,-2.0834 0.33734,-0.20948 0.86637,-0.69419 1.26964,-0.71598 z m -19.251387,2.14009 c -0.0566,0.85478 -0.29327,1.72206 -0.44964,2.56392 -0.28533,1.53615 -0.56432,3.07412 -0.871635,4.60612 -0.148132,0.73845 -0.03288,2.10393 -0.97247,2.14442 0.471034,-2.32355 0.916704,-4.65195 1.358195,-6.98103 0.14316,-0.75524 0.10361,-2.06775 0.93555,-2.33343 z m 24.390797,-0.31922 c 0.8497,0.15805 0.82646,1.49774 0.98558,2.21356 0.51462,2.31487 1.01314,4.63316 1.55019,6.94297 -0.94019,-0.0327 -0.87816,-1.37426 -1.04864,-2.11798 -0.37398,-1.63147 -0.72758,-3.27085 -1.0542,-4.91251 -0.14013,-0.7043 -0.36982,-1.40928 -0.43293,-2.12604 z m -24.152747,0.41089 c 0.63137,0.79096 0.27414,1.36969 0.1394,2.2717 -0.24394,1.63309 -0.51976,3.26076 -0.79098,4.88957 -0.0737,0.44279 -0.14901,0.88463 -0.21315,1.3289 -0.0251,0.17354 -0.0274,0.43584 -0.18431,0.54934 -0.16211,0.11725 -0.442236,0.0746 -0.631464,0.0772 0.09647,-1.56305 0.570304,-3.16176 0.857194,-4.70067 0.2678,-1.43651 0.38929,-3.02426 0.82331,-4.416 z m 23.870107,-0.31239 0.0947,-0.001 c 0.0508,0.82263 0.30872,1.65299 0.48261,2.45669 0.46407,2.145 1.12093,4.34127 1.3873,6.51878 l -0.75842,-0.0374 -1.11013,-6.04868 -0.26977,-1.41761 -0.19496,-0.66035 z m -22.020467,0.47766 0.061,1.04108 -1.13609,0.0625 c 0.23547,-0.41871 0.66268,-0.85724 1.07509,-1.10361 z m 20.317867,-0.26591 1.05687,1.12309 -1.18531,-0.0792 z m -10.3075,1.46101 c 0.0119,0.9973 -1.67194,1.70038 -2.43413,2.20662 -1.88362,1.25112 -3.730567,2.56468 -5.586397,3.85706 -1.01839,0.70921 -1.86796,1.53877 -3.15336,1.56691 1.9518,-1.5877 4.21453,-2.89142 6.290987,-4.31386 1.58487,-1.08569 3.17049,-2.44861 4.8829,-3.31673 z m 0.23682,-0.003 11.41741,7.33494 6.1e-4,0.0473 c -0.35281,-0.0423 -0.75747,-0.0123 -1.09141,-0.14391 -0.84722,-0.33391 -1.67054,-1.06618 -2.43638,-1.56237 -1.80246,-1.16783 -3.57759,-2.37763 -5.39867,-3.51635 -0.64283,-0.40197 -1.27476,-0.82325 -1.91101,-1.23563 -0.37025,-0.23997 -0.71541,-0.43022 -0.58054,-0.92374 z m -3.02165,0.75012 6.3e-4,0.0476 c -0.9027,0.62448 -1.81828,1.23001 -2.7233,1.85125 -0.246587,0.16926 -0.707277,0.64532 -1.029007,0.58881 -0.2408,-0.0423 -0.44811,-0.36753 -0.60188,-0.53589 -0.45982,-0.50342 -0.98315,-0.98464 -1.37274,-1.54529 z m 5.77863,-0.028 1.75301,0.0213 3.98134,0.18761 c -0.33064,0.59719 -0.89716,1.12204 -1.35245,1.62833 -0.1436,0.15968 -0.32955,0.46336 -0.5629,0.49025 -0.31512,0.0364 -0.79277,-0.41966 -1.04862,-0.58114 -0.92058,-0.58103 -1.82074,-1.21422 -2.77038,-1.74634 z m -12.782487,0.54598 -0.50885,4.55428 -0.0947,0.001 c -0.19498,-0.9864 -0.54525,-1.95386 -0.80198,-2.92651 -0.13281,-0.50314 -0.31147,-0.98767 -0.25091,-1.5126 z m 19.891607,-0.26034 1.65866,0.0731 h 2.9e-4 c -0.0555,1.46216 -0.69042,2.98564 -0.98434,4.4184 l -0.0474,6.2e-4 z m -12.43793,1.53654 c 0.31411,0.46459 0.819,0.59959 1.3358,0.74046 1.14186,0.31127 2.85295,0.26187 3.68502,-0.7588 0.71804,0.30881 1.92137,0.94891 2.38922,1.57936 -1.63457,0.15139 -3.18663,1.10121 -4.81606,1.20683 -0.51754,0.0335 -1.11574,-0.22503 -1.61487,-0.34664 -1.10496,-0.26924 -2.21195,-0.5513 -3.32618,-0.77986 0.48283,-0.63599 1.62375,-1.3105 2.34707,-1.64135 z m 11.41392,-0.14937 0.0947,-0.001 0.31642,2.45916 -1.57662,-1.02154 z m -17.901737,0.28163 c 0.27508,0.24032 1.14929,0.96413 1.11814,1.35197 -0.0306,0.38013 -1.11263,0.88573 -1.41807,1.06789 0.0256,-0.75733 0.085,-1.69338 0.29993,-2.41986 z m 20.944467,0.57858 c 0.10665,1.21202 0.40802,2.50736 0.71142,3.68535 -0.3722,-0.13972 -1.17577,-0.5263 -1.35393,-0.89755 -0.10043,-0.20924 0.0452,-0.53326 0.0951,-0.74369 0.15598,-0.65935 0.25175,-1.43276 0.54745,-2.04411 z m -23.869197,0.35974 c 0.15154,0.65103 0.35895,1.29215 0.54181,1.93512 0.0632,0.22241 0.2347,0.55681 0.15042,0.78783 -0.13828,0.379 -1.00592,0.80403 -1.35433,0.98066 l 0.42183,-2.51619 z m 5.75295,1.63007 1.445687,1.87593 -2.224207,0.17121 c 0.18909,-0.65859 0.39784,-1.47429 0.77852,-2.04714 z m 12.313807,-0.16116 0.0948,-0.001 0.78446,2.02669 -2.22763,-0.11295 z m -10.98702,0.19114 c 1.04167,0.35333 2.16151,0.5399 3.2316,0.79258 0.52965,0.12508 1.1624,0.38899 1.70972,0.35517 1.6236,-0.10032 3.20504,-0.99572 4.81579,-1.22807 -0.28728,0.44899 -0.78727,1.4434 -1.27261,1.67407 -0.43525,0.20687 -1.26158,-0.0145 -1.73755,-0.024 -1.30244,-0.0261 -2.53344,-0.0273 -3.83608,0.0532 -0.45885,0.0282 -1.21306,0.25326 -1.64334,0.0658 -0.39701,-0.17305 -1.1775,-1.2718 -1.26753,-1.68821 z m 12.51255,0.54682 c 0.59026,0.42674 1.50904,0.7783 1.91312,1.3961 -0.37657,0.004 -0.96621,0.0669 -1.31181,-0.0931 -0.31151,-0.14422 -0.59167,-0.9788 -0.60131,-1.30303 z M 98.183673,131.016 c -0.0602,0.32802 -0.19067,1.06798 -0.48243,1.2638 -0.31769,0.21323 -1.0218,0.12965 -1.39382,0.13452 0.35508,-0.58011 1.28376,-1.08085 1.87625,-1.39832 z m 20.768317,1.57567 3.84074,0.28134 0.79485,4.15797 0.37542,2.03205 c -0.91397,-0.14106 -1.87381,-0.13638 -2.79713,-0.19249 -0.27597,-0.0167 -0.82182,0.0561 -1.05136,-0.11028 -0.31026,-0.22489 -0.31534,-1.22398 -0.38018,-1.58411 -0.27338,-1.51861 -0.60556,-3.05158 -0.78234,-4.58448 z m -24.816447,0.37206 c -0.0517,1.50627 -1.00814,7.34204 -1.2155,7.57348 -0.23187,0.17238 -4.309448,0.40927 -5.216795,0.4214 0.254838,-1.87037 0.589682,-3.74338 0.922057,-5.60158 0.08194,-0.45808 0.154636,-0.91772 0.230897,-1.37677 0.0273,-0.16436 0.02957,-0.43404 0.168223,-0.5497 0.283296,-0.23635 1.109988,-0.16576 1.467555,-0.18229 1.215032,-0.0562 2.427633,-0.25792 3.643563,-0.28454 z m 11.873117,-0.13906 11.63349,0.4386 -0.15877,0.56967 -11.46358,-0.61824 c 0,0 -6.635507,0.44334 -8.747127,0.56148 -0.63964,0.0357 -1.71922,0.3963 -2.13444,-0.20978 z m 12.70963,0.007 c 0.25073,1.31896 0.42876,2.65182 0.68558,3.96992 0.11837,0.60753 0.4263,1.46577 0.3169,2.08017 -0.0765,0.42968 -0.54746,0.99778 -0.85905,1.29027 -0.058,-1.38366 -0.34744,-2.79017 -0.53679,-4.16164 -0.0846,-0.61283 -0.33889,-1.42178 -0.23217,-2.03363 0.0673,-0.38596 0.3978,-0.83146 0.62553,-1.14509 z m -24.295467,0.36532 c 0.19403,0.30917 0.65924,1.01374 0.65924,1.01374 l -1.11634,7.16536 -0.64353,-0.82244 c 0.32505,-2.23007 1.05813,-7.24092 1.10063,-7.35665 z m 11.277077,0.23168 3.69713,0.18847 c 0.31408,3.71851 1.19489,7.41505 1.71725,11.10916 0.12267,0.86753 0.25599,1.7343 0.39088,2.60001 0.0223,0.14338 0.0242,0.80764 0.25389,0.775 0.19478,-0.0277 0.39396,-0.32233 0.52147,-0.45354 0.4281,-0.44056 0.83252,-0.9026 1.26144,-1.34291 1.24661,-1.27967 2.44455,-2.60502 3.69148,-3.88508 0.45609,-0.46822 1.07403,-1.43667 1.68426,-1.67773 0.27378,-0.10819 0.69859,-0.0113 0.99345,-0.0151 -1.44323,1.91129 -3.31129,3.62767 -4.9542,5.37097 -0.50705,0.53803 -1.01807,1.07509 -1.5072,1.62949 -0.20467,0.23198 -0.51724,0.46627 -0.62186,0.76608 -0.22655,0.64913 0.0877,1.9016 0.34917,2.50609 -0.44224,0.005 -1.49228,0.12531 -1.85676,-0.13963 -0.46096,-0.33506 0.1142,-1.18818 -0.7188,-1.19927 -2.00253,-0.0268 -4.01193,0.0515 -6.01454,0.0777 -1.03281,0.0135 -2.20129,-0.12419 -3.21796,0.0539 -0.57477,0.10064 -0.20391,0.86402 -0.51357,1.16572 -0.31207,0.30407 -1.420097,0.22145 -1.839047,0.22706 0.21679,-0.64272 0.51396,-1.84665 0.28549,-2.51441 -0.21855,-0.63877 -1.10602,-1.25243 -1.56468,-1.73226 -1.06756,-1.11684 -2.16579,-2.20405 -3.2334,-3.32074 -0.42526,-0.44481 -0.93985,-0.84628 -1.28845,-1.3569 0.30285,-0.005 0.7053,-0.12343 0.9929,-0.0127 0.47453,0.18267 0.93943,0.86648 1.29635,1.2144 1.05269,1.02611 2.09029,2.07869 3.11496,3.1331 0.40387,0.41558 0.80426,0.83353 1.21377,1.24389 0.13026,0.13054 0.309167,0.39487 0.508677,0.41251 0.26337,0.0234 0.26115,-0.61411 0.28058,-0.78286 0.10021,-0.87061 0.21488,-1.74137 0.33391,-2.60949 0.50803,-3.70543 0.79802,-7.45728 1.38374,-11.14976 z m -3.69059,0.33252 c -0.0156,0.99317 -0.19193,2.00412 -0.31949,2.98828 -0.0339,0.26099 0.007,0.84432 -0.2276,1.01356 -0.1802,0.13005 -0.51234,0.0966 -0.72537,0.11973 -0.59873,0.0649 -1.200947,0.0944 -1.797437,0.18172 l 0.32531,-4.07789 z m 7.71988,-0.10108 2.18055,0.11358 c -0.0436,0.16392 -0.0906,0.39133 -0.25965,0.47337 -0.1864,0.0905 -0.48531,0.002 -0.68183,-0.02 -0.50273,-0.0565 -1.17524,0.0675 -1.23907,-0.56689 z m 2.70126,0.10676 5.31024,0.35685 0.58849,4.49227 0.20535,1.89216 c -1.66225,-0.25655 -3.53065,-0.19066 -5.21275,-0.16864 -0.27912,-1.46834 -0.43659,-2.96635 -0.6605,-4.44425 -0.0939,-0.6198 -0.37631,-1.51643 -0.23083,-2.12839 z m -13.449617,0.22337 c -0.008,2.19534 -0.28355,4.56567 -0.62243,6.73456 l -3.8333,0.28703 0.90722,-6.69092 z m 13.170397,0.15924 0.63676,4.539 0.22358,1.74981 -0.2931,0.85652 -0.0473,6.1e-4 c -0.18318,-1.61111 -0.42117,-3.2169 -0.6402,-4.82347 -0.10927,-0.80122 -0.36155,-1.59927 0.12033,-2.32247 z m -10.65326,3.9762 -0.0841,0.8064 -1.940037,0.16751 -0.43618,-0.75223 z m 4.50568,0.45866 c -0.19007,-5.7e-4 -0.37963,0.009 -0.56774,0.0325 -0.50485,0.0621 -1.00895,0.13333 -1.51294,0.20211 -0.18021,0.0246 -0.46293,0.0111 -0.58253,0.17499 -0.31232,0.42649 -0.22344,1.48286 -0.28044,2.00073 -0.18797,1.70791 -0.39463,3.4137 -0.56772,5.12322 -0.0497,0.49098 -0.1196,0.98099 -0.17971,1.47086 -0.0219,0.17844 -0.10458,0.47054 0.005,0.63154 0.20867,0.30534 1.38949,0.10818 1.72939,0.1037 l 3.69403,-0.0483 c 0.59313,-0.008 1.25953,0.0682 1.84357,-0.036 0.4078,-0.0727 0.22295,-0.6074 0.18413,-0.89069 -0.12958,-0.94603 -0.25804,-1.89334 -0.40546,-2.83668 -0.87702,-5.61166 -0.57063,-5.31383 -0.86143,-5.62588 -0.16086,-0.17263 -0.57401,-0.13609 -0.79101,-0.15818 -0.56163,-0.0572 -1.13735,-0.14335 -1.70754,-0.14388 z m -7.183407,0.35527 0.38698,-0.002 -0.27569,2.86883 -4.32128,0.2716 -0.0814,-0.7827 4.02584,-0.2729 z m 6.965027,0.0251 c -0.33855,0.0211 -0.64331,0.18699 -0.71677,0.53506 -0.46115,0.007 -1.28123,0.21165 -1.4723,-0.31234 0.73914,-0.18238 1.46396,-0.22954 2.18907,-0.22272 z m 0.19068,0.003 c 0.76246,0.0165 1.52633,0.0848 2.30829,0.11103 -0.12127,0.58863 -0.99099,0.39195 -1.4633,0.39814 -0.12791,-0.29254 -0.48484,-0.47637 -0.84499,-0.50917 z m 0.0477,0.2302 c 0.25285,0.009 0.48608,0.11868 0.52952,0.3373 0.11694,0.58843 -0.43505,0.67125 -0.39794,1.02957 0,0 -0.0109,2.80671 0.0674,4.26999 l 0.60699,-0.0163 0.0269,1.00563 1.68497,-0.0221 -0.20388,-6.14582 1.19913,8.26422 -6.96208,0.0911 0.9375,-8.3493 -0.0236,6.09223 1.71058,0.091 -0.013,-0.99461 0.58598,-0.0203 -0.038,-4.24826 c -0.004,-0.42208 -0.46802,-0.41842 -0.42028,-0.94135 0.0274,-0.3009 0.38486,-0.45467 0.70994,-0.4428 z m 13.95439,-0.0663 3.89353,0.16925 c -0.20448,0.32768 -0.49723,1.02879 -0.85745,1.19321 -0.2796,0.12761 -0.76943,-0.005 -1.06945,-0.0231 -0.92753,-0.0526 -1.86778,-0.16909 -2.79672,-0.16092 z m -11.92734,0.1868 0.048,0.0468 z m -21.198557,1.19728 -2.987344,13.96708 0.274743,1.13991 1.390972,3.04801 0.05318,12.00429 -1.350169,0.0696 -0.161169,-12.31495 -1.489052,-2.57904 -0.607555,-2.74647 1.354929,0.29407 2.642012,-12.5595 z m 38.714397,-0.47337 0.78582,3.88505 -2.33612,1.20653 -0.41647,-3.7429 z m 2.06409,0.14237 2.5056,12.07182 0.88695,-0.71585 c -0.84538,-2.57401 -1.53869,-5.20964 -2.31623,-7.80316 -0.24961,-0.83256 -0.48114,-1.67087 -0.7387,-2.501 -0.10348,-0.33349 -0.16524,-0.7401 -0.33762,-1.05181 z m -40.25553,0.584 0.628283,0.49104 h 2.86e-4 c 0.387181,-0.0906 0.827121,-0.0628 1.218142,-0.0888 0.820469,-0.0546 1.638777,-0.14536 2.461073,-0.17001 0.305433,-0.009 0.673982,-0.0983 1.006799,-0.0918 0.11093,0.001 0.21787,0.0149 0.31725,0.0447 0.33878,0.10163 0.65225,0.58008 0.81846,0.87269 l -3.597047,0.24172 -1.127367,0.0489 0.26947,0.21065 0.359057,5.60807 -1.194983,0.0156 -0.01005,5.19717 -3.611017,0.0734 z m 26.74187,-0.1869 c 0.36849,0.0129 0.76293,0.0705 1.0092,0.0919 1.06199,0.0922 2.15622,0.0877 3.2222,0.0738 -0.20209,0.31421 -0.58831,0.77614 -0.9353,0.92607 -0.36088,0.15594 -0.89742,0.01 -1.27896,0.004 -1.06929,-0.0143 -2.15402,-0.16027 -3.22228,-0.10163 0.0628,-0.27927 0.19176,-0.77238 0.4742,-0.90568 0.0991,-0.0468 0.23007,-0.0723 0.37759,-0.0839 0.11063,-0.009 0.23052,-0.009 0.35335,-0.005 z m 6.61533,0.17754 c 0.23667,0.001 0.49236,0.0451 0.69562,0.0426 l -1.26949,1.62723 -0.12349,1.13823 -0.14913,2.53503 -0.6016,-2.61994 c -0.83672,0.86263 -1.52721,1.84803 -2.33798,2.73075 -0.6514,0.70921 -1.59642,1.51513 -2.00045,2.39474 l 6.08157,0.96373 c 0,0 0.11562,-1.80583 0.15017,-2.3243 0.1387,-2.08806 0.50766,-4.31172 0.39339,-6.39998 l 0.94789,0.035 c 0.0378,2.97626 -0.35836,5.88314 -0.52895,8.85384 l 0.88448,0.23619 -0.0294,1.37415 -9.63582,-1.53188 c -0.0109,-0.36796 -0.18162,-0.87911 -0.06,-1.23058 0.23619,-0.68247 1.22731,-1.44946 1.72387,-1.96477 1.27086,-1.31888 2.47777,-2.69912 3.73811,-4.02781 0.47403,-0.49975 1.09808,-1.49629 1.73101,-1.76993 0.11296,-0.0488 0.24815,-0.0631 0.39022,-0.0623 z m -2.68184,0.14995 0.0318,0.0154 z m 3.23689,0.80113 -0.60847,7.36197 -1.37917,-0.28225 -0.0576,-0.69115 0.7212,0.13238 0.51,-5.67283 z m -28.901822,0.59357 c 0.110544,-0.005 0.224885,0.008 0.357335,0.0579 0.48939,0.18833 0.88131,0.80895 1.24722,1.16765 1.01276,0.99284 1.97045,2.04142 2.97737,3.03988 0.61687,0.6117 1.52223,1.3035 1.95451,2.05875 0.20536,0.35878 0.027,0.97283 0.0315,1.37335 l -6.28507,1.14682 -3.355346,0.58968 c 0.0017,-0.3206 -0.139826,-0.97338 0.05267,-1.24008 0.1981,-0.27448 0.784849,-0.0494 0.824275,-0.48135 0.03546,-0.38856 -0.663988,-7.38753 -0.663988,-7.38753 l 0.84963,-0.18911 0.731815,7.54654 c 0,0 3.907764,-0.63896 6.125734,-1.14674 -0.65706,-0.95143 -1.57083,-1.76035 -2.34058,-2.62214 -0.70867,-0.79343 -1.24388,-1.68842 -2.09591,-2.33309 l -0.803253,2.89958 -0.195525,-4.41013 c 0.229851,-0.005 0.403388,-0.0615 0.587634,-0.07 z m -1.582407,0.22513 0.731844,0.002 c 0,0 0.184363,3.73862 0.154435,5.61418 l 0.344142,0.0811 0.0304,-0.22261 3.253971,-0.83354 0.17302,0.25583 -3.401227,0.81337 0.779867,0.1833 -0.2704,0.94722 -1.134095,0.3028 c -0.397852,-2.36582 -0.504916,-4.75643 -0.66195,-7.1441 z m 1.286578,5.71076 -0.05616,-0.013 -0.0037,0.0273 z m 0.778254,-3.55872 0.36575,0.37189 -0.68192,2.32006 -0.534961,0.23409 0.805691,-2.8887 z m 33.864337,0.19676 1.95828,9.23499 -2.84281,1.80113 -1.81613,-9.60435 z m -15.28581,0.86697 2.26968,0.0125 -0.24614,0.25587 -1.98553,0.003 z m -10.83518,0.16764 -0.041,0.31578 -1.973987,0.0732 -0.32539,-0.3374 z m 2.36453,0.15223 -0.0749,1.51658 2.24782,-0.31883 0.0622,-0.51643 c 0.50116,0.10545 1.15719,0.0833 1.65772,-0.0216 l 0.0757,0.51951 2.2556,0.255 -0.16604,-1.41321 c 0,0 -1.26961,-0.0362 -1.60559,-0.0318 -1.47979,0.0193 -2.97767,0.0873 -4.45246,0.0109 z m 0.12737,0.23375 5.78984,-0.027 0.0344,0.23641 -5.83465,0.0255 z m 8.40992,-0.0691 1.79922,-0.0233 -0.21598,0.25719 -1.54198,0.0233 z m -10.98023,0.1839 -0.0197,0.2288 -1.565127,0.0544 -0.22256,-0.2239 z m 16.56149,-0.0459 2.77016,0.78658 -0.0426,0.36489 -2.92249,-0.86469 z m -21.936517,0.48663 0.14253,0.25108 -3.280045,0.83732 0.06671,-0.27763 z m 21.656087,-0.0647 c 0,0 1.81876,0.57414 2.96899,0.88502 l -0.0445,0.30405 -3.15536,-0.95494 z m -22.953487,1.33682 0.39192,0.98966 -0.7092,0.10393 z m 24.438167,-0.31984 0.27863,1.06321 -0.65419,-0.10195 z m -16.691,2.30306 0.28417,-0.003 0.85378,0.0179 c 0.46658,-0.0356 0.70892,-0.0383 0.70892,-0.0383 l 1.75243,-0.023 0.0474,-6.3e-4 4.49921,-0.0589 c 0,0 0.34262,0.32187 0.66432,0.0861 l -0.61696,-0.0868 0.75781,-0.01 c -0.25683,0.52996 -1.43345,0.32211 -1.93791,0.32855 -1.75439,0.0224 -3.51473,0.1013 -5.27035,0.0811 -0.51753,-0.007 -1.45056,0.23221 -1.74278,-0.29243 z m -0.23434,0.19255 c 0.21926,0.31067 0.54718,0.62503 0.6761,0.98596 0.18527,0.51868 0.0477,1.25854 0.0233,1.79979 -0.49081,-0.70413 -1.00722,-1.94415 -0.69937,-2.78575 z m -2.509607,0.0803 -0.0491,0.37129 -4.60422,0.74383 -0.66107,0.73301 5.86959,0.93405 0.0369,0.36642 c 0,0 -5.75255,-0.84488 -8.19499,-1.34375 0.184717,0.27466 3.83354,2.99968 3.83354,2.99968 l 1.63039,0.36998 -0.0785,0.32372 -2.34656,-0.46884 -1.73341,-1.20064 -3.012443,-2.14366 c 3.082113,-0.66607 9.305443,-1.68438 9.309763,-1.68509 z m 14.397777,-0.18843 c 0,0 6.24588,1.28467 9.39714,1.3929 -0.87979,0.97048 -4.49523,3.40046 -4.59709,3.43815 -0.59253,0.21924 -1.85245,0.33485 -2.47608,0.40564 l -0.0291,-0.29103 c 0.35422,-0.11496 1.74615,-0.1951 1.74615,-0.1951 l 3.55877,-3.14466 -8.03007,1.71542 0.12314,-0.41904 6.5107,-1.4116 -6.10676,-1.00158 z m -2.50962,0.0802 0.0947,-0.001 c 0.0852,1.01825 -0.32269,1.75608 -0.62775,2.70838 l -0.0473,6.2e-4 -0.0236,-1.79979 z m -10.21396,1.06216 c 0.15721,0.003 0.29378,0.0268 0.39158,0.0859 0.38075,0.23013 0.59827,1.26562 0.7643,1.67067 l -1.989257,0.026 -0.6365,-1.60229 c 0.34234,-0.005 0.998267,-0.18864 1.469877,-0.18029 z m 10.69998,-0.12112 1.84874,0.11792 c -0.0722,0.39048 -0.28781,1.31438 -0.62741,1.54992 -0.39095,0.27116 -1.4392,0.0877 -1.90884,0.094 z m -20.84904,2.14961 1.313388,2.07749 -1.102268,0.0144 z m -1.858589,0.22559 7.745262,16.00942 1.24451,-0.22416 0.46664,3.89154 -11.475505,0.77376 -0.351856,-3.06161 8.038371,-1.30038 -6.734017,-14.20389 -2.648669,0.13887 -0.438769,-1.76133 z m 7.699662,-0.0886 0.19711,1.26267 -0.86211,-0.19399 z m 3.989377,-0.032 c 0.16273,-0.003 0.33285,0.016 0.43744,0.0146 l 2.32079,-0.0304 9.42467,-0.12334 h 2.9e-4 l 0.1773,2.84281 0.1277,2.36374 c -1.2889,0.30658 -2.88917,0.0851 -4.21469,0.1025 l -8.714517,0.11404 c -0.0165,-1.26381 0.0143,-2.5265 -0.002,-3.78937 -0.004,-0.32128 -0.15904,-1.11533 0.0509,-1.37414 0.0742,-0.0916 0.229607,-0.11726 0.392327,-0.12055 z m -0.651287,0.0764 0.0202,5.16291 c -0.32429,-9e-4 -1.2775,0.0468 -1.49689,-0.2167 0,0 0.0955,-4.20791 0.12791,-4.46346 0,0 1.00859,-0.41372 1.34879,-0.48275 z m 25.148087,0.15693 0.5439,2.24775 -2.09734,0.95852 -1.62237,12.74655 3.36064,0.36341 -0.33124,3.05446 -8.81967,0.21674 0.35944,-4.38667 4.46427,0.56258 2.1345,-15.53725 z m -3.24881,0.54781 0.23726,1.80706 -0.89728,-0.11688 z m -28.464467,0.75495 1.05105,0.67901 0.95431,0.52638 c -0.7597,0.01 -1.0542,0.55988 -0.2724,0.90362 l 6.2e-4,0.0474 c -0.18505,0.0445 -0.46881,0.0232 -0.59703,0.18582 -0.42702,0.54164 -0.0392,1.23286 0.56826,1.23569 l 6.2e-4,0.0473 c -0.16066,0.0891 -0.3994,0.16887 -0.49631,0.33522 -0.33095,0.56812 0.42724,0.75957 0.79413,0.70305 -0.10822,0.14982 -0.32349,0.26578 -0.38468,0.44142 -0.21793,0.62553 0.57607,0.50657 0.86946,0.40492 -0.0876,0.157 -0.28872,0.34207 -0.3029,0.52505 -0.0197,0.25374 0.53719,0.81698 0.79746,0.80433 0.18223,-0.009 0.36086,-0.16653 0.51432,-0.25334 l -0.22876,0.61882 c 0.37185,0.17956 1.27269,0.83853 1.7001,0.65099 0.20468,-0.0898 0.26498,-0.39148 0.4331,-0.5368 0.047,0.19703 0.0138,0.51472 0.18654,0.65243 0.18501,0.14762 0.98292,0.11488 1.12603,-0.0853 0.10688,-0.1496 0.0927,-0.40918 0.10808,-0.58567 0.216237,0.11099 0.213797,0.32746 0.384307,0.47442 0.2317,0.19973 0.67801,-0.0893 0.85022,-0.25372 0.26929,-0.0247 0.80758,-0.21065 0.83301,-0.5383 0.0142,-0.18269 -0.11395,-0.37674 -0.13682,-0.56034 0.14889,0.10065 0.35996,0.31734 0.55099,0.31117 0.42331,-0.0139 0.5677,-0.72204 1.05397,-0.74387 0.54555,-0.0245 1.11125,0.0968 1.65935,0.10403 1.33537,0.0176 2.64752,-0.0769 3.97574,-0.17434 0.54089,-0.0398 0.67191,0.6424 1.14695,0.7013 0.19462,0.0241 0.40338,-0.18032 0.56495,-0.26808 -0.038,0.1807 -0.16685,0.42494 -0.0945,0.60672 0.12283,0.30891 1.2504,0.84311 1.5639,0.70819 0.18455,-0.0795 0.25628,-0.36835 0.3407,-0.53329 l 0.0947,-0.001 c 0.0428,0.17915 0.0226,0.43853 0.15032,0.58229 0.17258,0.19418 0.95408,0.20258 1.13625,0.0164 0.13535,-0.1383 0.11263,-0.43673 0.13432,-0.61729 0.20988,0.11257 0.21588,0.32981 0.38432,0.47442 0.2322,0.19935 0.67767,-0.0889 0.85022,-0.25372 0.72839,-0.0647 0.86015,-0.44813 0.64945,-1.05067 0.17103,0.0798 0.37764,0.28607 0.57291,0.27472 0.26188,-0.0152 0.77922,-0.54158 0.74155,-0.81272 -0.0264,-0.19049 -0.22292,-0.36839 -0.33347,-0.51672 l 0.66618,0.22813 0.32224,-0.71478 -0.52596,-0.37208 c 0.16454,0.007 0.4181,0.0797 0.56782,-0.004 0.60072,-0.33892 0.0518,-0.87228 -0.29727,-1.04086 l -6.2e-4,-0.0473 c 0.17239,-0.0198 0.43717,-0.015 0.56593,-0.14952 0.49432,-0.51584 -0.0627,-1.27251 -0.63189,-1.27074 0.13112,-0.12544 0.35841,-0.15945 0.45523,-0.31602 0.31181,-0.50426 -0.3904,-0.64595 -0.70444,-0.62814 0.29117,-0.37627 0.59493,-0.37176 0.98705,-0.56961 0.36987,-0.18662 0.67462,-0.48234 1.03316,-0.6882 -0.13762,1.14923 -0.20464,2.30972 -0.31815,3.46197 -0.0469,0.47639 -0.028,1.01031 -0.16507,1.47066 -0.27729,0.9313 -0.96857,1.85632 -1.41886,2.71844 -0.33006,0.63195 -0.69772,1.7383 -1.25354,2.18802 -0.76617,0.6199 -2.00352,0.95801 -2.90316,1.35836 -0.85229,0.37925 -1.73751,0.93278 -2.63709,1.17744 -0.65098,0.17705 -1.4096,0.16365 -2.08119,0.23997 -0.68415,0.0778 -1.39313,0.23554 -2.08113,0.24458 -0.86135,0.0114 -1.74796,-0.12515 -2.60758,-0.18751 -0.53815,-0.039 -1.13261,-0.004 -1.65954,-0.1181 -0.88428,-0.19123 -1.78096,-0.72593 -2.619367,-1.06732 -0.72957,-0.29707 -1.46171,-0.58735 -2.19039,-0.8866 -0.35091,-0.14411 -0.78347,-0.24945 -1.08414,-0.48709 -0.59,-0.46629 -0.96949,-1.56225 -1.33242,-2.21531 -0.19652,-0.35363 -0.4325,-0.71785 -0.66052,-1.08951 l 2.45621,5.66588 -0.50574,0.6681 -5.296824,-11.61672 1.066005,0.0227 1.397869,3.22448 c -0.13538,-0.73238 -0.13248,-1.53991 -0.22871,-2.25186 -0.09,-0.66561 -0.3065,-1.5115 -0.20935,-2.17604 z m 2.85267,0.92703 c 0.29677,-0.0112 0.69312,0.10676 0.90388,0.161 -0.0743,0.40687 -0.17532,1.29219 0.0692,1.64675 0.16826,0.24394 0.4914,0.31999 0.66986,0.5528 0.12582,0.16413 0.0877,0.38928 0.23279,0.54531 0.2577,0.27716 0.73264,0.43138 1.06166,0.61169 0.53075,0.29085 1.16987,0.75034 1.763897,0.87582 0.48832,0.10316 1.06557,0.0144 1.56336,0.008 -0.0738,0.81236 -1.23284,1.34505 -1.92201,1.54446 -2.082977,0.60274 -4.410197,-0.60741 -4.999107,-2.73291 -0.21462,-0.77461 -0.21005,-1.65023 0.0321,-2.41605 0.0713,-0.22554 0.1521,-0.60599 0.37135,-0.73611 0.0662,-0.0393 0.15408,-0.0572 0.253,-0.0608 z m 20.558647,-0.25263 c 0.0988,-2.5e-4 0.18864,0.0137 0.2619,0.0487 0.25258,0.12113 0.34722,0.56577 0.42171,0.80927 0.26454,0.86477 0.24264,1.79882 -0.0551,2.65321 -0.68536,1.96642 -2.82181,3.04622 -4.81499,2.51742 -0.70245,-0.18635 -1.84299,-0.66783 -1.96132,-1.48131 0.36797,-0.004 0.84109,0.0659 1.18311,-0.0893 0.56672,-0.25713 0.92424,-0.85776 1.45288,-1.17228 0.29941,-0.17813 0.67624,-0.067 0.99192,-0.21941 0.45549,-0.21997 1.44965,-0.85752 1.63991,-1.33723 0.17272,-0.43549 0.0203,-1.10616 -0.0199,-1.56097 0.22949,-0.0436 0.60359,-0.16808 0.89986,-0.16826 z m -21.827877,0.86845 c 0.18539,0.0184 0.27143,0.0524 0.33464,0.23248 z m 22.780747,-0.29813 0.33154,-0.004 -0.28169,0.19317 z m 3.34333,0.46641 0.91534,0.0922 -1.76593,10.8381 -0.96093,-0.0668 z m -3.14086,0.52544 0.3789,-0.005 0.009,0.66309 -0.3789,0.005 z m -22.914557,0.34062 c 0.0271,-8.9e-4 0.0561,0.001 0.0871,0.005 l -0.0387,0.6637 c -0.42737,-0.0436 -0.45448,-0.65583 -0.0484,-0.66917 z m 39.412147,0.67509 0.40939,9.56333 0.11279,2.27205 -0.0448,0.94312 -0.54482,0.16103 -1.37089,0.21889 -5.67297,0.86118 -0.36823,-10.03728 -0.0789,-2.41489 0.0844,-0.83225 0.56661,-0.0976 1.46657,-0.14782 z m -39.212377,0.70267 0.0997,0.37766 c -0.40791,0.0473 -0.46536,-0.20105 -0.0997,-0.37766 z m 22.638657,-0.29628 0.38047,0.13713 -0.13836,0.28604 -0.28451,-0.0437 z m -18.849287,0.29403 1.3274,0.0771 3.504867,-0.0456 6.1e-4,0.0473 c -0.57601,0.0507 -1.39582,0.16698 -1.40973,0.87113 l -1.5635,-0.0201 z m 11.415437,-0.0546 2.3205,-0.0304 6.2e-4,0.0473 -1.07837,0.83091 -1.04152,0.0495 -6.2e-4,-0.0474 c 0.58927,-0.14016 -0.52459,-0.75684 -1.43143,-0.78657 z m -0.51955,0.11734 c -0.008,1e-4 -0.013,0.001 -0.0154,0.003 -2.9e-4,2.5e-4 -10e-4,0.001 -10e-4,0.001 l -2.9e-4,2.9e-4 c -8e-5,2.2e-4 -4.3e-4,0.001 -5.3e-4,0.002 v 2.9e-4 c 1e-5,1.6e-4 0,5.6e-4 2e-5,0.001 9e-5,3.2e-4 4.5e-4,0.001 5.8e-4,0.002 0.003,0.007 0.0194,0.0119 0.0328,0.007 z m 0.18987,0.0291 -0.0468,0.048 z m 0.0953,0.0461 -0.0468,0.0481 z m -3.74108,0.0946 c 0.74455,-0.0149 1.48961,0.0121 2.22761,0.0894 0.62522,0.0655 1.55771,0.0238 1.57386,0.80998 -2.32437,-0.5318 -5.08025,-0.50583 -7.38835,0.0967 -0.0569,-0.77666 0.73454,-0.75548 1.36286,-0.8332 0.73554,-0.0909 1.47948,-0.14793 2.22402,-0.1629 z m 3.93116,-0.0494 -0.0468,0.0481 z m 0.0486,0.0941 0.14271,0.0456 z m 16.0552,-0.21012 0.50385,13.16202 c -0.40265,-0.11816 -1.40279,-0.39107 -1.61244,-0.77532 -0.19228,-0.35241 -0.069,-1.03572 -0.0741,-1.42906 0.30663,-0.0362 1.06673,-0.0543 1.25289,-0.33019 0.11888,-0.17627 0.0626,-0.48065 0.06,-0.6815 -0.008,-0.57088 -0.0456,-1.13555 -0.068,-1.70447 -0.085,-2.15838 -0.2003,-4.32799 -0.22873,-6.48657 -0.7446,-0.0117 -1.32888,0.0745 -1.33642,-0.78782 -0.001,-0.14934 -0.025,-0.34633 0.089,-0.46339 0.28439,-0.29209 1.0308,-0.37184 1.41396,-0.5037 z m 7.34222,-0.001 -6.24481,0.6028 c 0.0167,1.27605 0.0276,2.61472 0.17197,3.88191 0.035,0.30875 -0.0985,0.98685 0.11107,1.22962 0.2026,0.23474 1.07003,-0.0202 1.34634,-0.0544 1.18139,-0.14609 2.36307,-0.30859 3.54687,-0.43342 0.26594,-0.0281 1.08285,0.0125 1.22819,-0.24345 0.17288,-0.30455 0.0394,-0.99411 0.0292,-1.33827 -0.0357,-1.20542 -0.0531,-2.44651 -0.18896,-3.64481 z m -16.33318,0.68746 0.3334,0.13774 -0.0449,0.19008 -0.33279,-0.0904 z m -21.987257,0.38256 c 0.065,-0.004 0.11893,0.0319 0.15686,0.14006 l -0.3303,0.099 -0.048,-0.0468 -0.001,-0.0946 c 0.0816,-0.0503 0.15767,-0.0939 0.22265,-0.0977 z m -6.367307,0.17172 3.088192,7.62509 -5.086462,0.50841 -0.05243,-7.97689 z m 17.346744,-0.13109 c 0.60892,-0.01 1.21808,0.009 1.82442,0.0597 0.53182,0.0444 1.16762,0.007 1.66102,0.23119 v 3e-4 c -1.00965,0.26953 -2.13162,0.26476 -3.17022,0.27835 -1.21125,0.0159 -2.45492,0.0488 -3.64977,-0.18909 0.45505,-0.19975 1.02288,-0.2163 1.51237,-0.26814 0.6047,-0.064 1.21326,-0.1025 1.82218,-0.11223 z m 1.11481,0.1324 0.048,0.0468 z m 0.14395,0.14023 0.048,0.0468 z m -3.89906,0.0669 0.0318,0.0154 z m 4.27858,-0.0245 0.096,0.0935 z m -0.23619,0.0505 -0.18883,0.0498 6.2e-4,0.0473 0.23619,-0.0505 z m 0.14208,-0.002 0.048,0.0467 z m -1.04136,0.061 0.048,0.0467 z m -10.891057,0.28465 c 0.53973,0.50554 0.29331,0.74381 -0.23372,0.23991 l -6.2e-4,-0.0474 z m 20.927667,-0.17858 c 0.31953,-0.002 0.04,0.5096 -0.21039,0.48708 -0.31459,-0.0283 0.01,-0.4857 0.21039,-0.48708 z m -14.17661,0.21943 c 0.0621,-0.005 0.13173,-6.9e-4 0.21287,0.01 l -0.37209,0.52596 -0.28727,-0.2331 c 0.14397,-0.2009 0.2604,-0.28953 0.44649,-0.30297 z m 7.37182,-0.0649 c 0.34879,-0.0246 0.67274,0.26307 0.23621,0.49933 l -0.38509,-0.46867 c 0.0487,-0.0173 0.0991,-0.0271 0.14888,-0.0307 z m 14.53742,0.17006 c 0.26491,1.11368 0.12611,2.49887 0.14244,3.64542 0.0246,1.70396 0.18348,3.40962 0.20904,5.11335 -0.31723,-0.0381 -1.12232,-0.17561 -1.28504,-0.48158 -0.26259,-0.49378 -0.049,-1.50257 -0.0778,-2.05863 -0.0686,-1.32496 -0.11915,-2.65145 -0.18784,-3.97643 -0.0326,-0.6283 0.0373,-1.27257 -0.0753,-1.89385 z m -22.91789,0.6789 c 0.0751,0.3145 -0.10185,0.44646 -0.37147,0.5733 l -0.14642,-0.32967 z m 14.16097,-0.18533 0.14643,0.32967 -0.47053,0.24302 -0.14643,-0.32967 z m -18.848997,0.29403 0.52409,0.22999 c -0.147,0.29575 -0.35172,0.20951 -0.61448,0.10283 z m 14.208327,-0.18595 0.52409,0.23 -0.13837,0.28603 -0.47672,-0.23061 z m -10.32051,0.46667 c 0.0393,0.25997 -0.037,0.37703 -0.27798,0.47734 -0.0319,-0.26141 0.0391,-0.37043 0.27798,-0.47734 z m -3.077687,0.0876 c 0.24315,0.0743 0.31466,0.16797 0.28975,0.42255 -0.24314,-0.0743 -0.31466,-0.16797 -0.28975,-0.42255 z m 14.208037,-0.18595 c 0.25099,0.0611 0.31417,0.16881 0.28976,0.42255 -0.24678,-0.0663 -0.31441,-0.16981 -0.28976,-0.42255 z m 3.03123,-0.0397 0.0985,0.28293 -0.32968,0.14643 -0.0991,-0.3303 z m -16.052097,0.44692 0.71078,0.0381 c -0.11357,0.36261 -0.36827,0.33551 -0.70582,0.34084 z m 14.208057,-0.18593 0.66308,-0.009 0.004,0.33154 -0.66247,0.0561 z m -1.0578,7.22975 2.81594,3.66959 -15.538517,0.1603 2.225567,-3.64312 z m 13.03358,4.49105 1.16275,1.49175 -6.18838,3.51094 -24.826837,0.32492 -7.748513,-3.38052 1.436404,-1.42183 7.461819,2.29272 21.511717,-0.018 z m -37.744606,2.88434 6.745039,3.13411 -0.33105,2.49893 -6.852349,-3.39253 z m 39.958326,-0.52294 0.13111,2.07715 -7.07256,3.62647 0.0261,-1.97501 z m -8.16431,3.58906 -0.12256,2.54816 -23.902927,0.2608 0.17586,-2.44492 z"
     inkscape:label="Telescope" /></svg>
